RobotoSerifTextWide-Light.ufo
<glyph name="exclam" format="1">
  <advance width="272"/>
  <unicode hex="0021"/>
  <outline>
    <contour>
      <point x="179" y="735" type="line"/>
      <point x="179" y="548"/>
      <point x="158" y="441"/>
      <point x="158" y="194" type="curve"/>
      <point x="114" y="194" type="line"/>
      <point x="114" y="441"/>
      <point x="94" y="547"/>
      <point x="94" y="735" type="curve"/>
    </contour>
    <component base="period" xOffset="10"/>
  </outline>
</glyph>
<glyph name="numbersign" format="1">
  <advance width="734"/>
  <unicode hex="0023"/>
  <outline>
    <contour>
      <point x="117" y="0" type="line"/>
      <point x="167" y="0" type="line"/>
      <point x="371" y="750" type="line"/>
      <point x="322" y="750" type="line"/>
    </contour>
    <contour>
      <point x="47" y="251" type="line"/>
      <point x="640" y="251" type="line"/>
      <point x="640" y="309" type="line"/>
      <point x="47" y="309" type="line"/>
    </contour>
    <contour>
      <point x="100" y="462" type="line"/>
      <point x="692" y="462" type="line"/>
      <point x="692" y="520" type="line"/>
      <point x="100" y="520" type="line"/>
    </contour>
    <contour>
      <point x="354" y="0" type="line"/>
      <point x="404" y="0" type="line"/>
      <point x="609" y="750" type="line"/>
      <point x="557" y="750" type="line"/>
    </contour>
  </outline>
</glyph>
<glyph name="dollar" format="1">
  <advance width="654"/>
  <unicode hex="0024"/>
  <outline>
    <contour>
      <point x="308" y="789" type="line"/>
      <point x="308" y="681" type="line"/>
      <point x="308" y="668" type="line"/>
      <point x="308" y="39" type="line"/>
      <point x="308" y="31" type="line"/>
      <point x="308" y="-120" type="line"/>
      <point x="361" y="-120" type="line"/>
      <point x="361" y="31" type="line"/>
      <point x="361" y="40" type="line"/>
      <point x="361" y="667" type="line"/>
      <point x="361" y="680" type="line"/>
      <point x="361" y="789" type="line"/>
    </contour>
    <contour>
      <point x="339" y="55" type="curve" smooth="yes"/>
      <point x="237" y="55"/>
      <point x="141" y="86"/>
      <point x="96" y="141" type="curve"/>
      <point x="87" y="127"/>
      <point x="107" y="99"/>
      <point x="130" y="89" type="curve"/>
      <point x="130" y="202" type="line"/>
      <point x="53" y="202" type="line"/>
      <point x="53" y="94" type="line"/>
      <point x="106" y="50"/>
      <point x="213" y="10"/>
      <point x="341" y="10" type="curve" smooth="yes"/>
      <point x="489" y="10"/>
      <point x="604" y="75"/>
      <point x="604" y="203" type="curve" smooth="yes"/>
      <point x="604" y="326"/>
      <point x="478" y="367"/>
      <point x="369" y="393" type="curve" smooth="yes"/>
      <point x="256" y="417"/>
      <point x="147" y="439"/>
      <point x="147" y="532" type="curve" smooth="yes"/>
      <point x="147" y="610"/>
      <point x="222" y="654"/>
      <point x="346" y="654" type="curve" smooth="yes"/>
      <point x="438" y="654"/>
      <point x="507" y="627"/>
      <point x="540" y="590" type="curve"/>
      <point x="547" y="612"/>
      <point x="525" y="636"/>
      <point x="502" y="638" type="curve"/>
      <point x="502" y="537" type="line"/>
      <point x="578" y="537" type="line"/>
      <point x="578" y="637" type="line"/>
      <point x="540" y="665"/>
      <point x="456" y="698"/>
      <point x="343" y="698" type="curve" smooth="yes"/>
      <point x="191" y="698"/>
      <point x="87" y="633"/>
      <point x="87" y="525" type="curve" smooth="yes"/>
      <point x="87" y="400"/>
      <point x="208" y="366"/>
      <point x="314" y="341" type="curve" smooth="yes"/>
      <point x="428" y="316"/>
      <point x="542" y="296"/>
      <point x="542" y="190" type="curve" smooth="yes"/>
      <point x="542" y="94"/>
      <point x="459" y="55"/>
    </contour>
  </outline>
</glyph>
<glyph name="percent" format="1">
  <advance width="882"/>
  <unicode hex="0025"/>
  <outline>
    <contour>
      <point x="223" y="720" type="curve" smooth="yes"/>
      <point x="122" y="720"/>
      <point x="50" y="648"/>
      <point x="50" y="551" type="curve" smooth="yes"/>
      <point x="50" y="453"/>
      <point x="122" y="382"/>
      <point x="223" y="382" type="curve" smooth="yes"/>
      <point x="324" y="382"/>
      <point x="397" y="454"/>
      <point x="397" y="551" type="curve" smooth="yes"/>
      <point x="397" y="649"/>
      <point x="324" y="720"/>
    </contour>
    <contour>
      <point x="223" y="422" type="curve" smooth="yes"/>
      <point x="156" y="422"/>
      <point x="115" y="474"/>
      <point x="115" y="551" type="curve" smooth="yes"/>
      <point x="115" y="628"/>
      <point x="156" y="681"/>
      <point x="223" y="681" type="curve" smooth="yes"/>
      <point x="291" y="681"/>
      <point x="332" y="628"/>
      <point x="332" y="551" type="curve" smooth="yes"/>
      <point x="332" y="474"/>
      <point x="291" y="422"/>
    </contour>
    <contour>
      <point x="655" y="328" type="curve" smooth="yes"/>
      <point x="554" y="328"/>
      <point x="481" y="256"/>
      <point x="481" y="159" type="curve" smooth="yes"/>
      <point x="481" y="61"/>
      <point x="554" y="-10"/>
      <point x="655" y="-10" type="curve" smooth="yes"/>
      <point x="756" y="-10"/>
      <point x="828" y="62"/>
      <point x="828" y="159" type="curve" smooth="yes"/>
      <point x="828" y="257"/>
      <point x="756" y="328"/>
    </contour>
    <contour>
      <point x="655" y="30" type="curve" smooth="yes"/>
      <point x="587" y="30"/>
      <point x="547" y="82"/>
      <point x="547" y="159" type="curve" smooth="yes"/>
      <point x="547" y="237"/>
      <point x="587" y="289"/>
      <point x="655" y="289" type="curve" smooth="yes"/>
      <point x="722" y="289"/>
      <point x="763" y="237"/>
      <point x="763" y="159" type="curve" smooth="yes"/>
      <point x="763" y="82"/>
      <point x="722" y="30"/>
    </contour>
    <component base="fraction" xOffset="229"/>
  </outline>
</glyph>
<glyph name="ampersand" format="1">
  <advance width="834"/>
  <unicode hex="0026"/>
  <outline>
    <contour>
      <point x="700" y="318" type="curve" smooth="yes"/>
      <point x="708" y="351"/>
      <point x="740" y="356"/>
      <point x="792" y="356" type="curve" smooth="yes"/>
      <point x="794" y="356" type="line"/>
      <point x="794" y="395" type="line"/>
      <point x="562" y="395" type="line"/>
      <point x="562" y="356" type="line"/>
      <point x="564" y="356" type="line" smooth="yes"/>
      <point x="597" y="356"/>
      <point x="649" y="353"/>
      <point x="649" y="346" type="curve" smooth="yes"/>
      <point x="649" y="230"/>
      <point x="548" y="35"/>
      <point x="347" y="35" type="curve" smooth="yes"/>
      <point x="208" y="35"/>
      <point x="138" y="102"/>
      <point x="138" y="203" type="curve" smooth="yes"/>
      <point x="138" y="299"/>
      <point x="206" y="351"/>
      <point x="314" y="385" type="curve"/>
      <point x="300" y="418" type="line"/>
      <point x="166" y="385"/>
      <point x="66" y="313"/>
      <point x="66" y="199" type="curve" smooth="yes"/>
      <point x="66" y="74"/>
      <point x="170" y="-10"/>
      <point x="340" y="-10" type="curve" smooth="yes"/>
      <point x="587" y="-10"/>
      <point x="677" y="221"/>
    </contour>
    <contour>
      <point x="806" y="0" type="line"/>
      <point x="806" y="45" type="line"/>
      <point x="775" y="45" type="line" smooth="yes"/>
      <point x="724" y="45"/>
      <point x="702" y="61"/>
      <point x="666" y="89" type="curve" smooth="yes"/>
      <point x="398" y="293"/>
      <point x="297" y="425"/>
      <point x="297" y="551" type="curve" smooth="yes"/>
      <point x="297" y="635"/>
      <point x="350" y="674"/>
      <point x="423" y="674" type="curve" smooth="yes"/>
      <point x="489" y="674"/>
      <point x="525" y="636"/>
      <point x="525" y="582" type="curve" smooth="yes"/>
      <point x="525" y="501"/>
      <point x="440" y="463"/>
      <point x="318" y="424" type="curve"/>
      <point x="338" y="389" type="line"/>
      <point x="468" y="428"/>
      <point x="589" y="487"/>
      <point x="589" y="586" type="curve" smooth="yes"/>
      <point x="589" y="665"/>
      <point x="530" y="718"/>
      <point x="423" y="718" type="curve" smooth="yes"/>
      <point x="310" y="718"/>
      <point x="230" y="655"/>
      <point x="230" y="552" type="curve" smooth="yes"/>
      <point x="230" y="382"/>
      <point x="424" y="191"/>
      <point x="678" y="0" type="curve"/>
    </contour>
  </outline>
</glyph>
<glyph name="quotesingle" format="1">
  <advance width="276"/>
  <unicode hex="0027"/>
  <outline>
    <contour>
      <point x="177" y="710" type="line"/>
      <point x="177" y="631"/>
      <point x="160" y="591"/>
      <point x="160" y="465" type="curve"/>
      <point x="117" y="465" type="line"/>
      <point x="117" y="591"/>
      <point x="100" y="630"/>
      <point x="100" y="710" type="curve"/>
    </contour>
  </outline>
</glyph>
<glyph name="parenleft" format="1">
  <advance width="368"/>
  <unicode hex="0028"/>
  <outline>
    <contour>
      <point x="129" y="310" type="curve" smooth="yes"/>
      <point x="129" y="109"/>
      <point x="239" y="-48"/>
      <point x="348" y="-127" type="curve"/>
      <point x="348" y="-130" type="line"/>
      <point x="293" y="-130" type="line"/>
      <point x="169" y="-52"/>
      <point x="60" y="114"/>
      <point x="60" y="310" type="curve" smooth="yes"/>
      <point x="60" y="506"/>
      <point x="169" y="672"/>
      <point x="293" y="750" type="curve"/>
      <point x="348" y="750" type="line"/>
      <point x="348" y="747" type="line"/>
      <point x="239" y="668"/>
      <point x="129" y="512"/>
    </contour>
  </outline>
</glyph>
<glyph name="asterisk" format="1">
  <advance width="460"/>
  <unicode hex="002A"/>
  <outline>
    <contour>
      <point x="68" y="418" type="line"/>
      <point x="123" y="446"/>
      <point x="144" y="471"/>
      <point x="238" y="519" type="curve"/>
      <point x="222" y="545" type="line"/>
      <point x="127" y="497"/>
      <point x="93" y="494"/>
      <point x="39" y="466" type="curve"/>
    </contour>
    <contour>
      <point x="222" y="519" type="curve"/>
      <point x="238" y="545" type="line"/>
      <point x="144" y="593"/>
      <point x="123" y="620"/>
      <point x="68" y="647" type="curve"/>
      <point x="39" y="598" type="line"/>
      <point x="93" y="570"/>
      <point x="127" y="567"/>
    </contour>
    <contour>
      <point x="202" y="354" type="curve"/>
      <point x="259" y="354" type="line"/>
      <point x="259" y="409"/>
      <point x="246" y="439"/>
      <point x="246" y="533" type="curve"/>
      <point x="214" y="533" type="line"/>
      <point x="214" y="439"/>
      <point x="202" y="409"/>
    </contour>
    <contour>
      <point x="214" y="533" type="curve"/>
      <point x="246" y="533" type="line"/>
      <point x="246" y="627"/>
      <point x="259" y="656"/>
      <point x="259" y="710" type="curve"/>
      <point x="202" y="710" type="line"/>
      <point x="202" y="656"/>
      <point x="214" y="627"/>
    </contour>
    <contour>
      <point x="392" y="418" type="curve"/>
      <point x="421" y="466" type="line"/>
      <point x="368" y="494"/>
      <point x="333" y="497"/>
      <point x="239" y="545" type="curve"/>
      <point x="223" y="519" type="line"/>
      <point x="318" y="471"/>
      <point x="338" y="446"/>
    </contour>
    <contour>
      <point x="239" y="519" type="line"/>
      <point x="333" y="567"/>
      <point x="367" y="570"/>
      <point x="421" y="598" type="curve"/>
      <point x="392" y="647" type="line"/>
      <point x="338" y="620"/>
      <point x="318" y="593"/>
      <point x="223" y="545" type="curve"/>
    </contour>
  </outline>
</glyph>
<glyph name="plus" format="1">
  <advance width="654"/>
  <unicode hex="002B"/>
  <outline>
    <contour>
      <point x="298" y="544" type="line"/>
      <point x="298" y="138" type="line"/>
      <point x="355" y="138" type="line"/>
      <point x="355" y="544" type="line"/>
    </contour>
    <contour>
      <point x="554" y="367" type="line"/>
      <point x="100" y="367" type="line"/>
      <point x="100" y="316" type="line"/>
      <point x="554" y="316" type="line"/>
    </contour>
  </outline>
</glyph>
<glyph name="comma" format="1">
  <advance width="275"/>
  <unicode hex="002C"/>
  <outline>
    <contour>
      <point x="107" y="-144" type="line"/>
      <point x="175" y="-95"/>
      <point x="205" y="-35"/>
      <point x="205" y="28" type="curve" smooth="yes"/>
      <point x="205" y="73"/>
      <point x="180" y="96"/>
      <point x="143" y="96" type="curve" smooth="yes"/>
      <point x="111" y="96"/>
      <point x="87" y="75"/>
      <point x="87" y="44" type="curve" smooth="yes"/>
      <point x="87" y="13"/>
      <point x="109" y="-8"/>
      <point x="146" y="-8" type="curve" smooth="yes"/>
      <point x="165" y="-8"/>
      <point x="178" y="-3"/>
      <point x="184" y="11" type="curve"/>
      <point x="176" y="16"/>
      <point x="168" y="14"/>
      <point x="166" y="8" type="curve"/>
      <point x="165" y="-30"/>
      <point x="122" y="-80"/>
      <point x="59" y="-119" type="curve"/>
    </contour>
  </outline>
</glyph>
<glyph name="hyphen" format="1">
  <advance width="489"/>
  <unicode hex="002D"/>
  <outline>
    <contour>
      <point x="90" y="335" type="line"/>
      <point x="90" y="272" type="line"/>
      <point x="399" y="272" type="line"/>
      <point x="399" y="335" type="line"/>
    </contour>
  </outline>
</glyph>
<glyph name="period" format="1">
  <advance width="253"/>
  <unicode hex="002E"/>
  <outline>
    <contour>
      <point x="183" y="44" type="curve" smooth="yes"/>
      <point x="183" y="76"/>
      <point x="159" y="96"/>
      <point x="127" y="96" type="curve" smooth="yes"/>
      <point x="95" y="96"/>
      <point x="70" y="76"/>
      <point x="70" y="44" type="curve" smooth="yes"/>
      <point x="70" y="13"/>
      <point x="95" y="-8"/>
      <point x="127" y="-8" type="curve" smooth="yes"/>
      <point x="159" y="-8"/>
      <point x="183" y="13"/>
    </contour>
  </outline>
</glyph>
<glyph name="slash" format="1">
  <advance width="491"/>
  <unicode hex="002F"/>
  <outline>
    <contour>
      <point x="455" y="750" type="line"/>
      <point x="-25" y="-130" type="line"/>
      <point x="36" y="-130" type="line"/>
      <point x="515" y="750" type="line"/>
    </contour>
  </outline>
</glyph>
<glyph name="zero" format="1">
  <advance width="664"/>
  <unicode hex="0030"/>
  <outline>
    <contour>
      <point x="332" y="-10" type="curve" smooth="yes"/>
      <point x="495" y="-10"/>
      <point x="614" y="119"/>
      <point x="614" y="304" type="curve" smooth="yes"/>
      <point x="614" y="489"/>
      <point x="495" y="619"/>
      <point x="332" y="619" type="curve" smooth="yes"/>
      <point x="169" y="619"/>
      <point x="51" y="489"/>
      <point x="51" y="304" type="curve" smooth="yes"/>
      <point x="51" y="119"/>
      <point x="169" y="-10"/>
    </contour>
    <contour>
      <point x="332" y="35" type="curve" smooth="yes"/>
      <point x="204" y="35"/>
      <point x="124" y="142"/>
      <point x="124" y="304" type="curve" smooth="yes"/>
      <point x="124" y="466"/>
      <point x="203" y="574"/>
      <point x="332" y="574" type="curve" smooth="yes"/>
      <point x="461" y="574"/>
      <point x="541" y="466"/>
      <point x="541" y="304" type="curve" smooth="yes"/>
      <point x="541" y="141"/>
      <point x="461" y="35"/>
    </contour>
  </outline>
</glyph>
<glyph name="one" format="1">
  <advance width="664"/>
  <unicode hex="0031"/>
  <outline>
    <contour>
      <point x="402" y="74" type="curve" smooth="yes"/>
      <point x="402" y="609" type="line"/>
      <point x="356" y="609" type="line"/>
      <point x="315" y="558"/>
      <point x="232" y="535"/>
      <point x="127" y="533" type="curve"/>
      <point x="127" y="481" type="line"/>
      <point x="225" y="479"/>
      <point x="320" y="511"/>
      <point x="344" y="562" type="curve"/>
      <point x="350" y="575"/>
      <point x="348" y="578"/>
      <point x="332" y="556" type="curve"/>
      <point x="332" y="74" type="line" smooth="yes"/>
      <point x="332" y="45"/>
      <point x="285" y="38"/>
      <point x="209" y="38" type="curve" smooth="yes"/>
      <point x="142" y="38" type="line"/>
      <point x="142" y="0" type="line"/>
      <point x="587" y="0" type="line"/>
      <point x="587" y="38" type="line"/>
      <point x="536" y="38" type="line" smooth="yes"/>
      <point x="453" y="38"/>
      <point x="402" y="45"/>
    </contour>
  </outline>
</glyph>
<glyph name="two" format="1">
  <advance width="664"/>
  <unicode hex="0032"/>
  <outline>
    <contour>
      <point x="393" y="57" type="line" smooth="yes"/>
      <point x="494" y="57"/>
      <point x="532" y="62"/>
      <point x="537" y="101" type="curve" smooth="yes"/>
      <point x="547" y="179" type="line"/>
      <point x="591" y="179" type="line"/>
      <point x="591" y="0" type="line"/>
      <point x="65" y="0" type="line"/>
      <point x="65" y="70" type="line"/>
      <point x="288" y="184"/>
      <point x="493" y="302"/>
      <point x="493" y="443" type="curve" smooth="yes"/>
      <point x="493" y="535"/>
      <point x="423" y="573"/>
      <point x="324" y="573" type="curve" smooth="yes"/>
      <point x="233" y="573"/>
      <point x="165" y="542"/>
      <point x="123" y="499" type="curve"/>
      <point x="134" y="531"/>
      <point x="133" y="544"/>
      <point x="161" y="548" type="curve"/>
      <point x="161" y="443" type="line"/>
      <point x="88" y="443" type="line"/>
      <point x="88" y="542" type="line"/>
      <point x="129" y="579"/>
      <point x="212" y="618"/>
      <point x="324" y="618" type="curve" smooth="yes"/>
      <point x="472" y="618"/>
      <point x="565" y="558"/>
      <point x="565" y="441" type="curve" smooth="yes"/>
      <point x="565" y="284"/>
      <point x="320" y="144"/>
      <point x="101" y="40" type="curve"/>
      <point x="98" y="41"/>
      <point x="95" y="52"/>
      <point x="98" y="57" type="curve"/>
    </contour>
  </outline>
</glyph>
<glyph name="three" format="1">
  <advance width="664"/>
  <unicode hex="0033"/>
  <outline>
    <contour>
      <point x="332" y="-44" type="curve" smooth="yes"/>
      <point x="452" y="-44"/>
      <point x="528" y="11"/>
      <point x="528" y="112" type="curve" smooth="yes"/>
      <point x="528" y="203"/>
      <point x="460" y="262"/>
      <point x="305" y="262" type="curve" smooth="yes"/>
      <point x="221" y="262" type="line"/>
      <point x="221" y="306" type="line"/>
      <point x="293" y="306" type="line" smooth="yes"/>
      <point x="411" y="306"/>
      <point x="494" y="352"/>
      <point x="494" y="444" type="curve" smooth="yes"/>
      <point x="494" y="537"/>
      <point x="423" y="573"/>
      <point x="325" y="573" type="curve" smooth="yes"/>
      <point x="229" y="573"/>
      <point x="168" y="544"/>
      <point x="134" y="505" type="curve"/>
      <point x="138" y="536"/>
      <point x="155" y="557"/>
      <point x="168" y="560" type="curve"/>
      <point x="168" y="451" type="line"/>
      <point x="95" y="451" type="line"/>
      <point x="95" y="545" type="line"/>
      <point x="133" y="580"/>
      <point x="208" y="618"/>
      <point x="328" y="618" type="curve" smooth="yes"/>
      <point x="469" y="618"/>
      <point x="565" y="556"/>
      <point x="565" y="456" type="curve" smooth="yes"/>
      <point x="565" y="343"/>
      <point x="449" y="280"/>
      <point x="310" y="280" type="curve"/>
      <point x="329" y="291" type="line"/>
      <point x="530" y="291"/>
      <point x="600" y="214"/>
      <point x="600" y="111" type="curve" smooth="yes"/>
      <point x="600" y="-13"/>
      <point x="490" y="-90"/>
      <point x="332" y="-90" type="curve" smooth="yes"/>
      <point x="181" y="-90"/>
      <point x="81" y="-23"/>
      <point x="34" y="73" type="curve"/>
      <point x="79" y="103" type="line"/>
      <point x="116" y="26"/>
      <point x="199" y="-44"/>
    </contour>
  </outline>
</glyph>
<glyph name="four" format="1">
  <advance width="664"/>
  <unicode hex="0034"/>
  <outline>
    <contour>
      <point x="49" y="111" type="line"/>
      <point x="644" y="111" type="line"/>
      <point x="644" y="164" type="line"/>
      <point x="75" y="164" type="line"/>
      <point x="81" y="132" type="line"/>
      <point x="442" y="583" type="line"/>
      <point x="466" y="609" type="line"/>
      <point x="401" y="609" type="line"/>
      <point x="49" y="170" type="line"/>
    </contour>
    <contour>
      <point x="497" y="-77" type="line"/>
      <point x="497" y="609" type="line"/>
      <point x="432" y="609" type="line"/>
      <point x="427" y="585" type="line"/>
      <point x="427" y="-77" type="line"/>
    </contour>
  </outline>
</glyph>
<glyph name="five" format="1">
  <advance width="664"/>
  <unicode hex="0035"/>
  <outline>
    <contour>
      <point x="327" y="-90" type="curve" smooth="yes"/>
      <point x="185" y="-90"/>
      <point x="101" y="-27"/>
      <point x="57" y="54" type="curve"/>
      <point x="100" y="85" type="line"/>
      <point x="135" y="20"/>
      <point x="203" y="-44"/>
      <point x="327" y="-44" type="curve" smooth="yes"/>
      <point x="455" y="-44"/>
      <point x="534" y="34"/>
      <point x="534" y="149" type="curve" smooth="yes"/>
      <point x="534" y="257"/>
      <point x="450" y="320"/>
      <point x="347" y="320" type="curve" smooth="yes"/>
      <point x="263" y="320"/>
      <point x="204" y="291"/>
      <point x="155" y="239" type="curve"/>
      <point x="112" y="239" type="line"/>
      <point x="112" y="609" type="line"/>
      <point x="556" y="609" type="line"/>
      <point x="539" y="550" type="line"/>
      <point x="141" y="550" type="line"/>
      <point x="162" y="589" type="line"/>
      <point x="162" y="271" type="line"/>
      <point x="158" y="261"/>
      <point x="146" y="253"/>
      <point x="139" y="270" type="curve"/>
      <point x="184" y="329"/>
      <point x="259" y="366"/>
      <point x="357" y="366" type="curve" smooth="yes"/>
      <point x="514" y="366"/>
      <point x="606" y="265"/>
      <point x="606" y="149" type="curve" smooth="yes"/>
      <point x="606" y="12"/>
      <point x="497" y="-90"/>
    </contour>
  </outline>
</glyph>
<glyph name="six" format="1">
  <advance width="664"/>
  <unicode hex="0036"/>
  <outline>
    <contour>
      <point x="526" y="694" type="line"/>
      <point x="294" y="659"/>
      <point x="130" y="500"/>
      <point x="130" y="291" type="curve" smooth="yes"/>
      <point x="130" y="116"/>
      <point x="219" y="36"/>
      <point x="345" y="36" type="curve" smooth="yes"/>
      <point x="465" y="36"/>
      <point x="538" y="119"/>
      <point x="538" y="232" type="curve" smooth="yes"/>
      <point x="538" y="337"/>
      <point x="475" y="411"/>
      <point x="360" y="411" type="curve" smooth="yes"/>
      <point x="249" y="411"/>
      <point x="164" y="343"/>
      <point x="114" y="256" type="curve"/>
      <point x="101" y="294" type="line"/>
      <point x="142" y="377"/>
      <point x="242" y="456"/>
      <point x="368" y="456" type="curve" smooth="yes"/>
      <point x="515" y="456"/>
      <point x="611" y="369"/>
      <point x="611" y="232" type="curve" smooth="yes"/>
      <point x="611" y="97"/>
      <point x="498" y="-10"/>
      <point x="345" y="-10" type="curve" smooth="yes"/>
      <point x="183" y="-10"/>
      <point x="58" y="97"/>
      <point x="58" y="291" type="curve" smooth="yes"/>
      <point x="58" y="509"/>
      <point x="243" y="702"/>
      <point x="518" y="740" type="curve"/>
    </contour>
  </outline>
</glyph>
<glyph name="seven" format="1">
  <advance width="664"/>
  <unicode hex="0037"/>
  <outline>
    <contour>
      <point x="282" y="550" type="line" smooth="yes"/>
      <point x="177" y="550"/>
      <point x="142" y="543"/>
      <point x="138" y="507" type="curve" smooth="yes"/>
      <point x="128" y="419" type="line"/>
      <point x="86" y="419" type="line"/>
      <point x="86" y="609" type="line"/>
      <point x="628" y="609" type="line"/>
      <point x="628" y="550" type="line"/>
      <point x="485" y="386"/>
      <point x="355" y="234"/>
      <point x="323" y="-77" type="curve"/>
      <point x="249" y="-77" type="line"/>
      <point x="284" y="234"/>
      <point x="467" y="445"/>
      <point x="585" y="564" type="curve"/>
      <point x="596" y="550" type="line"/>
    </contour>
  </outline>
</glyph>
<glyph name="eight" format="1">
  <advance width="664"/>
  <unicode hex="0038"/>
  <outline>
    <contour>
      <point x="332" y="36" type="curve" smooth="yes"/>
      <point x="218" y="36"/>
      <point x="133" y="99"/>
      <point x="133" y="198" type="curve" smooth="yes"/>
      <point x="133" y="297"/>
      <point x="218" y="354"/>
      <point x="332" y="354" type="curve" smooth="yes"/>
      <point x="446" y="354"/>
      <point x="531" y="297"/>
      <point x="531" y="198" type="curve" smooth="yes"/>
      <point x="531" y="99"/>
      <point x="446" y="36"/>
    </contour>
    <contour>
      <point x="332" y="-10" type="curve" smooth="yes"/>
      <point x="486" y="-10"/>
      <point x="605" y="73"/>
      <point x="605" y="193" type="curve" smooth="yes"/>
      <point x="605" y="313"/>
      <point x="485" y="388"/>
      <point x="332" y="388" type="curve" smooth="yes"/>
      <point x="181" y="388"/>
      <point x="59" y="313"/>
      <point x="59" y="193" type="curve" smooth="yes"/>
      <point x="59" y="73"/>
      <point x="178" y="-10"/>
    </contour>
    <contour>
      <point x="332" y="399" type="curve" smooth="yes"/>
      <point x="241" y="399"/>
      <point x="171" y="451"/>
      <point x="171" y="535" type="curve" smooth="yes"/>
      <point x="171" y="620"/>
      <point x="238" y="674"/>
      <point x="332" y="674" type="curve" smooth="yes"/>
      <point x="426" y="674"/>
      <point x="494" y="620"/>
      <point x="494" y="535" type="curve" smooth="yes"/>
      <point x="494" y="451"/>
      <point x="423" y="399"/>
    </contour>
    <contour>
      <point x="332" y="368" type="curve" smooth="yes"/>
      <point x="461" y="368"/>
      <point x="563" y="435"/>
      <point x="563" y="543" type="curve" smooth="yes"/>
      <point x="563" y="648"/>
      <point x="459" y="720"/>
      <point x="332" y="720" type="curve" smooth="yes"/>
      <point x="205" y="720"/>
      <point x="101" y="648"/>
      <point x="101" y="543" type="curve" smooth="yes"/>
      <point x="101" y="435"/>
      <point x="204" y="368"/>
    </contour>
  </outline>
</glyph>
<glyph name="nine" format="1">
  <advance width="664"/>
  <unicode hex="0039"/>
  <outline>
    <contour>
      <point x="114" y="-47" type="line"/>
      <point x="372" y="-31"/>
      <point x="534" y="102"/>
      <point x="534" y="325" type="curve" smooth="yes"/>
      <point x="534" y="497"/>
      <point x="447" y="574"/>
      <point x="324" y="574" type="curve" smooth="yes"/>
      <point x="201" y="574"/>
      <point x="127" y="499"/>
      <point x="127" y="392" type="curve" smooth="yes"/>
      <point x="127" y="294"/>
      <point x="192" y="223"/>
      <point x="309" y="223" type="curve" smooth="yes"/>
      <point x="419" y="223"/>
      <point x="502" y="290"/>
      <point x="551" y="380" type="curve"/>
      <point x="563" y="341" type="line"/>
      <point x="524" y="255"/>
      <point x="426" y="177"/>
      <point x="301" y="177" type="curve" smooth="yes"/>
      <point x="156" y="177"/>
      <point x="54" y="262"/>
      <point x="54" y="392" type="curve" smooth="yes"/>
      <point x="54" y="522"/>
      <point x="164" y="619"/>
      <point x="324" y="619" type="curve" smooth="yes"/>
      <point x="485" y="619"/>
      <point x="606" y="519"/>
      <point x="606" y="324" type="curve" smooth="yes"/>
      <point x="606" y="91"/>
      <point x="423" y="-76"/>
      <point x="122" y="-94" type="curve"/>
    </contour>
  </outline>
</glyph>
<glyph name="less" format="1">
  <advance width="654"/>
  <unicode hex="003C"/>
  <outline>
    <contour>
      <point x="540" y="539" type="line"/>
      <point x="115" y="366" type="line"/>
      <point x="115" y="334" type="line"/>
      <point x="138" y="323" type="line"/>
      <point x="540" y="484" type="line"/>
    </contour>
    <contour>
      <point x="540" y="198" type="line"/>
      <point x="137" y="360" type="line"/>
      <point x="115" y="349" type="line"/>
      <point x="115" y="311" type="line"/>
      <point x="540" y="138" type="line"/>
    </contour>
  </outline>
</glyph>
<glyph name="question" format="1">
  <advance width="612"/>
  <unicode hex="003F"/>
  <outline>
    <contour>
      <point x="250" y="356" type="line"/>
      <point x="378" y="398"/>
      <point x="473" y="442"/>
      <point x="473" y="558" type="curve" smooth="yes"/>
      <point x="473" y="647"/>
      <point x="405" y="695"/>
      <point x="305" y="695" type="curve" smooth="yes"/>
      <point x="209" y="695"/>
      <point x="145" y="662"/>
      <point x="114" y="622" type="curve"/>
      <point x="115" y="648"/>
      <point x="117" y="669"/>
      <point x="146" y="674" type="curve"/>
      <point x="146" y="566" type="line"/>
      <point x="74" y="566" type="line"/>
      <point x="74" y="665" type="line"/>
      <point x="109" y="698"/>
      <point x="191" y="741"/>
      <point x="306" y="741" type="curve" smooth="yes"/>
      <point x="451" y="741"/>
      <point x="544" y="669"/>
      <point x="544" y="557" type="curve" smooth="yes"/>
      <point x="544" y="427"/>
      <point x="422" y="362"/>
      <point x="307" y="326" type="curve"/>
      <point x="307" y="206" type="line"/>
      <point x="250" y="206" type="line"/>
    </contour>
    <component base="period" xOffset="152" yOffset="-1"/>
  </outline>
</glyph>
<glyph name="at" format="1">
  <advance width="1048"/>
  <unicode hex="0040"/>
  <outline>
    <contour>
      <point x="540" y="-110" type="curve" smooth="yes"/>
      <point x="283" y="-110"/>
      <point x="103" y="22"/>
      <point x="103" y="233" type="curve" smooth="yes"/>
      <point x="103" y="459"/>
      <point x="303" y="631"/>
      <point x="574" y="631" type="curve" smooth="yes"/>
      <point x="812" y="631"/>
      <point x="947" y="504"/>
      <point x="947" y="342" type="curve" smooth="yes"/>
      <point x="947" y="178"/>
      <point x="852" y="92"/>
      <point x="764" y="92" type="curve" smooth="yes"/>
      <point x="701" y="92"/>
      <point x="672" y="120"/>
      <point x="684" y="179" type="curve" smooth="yes"/>
      <point x="743" y="468" type="line"/>
      <point x="705" y="468" type="line"/>
      <point x="669" y="392" type="line"/>
      <point x="660" y="387" type="line"/>
      <point x="612" y="146" type="line"/>
      <point x="615" y="141"/>
      <point x="617" y="142"/>
      <point x="618" y="143" type="curve"/>
      <point x="623" y="93"/>
      <point x="671" y="54"/>
      <point x="755" y="54" type="curve" smooth="yes"/>
      <point x="875" y="54"/>
      <point x="995" y="159"/>
      <point x="995" y="342" type="curve" smooth="yes"/>
      <point x="995" y="532"/>
      <point x="832" y="673"/>
      <point x="574" y="673" type="curve" smooth="yes"/>
      <point x="279" y="673"/>
      <point x="55" y="487"/>
      <point x="55" y="233" type="curve" smooth="yes"/>
      <point x="55" y="-7"/>
      <point x="260" y="-153"/>
      <point x="540" y="-153" type="curve" smooth="yes"/>
      <point x="665" y="-153"/>
      <point x="777" y="-123"/>
      <point x="841" y="-94" type="curve"/>
      <point x="826" y="-54" type="line"/>
      <point x="761" y="-82"/>
      <point x="663" y="-110"/>
    </contour>
    <contour>
      <point x="478" y="49" type="curve" smooth="yes"/>
      <point x="559" y="49"/>
      <point x="603" y="103"/>
      <point x="666" y="185" type="curve"/>
      <point x="653" y="216" type="line"/>
      <point x="596" y="139"/>
      <point x="550" y="89"/>
      <point x="482" y="89" type="curve" smooth="yes"/>
      <point x="415" y="89"/>
      <point x="380" y="133"/>
      <point x="380" y="217" type="curve" smooth="yes"/>
      <point x="380" y="321"/>
      <point x="450" y="434"/>
      <point x="552" y="434" type="curve" smooth="yes"/>
      <point x="612" y="434"/>
      <point x="652" y="405"/>
      <point x="674" y="318" type="curve"/>
      <point x="694" y="353" type="line"/>
      <point x="673" y="441"/>
      <point x="624" y="474"/>
      <point x="552" y="474" type="curve" smooth="yes"/>
      <point x="407" y="474"/>
      <point x="312" y="347"/>
      <point x="312" y="223" type="curve" smooth="yes"/>
      <point x="312" y="111"/>
      <point x="381" y="49"/>
    </contour>
  </outline>
</glyph>
<glyph name="A" format="1">
  <advance width="792"/>
  <unicode hex="0041"/>
  <outline>
    <contour>
      <point x="208" y="300" type="line"/>
      <point x="205" y="256" type="line"/>
      <point x="569" y="256" type="line"/>
      <point x="569" y="300" type="line"/>
    </contour>
    <contour>
      <point x="377" y="683" type="line"/>
      <point x="639" y="50" type="line"/>
      <point x="639" y="43"/>
      <point x="593" y="40"/>
      <point x="556" y="40" type="curve" smooth="yes"/>
      <point x="536" y="40" type="line"/>
      <point x="536" y="0" type="line"/>
      <point x="781" y="0" type="line"/>
      <point x="781" y="40" type="line"/>
      <point x="775" y="40" type="line"/>
      <point x="740" y="40"/>
      <point x="716" y="44"/>
      <point x="705" y="71" type="curve" smooth="yes"/>
      <point x="438" y="710" type="line"/>
      <point x="353" y="710" type="line"/>
      <point x="94" y="84" type="line" smooth="yes"/>
      <point x="79" y="50"/>
      <point x="55" y="40"/>
      <point x="17" y="40" type="curve"/>
      <point x="11" y="40" type="line"/>
      <point x="11" y="0" type="line"/>
      <point x="242" y="0" type="line"/>
      <point x="242" y="40" type="line"/>
      <point x="224" y="40" type="line" smooth="yes"/>
      <point x="185" y="40"/>
      <point x="140" y="47"/>
      <point x="140" y="58" type="curve"/>
      <point x="389" y="675" type="line"/>
    </contour>
    <contour>
      <point x="394" y="721" type="move" name="top"/>
    </contour>
    <contour>
      <point x="629" y="0" type="move" name="right"/>
    </contour>
    <contour>
      <point x="391" y="0" type="move" name="bottom"/>
    </contour>
  </outline>
</glyph>
<glyph name="B" format="1">
  <advance width="734"/>
  <unicode hex="0042"/>
  <outline>
    <contour>
      <point x="402" y="710" type="curve" smooth="yes"/>
      <point x="57" y="710" type="line"/>
      <point x="57" y="671" type="line"/>
      <point x="70" y="671" type="line" smooth="yes"/>
      <point x="118" y="671"/>
      <point x="154" y="664"/>
      <point x="154" y="636" type="curve" smooth="yes"/>
      <point x="154" y="74" type="line" smooth="yes"/>
      <point x="154" y="46"/>
      <point x="118" y="40"/>
      <point x="70" y="40" type="curve" smooth="yes"/>
      <point x="57" y="40" type="line"/>
      <point x="57" y="0" type="line"/>
      <point x="413" y="0" type="line" smooth="yes"/>
      <point x="578" y="0"/>
      <point x="676" y="75"/>
      <point x="676" y="195" type="curve" smooth="yes"/>
      <point x="676" y="307"/>
      <point x="585" y="377"/>
      <point x="413" y="385" type="curve"/>
      <point x="456" y="358" type="line"/>
      <point x="456" y="392" type="line"/>
      <point x="409" y="365" type="line"/>
      <point x="560" y="372"/>
      <point x="640" y="442"/>
      <point x="640" y="538" type="curve" smooth="yes"/>
      <point x="640" y="645"/>
      <point x="558" y="710"/>
    </contour>
    <contour>
      <point x="224" y="45" type="line"/>
      <point x="224" y="666" type="line"/>
      <point x="401" y="666" type="line" smooth="yes"/>
      <point x="512" y="666"/>
      <point x="568" y="619"/>
      <point x="568" y="537" type="curve" smooth="yes"/>
      <point x="568" y="455"/>
      <point x="511" y="394"/>
      <point x="384" y="394" type="curve" smooth="yes"/>
      <point x="208" y="394" type="line"/>
      <point x="208" y="350" type="line"/>
      <point x="397" y="350" type="line" smooth="yes"/>
      <point x="536" y="350"/>
      <point x="603" y="288"/>
      <point x="603" y="197" type="curve" smooth="yes"/>
      <point x="603" y="99"/>
      <point x="539" y="45"/>
      <point x="412" y="45" type="curve" smooth="yes"/>
    </contour>
  </outline>
</glyph>
<glyph name="C" format="1">
  <advance width="808"/>
  <unicode hex="0043"/>
  <outline>
    <contour>
      <point x="425" y="673" type="curve" smooth="yes"/>
      <point x="565" y="673"/>
      <point x="654" y="604"/>
      <point x="693" y="507" type="curve"/>
      <point x="743" y="507" type="line"/>
      <point x="743" y="710" type="line"/>
      <point x="698" y="710" type="line"/>
      <point x="682" y="556" type="line"/>
      <point x="710" y="564" type="line"/>
      <point x="667" y="661"/>
      <point x="568" y="720"/>
      <point x="425" y="720" type="curve" smooth="yes"/>
      <point x="220" y="720"/>
      <point x="51" y="569"/>
      <point x="51" y="355" type="curve" smooth="yes"/>
      <point x="51" y="138"/>
      <point x="208" y="-10"/>
      <point x="433" y="-10" type="curve" smooth="yes"/>
      <point x="606" y="-10"/>
      <point x="713" y="82"/>
      <point x="759" y="217" type="curve"/>
      <point x="711" y="236" type="line"/>
      <point x="676" y="124"/>
      <point x="588" y="37"/>
      <point x="437" y="37" type="curve" smooth="yes"/>
      <point x="251" y="37"/>
      <point x="125" y="165"/>
      <point x="125" y="355" type="curve" smooth="yes"/>
      <point x="125" y="547"/>
      <point x="261" y="673"/>
    </contour>
  </outline>
</glyph>
<glyph name="D" format="1">
  <advance width="845"/>
  <unicode hex="0044"/>
  <outline>
    <contour>
      <point x="57" y="671" type="line"/>
      <point x="70" y="671" type="line" smooth="yes"/>
      <point x="119" y="671"/>
      <point x="155" y="663"/>
      <point x="155" y="636" type="curve" smooth="yes"/>
      <point x="155" y="74" type="line" smooth="yes"/>
      <point x="155" y="46"/>
      <point x="119" y="40"/>
      <point x="70" y="40" type="curve" smooth="yes"/>
      <point x="57" y="40" type="line"/>
      <point x="57" y="0" type="line"/>
      <point x="373" y="0" type="line" smooth="yes"/>
      <point x="636" y="0"/>
      <point x="794" y="141"/>
      <point x="794" y="357" type="curve" smooth="yes"/>
      <point x="794" y="576"/>
      <point x="636" y="710"/>
      <point x="373" y="710" type="curve" smooth="yes"/>
      <point x="57" y="710" type="line"/>
    </contour>
    <contour>
      <point x="373" y="665" type="line" smooth="yes"/>
      <point x="590" y="665"/>
      <point x="720" y="553"/>
      <point x="720" y="357" type="curve" smooth="yes"/>
      <point x="720" y="161"/>
      <point x="591" y="46"/>
      <point x="373" y="46" type="curve" smooth="yes"/>
      <point x="224" y="46" type="line"/>
      <point x="224" y="665" type="line"/>
    </contour>
    <contour>
      <point x="422" y="741" type="move" name="top"/>
    </contour>
    <contour>
      <point x="423" y="0" type="move" name="bottom"/>
    </contour>
  </outline>
</glyph>
<glyph name="E" format="1">
  <advance width="711"/>
  <unicode hex="0045"/>
  <outline>
    <contour>
      <point x="648" y="191" type="line"/>
      <point x="604" y="191" type="line"/>
      <point x="594" y="94" type="line" smooth="yes"/>
      <point x="589" y="53"/>
      <point x="554" y="46"/>
      <point x="447" y="46" type="curve" smooth="yes"/>
      <point x="224" y="46" type="line"/>
      <point x="224" y="665" type="line"/>
      <point x="413" y="665" type="line" smooth="yes"/>
      <point x="518" y="665"/>
      <point x="556" y="658"/>
      <point x="561" y="615" type="curve" smooth="yes"/>
      <point x="570" y="544" type="line"/>
      <point x="613" y="544" type="line"/>
      <point x="613" y="710" type="line"/>
      <point x="57" y="710" type="line"/>
      <point x="57" y="671" type="line"/>
      <point x="70" y="671" type="line" smooth="yes"/>
      <point x="118" y="671"/>
      <point x="154" y="664"/>
      <point x="154" y="636" type="curve" smooth="yes"/>
      <point x="154" y="74" type="line" smooth="yes"/>
      <point x="154" y="46"/>
      <point x="118" y="40"/>
      <point x="70" y="40" type="curve" smooth="yes"/>
      <point x="57" y="40" type="line"/>
      <point x="57" y="0" type="line"/>
      <point x="648" y="0" type="line"/>
    </contour>
    <contour>
      <point x="196" y="385" type="curve"/>
      <point x="196" y="343" type="line"/>
      <point x="302" y="341"/>
      <point x="395" y="339"/>
      <point x="512" y="337" type="curve"/>
      <point x="512" y="391" type="line"/>
      <point x="401" y="388"/>
      <point x="301" y="387"/>
    </contour>
    <contour>
      <point x="411" y="741" type="move" name="top"/>
    </contour>
    <contour>
      <point x="483" y="0" type="move" name="right"/>
    </contour>
    <contour>
      <point x="411" y="0" type="move" name="bottom"/>
    </contour>
  </outline>
</glyph>
<glyph name="F" format="1">
  <advance width="676"/>
  <unicode hex="0046"/>
  <outline>
    <contour>
      <point x="224" y="665" type="line"/>
      <point x="414" y="665" type="line" smooth="yes"/>
      <point x="526" y="665"/>
      <point x="557" y="658"/>
      <point x="562" y="617" type="curve" smooth="yes"/>
      <point x="571" y="544" type="line"/>
      <point x="614" y="544" type="line"/>
      <point x="614" y="710" type="line"/>
      <point x="57" y="710" type="line"/>
      <point x="57" y="671" type="line"/>
      <point x="70" y="671" type="line" smooth="yes"/>
      <point x="118" y="671"/>
      <point x="154" y="664"/>
      <point x="154" y="636" type="curve" smooth="yes"/>
      <point x="154" y="74" type="line" smooth="yes"/>
      <point x="154" y="46"/>
      <point x="118" y="40"/>
      <point x="70" y="40" type="curve" smooth="yes"/>
      <point x="57" y="40" type="line"/>
      <point x="57" y="0" type="line"/>
      <point x="342" y="0" type="line"/>
      <point x="342" y="40" type="line"/>
      <point x="322" y="40" type="line" smooth="yes"/>
      <point x="278" y="40"/>
      <point x="224" y="41"/>
      <point x="224" y="74" type="curve" smooth="yes"/>
    </contour>
    <contour>
      <point x="200" y="378" type="curve"/>
      <point x="200" y="336" type="line"/>
      <point x="306" y="334"/>
      <point x="412" y="332"/>
      <point x="518" y="330" type="curve"/>
      <point x="518" y="384" type="line"/>
      <point x="412" y="382"/>
      <point x="306" y="380"/>
    </contour>
  </outline>
</glyph>
<glyph name="G" format="1">
  <advance width="865"/>
  <unicode hex="0047"/>
  <outline>
    <contour>
      <point x="754" y="281" type="line" smooth="yes"/>
      <point x="754" y="308"/>
      <point x="787" y="314"/>
      <point x="833" y="314" type="curve" smooth="yes"/>
      <point x="838" y="314" type="line"/>
      <point x="838" y="354" type="line"/>
      <point x="585" y="354" type="line"/>
      <point x="585" y="314" type="line"/>
      <point x="597" y="314" type="line" smooth="yes"/>
      <point x="649" y="314"/>
      <point x="689" y="308"/>
      <point x="689" y="281" type="curve" smooth="yes"/>
      <point x="689" y="113" type="line"/>
      <point x="661" y="90"/>
      <point x="588" y="37"/>
      <point x="459" y="37" type="curve" smooth="yes"/>
      <point x="256" y="37"/>
      <point x="125" y="160"/>
      <point x="125" y="355" type="curve" smooth="yes"/>
      <point x="125" y="547"/>
      <point x="253" y="673"/>
      <point x="431" y="673" type="curve" smooth="yes"/>
      <point x="577" y="673"/>
      <point x="666" y="603"/>
      <point x="706" y="507" type="curve"/>
      <point x="756" y="507" type="line"/>
      <point x="756" y="710" type="line"/>
      <point x="712" y="710" type="line"/>
      <point x="695" y="557" type="line"/>
      <point x="721" y="566" type="line"/>
      <point x="680" y="660"/>
      <point x="574" y="720"/>
      <point x="431" y="720" type="curve" smooth="yes"/>
      <point x="214" y="720"/>
      <point x="51" y="569"/>
      <point x="51" y="355" type="curve" smooth="yes"/>
      <point x="51" y="137"/>
      <point x="213" y="-10"/>
      <point x="457" y="-10" type="curve" smooth="yes"/>
      <point x="601" y="-10"/>
      <point x="711" y="49"/>
      <point x="754" y="96" type="curve"/>
    </contour>
    <contour>
      <point x="434" y="741" type="move" name="top"/>
    </contour>
    <contour>
      <point x="437" y="0" type="move" name="bottom"/>
    </contour>
  </outline>
</glyph>
<glyph name="H" format="1">
  <advance width="911"/>
  <unicode hex="0048"/>
  <outline>
    <contour>
      <point x="200" y="389" type="line"/>
      <point x="200" y="344" type="line"/>
      <point x="717" y="344" type="line"/>
      <point x="717" y="389" type="line"/>
    </contour>
    <contour>
      <point x="57" y="0" type="line"/>
      <point x="321" y="0" type="line"/>
      <point x="321" y="40" type="line"/>
      <point x="310" y="40" type="line" smooth="yes"/>
      <point x="272" y="40"/>
      <point x="224" y="43"/>
      <point x="224" y="50" type="curve" smooth="yes"/>
      <point x="224" y="661" type="line" smooth="yes"/>
      <point x="224" y="668"/>
      <point x="272" y="671"/>
      <point x="310" y="671" type="curve" smooth="yes"/>
      <point x="321" y="671" type="line"/>
      <point x="321" y="710" type="line"/>
      <point x="57" y="710" type="line"/>
      <point x="57" y="671" type="line"/>
      <point x="70" y="671" type="line" smooth="yes"/>
      <point x="118" y="671"/>
      <point x="154" y="664"/>
      <point x="154" y="636" type="curve" smooth="yes"/>
      <point x="154" y="74" type="line" smooth="yes"/>
      <point x="154" y="46"/>
      <point x="118" y="40"/>
      <point x="70" y="40" type="curve" smooth="yes"/>
      <point x="57" y="40" type="line"/>
    </contour>
    <contour>
      <point x="591" y="0" type="line"/>
      <point x="855" y="0" type="line"/>
      <point x="855" y="40" type="line"/>
      <point x="842" y="40" type="line" smooth="yes"/>
      <point x="794" y="40"/>
      <point x="758" y="46"/>
      <point x="758" y="74" type="curve" smooth="yes"/>
      <point x="758" y="636" type="line" smooth="yes"/>
      <point x="758" y="664"/>
      <point x="794" y="671"/>
      <point x="842" y="671" type="curve" smooth="yes"/>
      <point x="855" y="671" type="line"/>
      <point x="855" y="710" type="line"/>
      <point x="591" y="710" type="line"/>
      <point x="591" y="671" type="line"/>
      <point x="601" y="671" type="line" smooth="yes"/>
      <point x="639" y="671"/>
      <point x="688" y="668"/>
      <point x="688" y="661" type="curve" smooth="yes"/>
      <point x="688" y="50" type="line" smooth="yes"/>
      <point x="688" y="43"/>
      <point x="639" y="40"/>
      <point x="601" y="40" type="curve" smooth="yes"/>
      <point x="591" y="40" type="line"/>
    </contour>
    <contour>
      <point x="456" y="741" type="move" name="top"/>
    </contour>
    <contour>
      <point x="456" y="0" type="move" name="bottom"/>
    </contour>
  </outline>
</glyph>
<glyph name="I" format="1">
  <advance width="377"/>
  <unicode hex="0049"/>
  <outline>
    <contour>
      <point x="154" y="74" type="line" smooth="yes"/>
      <point x="154" y="46"/>
      <point x="118" y="40"/>
      <point x="70" y="40" type="curve" smooth="yes"/>
      <point x="57" y="40" type="line"/>
      <point x="57" y="0" type="line"/>
      <point x="321" y="0" type="line"/>
      <point x="321" y="40" type="line"/>
      <point x="308" y="40" type="line" smooth="yes"/>
      <point x="260" y="40"/>
      <point x="224" y="46"/>
      <point x="224" y="74" type="curve" smooth="yes"/>
      <point x="224" y="636" type="line" smooth="yes"/>
      <point x="224" y="664"/>
      <point x="260" y="671"/>
      <point x="308" y="671" type="curve" smooth="yes"/>
      <point x="321" y="671" type="line"/>
      <point x="321" y="710" type="line"/>
      <point x="57" y="710" type="line"/>
      <point x="57" y="671" type="line"/>
      <point x="70" y="671" type="line" smooth="yes"/>
      <point x="118" y="671"/>
      <point x="154" y="664"/>
      <point x="154" y="636" type="curve" smooth="yes"/>
    </contour>
    <contour>
      <point x="189" y="741" type="move" name="top"/>
    </contour>
    <contour>
      <point x="250" y="0" type="move" name="right"/>
    </contour>
    <contour>
      <point x="189" y="0" type="move" name="bottom"/>
    </contour>
  </outline>
</glyph>
<glyph name="J" format="1">
  <advance width="617"/>
  <unicode hex="004A"/>
  <outline>
    <contour>
      <point x="288" y="710" type="line"/>
      <point x="288" y="671" type="line"/>
      <point x="313" y="671" type="line" smooth="yes"/>
      <point x="361" y="671"/>
      <point x="397" y="664"/>
      <point x="397" y="636" type="curve" smooth="yes"/>
      <point x="397" y="214" type="line" smooth="yes"/>
      <point x="397" y="77"/>
      <point x="333" y="36"/>
      <point x="235" y="36" type="curve" smooth="yes"/>
      <point x="156" y="36"/>
      <point x="108" y="62"/>
      <point x="84" y="92" type="curve"/>
      <point x="70" y="88"/>
      <point x="71" y="56"/>
      <point x="111" y="51" type="curve"/>
      <point x="111" y="146" type="line"/>
      <point x="36" y="146" type="line"/>
      <point x="36" y="53" type="line"/>
      <point x="73" y="19"/>
      <point x="143" y="-10"/>
      <point x="235" y="-10" type="curve" smooth="yes"/>
      <point x="373" y="-10"/>
      <point x="465" y="47"/>
      <point x="465" y="214" type="curve" smooth="yes"/>
      <point x="465" y="636" type="line" smooth="yes"/>
      <point x="465" y="664"/>
      <point x="501" y="671"/>
      <point x="550" y="671" type="curve" smooth="yes"/>
      <point x="563" y="671" type="line"/>
      <point x="563" y="710" type="line"/>
    </contour>
    <contour>
      <point x="421" y="741" type="move" name="top"/>
    </contour>
  </outline>
</glyph>
<glyph name="K" format="1">
  <advance width="792"/>
  <unicode hex="004B"/>
  <outline>
    <contour>
      <point x="57" y="0" type="line"/>
      <point x="321" y="0" type="line"/>
      <point x="321" y="40" type="line"/>
      <point x="310" y="40" type="line" smooth="yes"/>
      <point x="272" y="40"/>
      <point x="224" y="43"/>
      <point x="224" y="50" type="curve" smooth="yes"/>
      <point x="224" y="661" type="line" smooth="yes"/>
      <point x="224" y="668"/>
      <point x="272" y="671"/>
      <point x="310" y="671" type="curve" smooth="yes"/>
      <point x="321" y="671" type="line"/>
      <point x="321" y="710" type="line"/>
      <point x="57" y="710" type="line"/>
      <point x="57" y="671" type="line"/>
      <point x="70" y="671" type="line" smooth="yes"/>
      <point x="118" y="671"/>
      <point x="154" y="664"/>
      <point x="154" y="636" type="curve" smooth="yes"/>
      <point x="154" y="74" type="line" smooth="yes"/>
      <point x="154" y="46"/>
      <point x="118" y="40"/>
      <point x="70" y="40" type="curve" smooth="yes"/>
      <point x="57" y="40" type="line"/>
    </contour>
    <contour>
      <point x="511" y="0" type="line"/>
      <point x="771" y="0" type="line"/>
      <point x="771" y="40" type="line"/>
      <point x="759" y="40" type="line" smooth="yes"/>
      <point x="712" y="40"/>
      <point x="698" y="47"/>
      <point x="669" y="74" type="curve" smooth="yes"/>
      <point x="323" y="392" type="line"/>
      <point x="325" y="358" type="line"/>
      <point x="648" y="643" type="line" smooth="yes"/>
      <point x="671" y="663"/>
      <point x="691" y="671"/>
      <point x="726" y="671" type="curve" smooth="yes"/>
      <point x="745" y="671" type="line"/>
      <point x="745" y="710" type="line"/>
      <point x="512" y="710" type="line"/>
      <point x="512" y="671" type="line"/>
      <point x="522" y="671" type="line" smooth="yes"/>
      <point x="558" y="671"/>
      <point x="598" y="667"/>
      <point x="600" y="660" type="curve"/>
      <point x="268" y="366" type="line"/>
      <point x="268" y="354" type="line"/>
      <point x="601" y="50" type="line"/>
      <point x="601" y="43"/>
      <point x="556" y="40"/>
      <point x="522" y="40" type="curve" smooth="yes"/>
      <point x="511" y="40" type="line"/>
    </contour>
    <contour>
      <point x="406" y="741" type="move" name="top"/>
    </contour>
    <contour>
      <point x="406" y="0" type="move" name="bottom"/>
    </contour>
  </outline>
</glyph>
<glyph name="L" format="1">
  <advance width="685"/>
  <unicode hex="004C"/>
  <outline>
    <contour>
      <point x="325" y="710" type="line"/>
      <point x="325" y="671" type="line"/>
      <point x="313" y="671" type="line" smooth="yes"/>
      <point x="261" y="671"/>
      <point x="224" y="664"/>
      <point x="224" y="636" type="curve" smooth="yes"/>
      <point x="224" y="46" type="line"/>
      <point x="428" y="46" type="line" smooth="yes"/>
      <point x="536" y="46"/>
      <point x="568" y="53"/>
      <point x="573" y="95" type="curve" smooth="yes"/>
      <point x="584" y="203" type="line"/>
      <point x="630" y="203" type="line"/>
      <point x="630" y="0" type="line"/>
      <point x="57" y="0" type="line"/>
      <point x="57" y="40" type="line"/>
      <point x="70" y="40" type="line" smooth="yes"/>
      <point x="118" y="40"/>
      <point x="154" y="46"/>
      <point x="154" y="74" type="curve" smooth="yes"/>
      <point x="154" y="636" type="line" smooth="yes"/>
      <point x="154" y="664"/>
      <point x="118" y="671"/>
      <point x="70" y="671" type="curve" smooth="yes"/>
      <point x="57" y="671" type="line"/>
      <point x="57" y="710" type="line"/>
    </contour>
    <contour>
      <point x="414" y="741" type="move" name="top"/>
    </contour>
    <contour>
      <point x="519" y="710" type="move" name="right"/>
    </contour>
    <contour>
      <point x="521" y="410" type="move" name="mid"/>
    </contour>
    <contour>
      <point x="415" y="0" type="move" name="bottom"/>
    </contour>
  </outline>
</glyph>
<glyph name="M" format="1">
  <advance width="1053"/>
  <unicode hex="004D"/>
  <outline>
    <contour>
      <point x="57" y="0" type="line"/>
      <point x="293" y="0" type="line"/>
      <point x="293" y="40" type="line"/>
      <point x="289" y="40" type="line" smooth="yes"/>
      <point x="256" y="40"/>
      <point x="208" y="43"/>
      <point x="208" y="50" type="curve" smooth="yes"/>
      <point x="208" y="686" type="line"/>
      <point x="199" y="693" type="line"/>
      <point x="494" y="-2" type="line"/>
      <point x="543" y="-2" type="line"/>
      <point x="838" y="692" type="line"/>
      <point x="830" y="694" type="line"/>
      <point x="830" y="50" type="line" smooth="yes"/>
      <point x="830" y="43"/>
      <point x="791" y="40"/>
      <point x="755" y="40" type="curve" smooth="yes"/>
      <point x="745" y="40" type="line"/>
      <point x="745" y="0" type="line"/>
      <point x="997" y="0" type="line"/>
      <point x="997" y="40" type="line"/>
      <point x="984" y="40" type="line" smooth="yes"/>
      <point x="936" y="40"/>
      <point x="900" y="46"/>
      <point x="900" y="74" type="curve" smooth="yes"/>
      <point x="900" y="636" type="line" smooth="yes"/>
      <point x="900" y="664"/>
      <point x="936" y="671"/>
      <point x="984" y="671" type="curve" smooth="yes"/>
      <point x="997" y="671" type="line"/>
      <point x="997" y="710" type="line"/>
      <point x="791" y="710" type="line"/>
      <point x="520" y="74" type="line"/>
      <point x="536" y="70" type="line"/>
      <point x="268" y="710" type="line"/>
      <point x="57" y="710" type="line"/>
      <point x="57" y="671" type="line"/>
      <point x="70" y="671" type="line" smooth="yes"/>
      <point x="118" y="671"/>
      <point x="154" y="664"/>
      <point x="154" y="636" type="curve" smooth="yes"/>
      <point x="154" y="74" type="line" smooth="yes"/>
      <point x="154" y="46"/>
      <point x="118" y="40"/>
      <point x="70" y="40" type="curve"/>
      <point x="57" y="40" type="line"/>
    </contour>
    <contour>
      <point x="512" y="0" type="move" name="bottom"/>
    </contour>
  </outline>
</glyph>
<glyph name="N" format="1">
  <advance width="881"/>
  <unicode hex="004E"/>
  <outline>
    <contour>
      <point x="57" y="0" type="line"/>
      <point x="317" y="0" type="line"/>
      <point x="317" y="40" type="line"/>
      <point x="300" y="40" type="line" smooth="yes"/>
      <point x="257" y="40"/>
      <point x="208" y="48"/>
      <point x="208" y="55" type="curve" smooth="yes"/>
      <point x="208" y="684" type="line"/>
      <point x="190" y="685" type="line"/>
      <point x="658" y="0" type="line"/>
      <point x="731" y="0" type="line"/>
      <point x="731" y="631" type="line" smooth="yes"/>
      <point x="731" y="660"/>
      <point x="766" y="671"/>
      <point x="815" y="671" type="curve" smooth="yes"/>
      <point x="829" y="671" type="line"/>
      <point x="829" y="710" type="line"/>
      <point x="569" y="710" type="line"/>
      <point x="569" y="671" type="line"/>
      <point x="585" y="671" type="line" smooth="yes"/>
      <point x="629" y="671"/>
      <point x="677" y="663"/>
      <point x="677" y="656" type="curve" smooth="yes"/>
      <point x="677" y="73" type="line"/>
      <point x="689" y="72" type="line"/>
      <point x="255" y="710" type="line"/>
      <point x="57" y="710" type="line"/>
      <point x="57" y="671" type="line"/>
      <point x="70" y="671" type="line" smooth="yes"/>
      <point x="118" y="671"/>
      <point x="154" y="664"/>
      <point x="154" y="636" type="curve" smooth="yes"/>
      <point x="154" y="79" type="line" smooth="yes"/>
      <point x="154" y="51"/>
      <point x="118" y="40"/>
      <point x="70" y="40" type="curve" smooth="yes"/>
      <point x="57" y="40" type="line"/>
    </contour>
    <contour>
      <point x="450" y="741" type="move" name="top"/>
    </contour>
    <contour>
      <point x="450" y="0" type="move" name="bottom"/>
    </contour>
  </outline>
</glyph>
<glyph name="O" format="1">
  <advance width="888"/>
  <unicode hex="004F"/>
  <outline>
    <contour>
      <point x="445" y="720" type="curve" smooth="yes"/>
      <point x="223" y="720"/>
      <point x="52" y="572"/>
      <point x="52" y="355" type="curve" smooth="yes"/>
      <point x="52" y="139"/>
      <point x="223" y="-10"/>
      <point x="445" y="-10" type="curve" smooth="yes"/>
      <point x="666" y="-10"/>
      <point x="837" y="139"/>
      <point x="837" y="355" type="curve" smooth="yes"/>
      <point x="837" y="572"/>
      <point x="666" y="720"/>
    </contour>
    <contour>
      <point x="445" y="36" type="curve" smooth="yes"/>
      <point x="262" y="36"/>
      <point x="126" y="160"/>
      <point x="126" y="355" type="curve" smooth="yes"/>
      <point x="126" y="551"/>
      <point x="262" y="674"/>
      <point x="445" y="674" type="curve" smooth="yes"/>
      <point x="627" y="674"/>
      <point x="763" y="550"/>
      <point x="763" y="355" type="curve" smooth="yes"/>
      <point x="763" y="160"/>
      <point x="627" y="36"/>
    </contour>
    <contour>
      <point x="444" y="741" type="move" name="top"/>
    </contour>
    <contour>
      <point x="444" y="0" type="move" name="bottom"/>
    </contour>
  </outline>
</glyph>
<glyph name="P" format="1">
  <advance width="707"/>
  <unicode hex="0050"/>
  <outline>
    <contour>
      <point x="223" y="50" type="line" smooth="yes"/>
      <point x="223" y="43"/>
      <point x="266" y="40"/>
      <point x="299" y="40" type="curve" smooth="yes"/>
      <point x="330" y="40" type="line"/>
      <point x="330" y="0" type="line"/>
      <point x="57" y="0" type="line"/>
      <point x="57" y="40" type="line"/>
      <point x="70" y="40" type="line" smooth="yes"/>
      <point x="118" y="40"/>
      <point x="154" y="46"/>
      <point x="154" y="74" type="curve" smooth="yes"/>
      <point x="154" y="636" type="line" smooth="yes"/>
      <point x="154" y="664"/>
      <point x="118" y="671"/>
      <point x="70" y="671" type="curve" smooth="yes"/>
      <point x="57" y="671" type="line"/>
      <point x="57" y="710" type="line"/>
      <point x="389" y="710" type="line" smooth="yes"/>
      <point x="574" y="710"/>
      <point x="671" y="630"/>
      <point x="671" y="505" type="curve" smooth="yes"/>
      <point x="671" y="379"/>
      <point x="567" y="291"/>
      <point x="383" y="291" type="curve" smooth="yes"/>
      <point x="204" y="291" type="line"/>
      <point x="204" y="336" type="line"/>
      <point x="382" y="336" type="line" smooth="yes"/>
      <point x="526" y="336"/>
      <point x="596" y="402"/>
      <point x="596" y="503" type="curve" smooth="yes"/>
      <point x="596" y="606"/>
      <point x="525" y="665"/>
      <point x="388" y="665" type="curve" smooth="yes"/>
      <point x="223" y="665" type="line"/>
    </contour>
  </outline>
</glyph>
<glyph name="Q" format="1">
  <advance width="888"/>
  <unicode hex="0051"/>
  <outline>
    <contour>
      <point x="417" y="-2" type="line"/>
      <point x="414" y="-133"/>
      <point x="504" y="-183"/>
      <point x="645" y="-183" type="curve" smooth="yes"/>
      <point x="699" y="-183"/>
      <point x="751" y="-175"/>
      <point x="796" y="-162" type="curve"/>
      <point x="796" y="-93" type="line"/>
      <point x="746" y="-112"/>
      <point x="697" y="-125"/>
      <point x="636" y="-125" type="curve" smooth="yes"/>
      <point x="528" y="-125"/>
      <point x="466" y="-90"/>
      <point x="471" y="10" type="curve"/>
    </contour>
    <contour>
      <point x="445" y="720" type="curve" smooth="yes"/>
      <point x="223" y="720"/>
      <point x="52" y="572"/>
      <point x="52" y="355" type="curve" smooth="yes"/>
      <point x="52" y="139"/>
      <point x="223" y="-10"/>
      <point x="445" y="-10" type="curve" smooth="yes"/>
      <point x="666" y="-10"/>
      <point x="837" y="139"/>
      <point x="837" y="355" type="curve" smooth="yes"/>
      <point x="837" y="572"/>
      <point x="666" y="720"/>
    </contour>
    <contour>
      <point x="445" y="36" type="curve" smooth="yes"/>
      <point x="262" y="36"/>
      <point x="126" y="160"/>
      <point x="126" y="355" type="curve" smooth="yes"/>
      <point x="126" y="551"/>
      <point x="262" y="674"/>
      <point x="445" y="674" type="curve" smooth="yes"/>
      <point x="627" y="674"/>
      <point x="763" y="551"/>
      <point x="763" y="355" type="curve" smooth="yes"/>
      <point x="763" y="160"/>
      <point x="627" y="36"/>
    </contour>
  </outline>
</glyph>
<glyph name="R" format="1">
  <advance width="763"/>
  <unicode hex="0052"/>
  <outline>
    <contour>
      <point x="403" y="326" type="line"/>
      <point x="467" y="341" type="line"/>
      <point x="644" y="69" type="line" smooth="yes"/>
      <point x="658" y="48"/>
      <point x="687" y="40"/>
      <point x="722" y="40" type="curve" smooth="yes"/>
      <point x="736" y="40" type="line"/>
      <point x="736" y="0" type="line"/>
      <point x="605" y="0" type="line"/>
    </contour>
    <contour>
      <point x="57" y="0" type="line"/>
      <point x="57" y="40" type="line"/>
      <point x="70" y="40" type="line" smooth="yes"/>
      <point x="118" y="40"/>
      <point x="154" y="46"/>
      <point x="154" y="74" type="curve" smooth="yes"/>
      <point x="154" y="636" type="line" smooth="yes"/>
      <point x="154" y="664"/>
      <point x="118" y="671"/>
      <point x="70" y="671" type="curve" smooth="yes"/>
      <point x="57" y="671" type="line"/>
      <point x="57" y="710" type="line"/>
      <point x="386" y="710" type="line" smooth="yes"/>
      <point x="553" y="710"/>
      <point x="652" y="634"/>
      <point x="652" y="512" type="curve" smooth="yes"/>
      <point x="652" y="413"/>
      <point x="574" y="338"/>
      <point x="458" y="317" type="curve" smooth="yes"/>
      <point x="432" y="312"/>
      <point x="407" y="310"/>
      <point x="378" y="310" type="curve" smooth="yes"/>
      <point x="208" y="310" type="line"/>
      <point x="208" y="354" type="line"/>
      <point x="378" y="354" type="line" smooth="yes"/>
      <point x="511" y="354"/>
      <point x="577" y="420"/>
      <point x="577" y="512" type="curve" smooth="yes"/>
      <point x="577" y="609"/>
      <point x="502" y="665"/>
      <point x="384" y="665" type="curve" smooth="yes"/>
      <point x="224" y="665" type="line"/>
      <point x="224" y="50" type="line" smooth="yes"/>
      <point x="224" y="43"/>
      <point x="265" y="40"/>
      <point x="299" y="40" type="curve" smooth="yes"/>
      <point x="310" y="40" type="line"/>
      <point x="310" y="0" type="line"/>
    </contour>
    <contour>
      <point x="423" y="741" type="move" name="top"/>
    </contour>
    <contour>
      <point x="423" y="0" type="move" name="bottom"/>
    </contour>
  </outline>
</glyph>
<glyph name="S" format="1">
  <advance width="711"/>
  <unicode hex="0053"/>
  <outline>
    <contour>
      <point x="405" y="36" type="curve" smooth="yes"/>
      <point x="269" y="36"/>
      <point x="156" y="105"/>
      <point x="120" y="217" type="curve"/>
      <point x="67" y="217" type="line"/>
      <point x="67" y="0" type="line"/>
      <point x="113" y="0" type="line"/>
      <point x="126" y="164" type="line"/>
      <point x="120" y="171"/>
      <point x="108" y="171"/>
      <point x="91" y="177" type="curve"/>
      <point x="138" y="51"/>
      <point x="258" y="-10"/>
      <point x="406" y="-10" type="curve" smooth="yes"/>
      <point x="545" y="-10"/>
      <point x="649" y="62"/>
      <point x="649" y="194" type="curve" smooth="yes"/>
      <point x="649" y="326"/>
      <point x="533" y="367"/>
      <point x="388" y="399" type="curve" smooth="yes"/>
      <point x="255" y="427"/>
      <point x="166" y="449"/>
      <point x="166" y="552" type="curve" smooth="yes"/>
      <point x="166" y="630"/>
      <point x="229" y="675"/>
      <point x="331" y="675" type="curve" smooth="yes"/>
      <point x="439" y="675"/>
      <point x="523" y="619"/>
      <point x="557" y="528" type="curve"/>
      <point x="607" y="528" type="line"/>
      <point x="607" y="710" type="line"/>
      <point x="563" y="710" type="line"/>
      <point x="549" y="571" type="line"/>
      <point x="564" y="565"/>
      <point x="576" y="560"/>
      <point x="581" y="565" type="curve"/>
      <point x="543" y="670"/>
      <point x="446" y="720"/>
      <point x="327" y="720" type="curve" smooth="yes"/>
      <point x="199" y="720"/>
      <point x="101" y="655"/>
      <point x="101" y="543" type="curve" smooth="yes"/>
      <point x="101" y="408"/>
      <point x="215" y="368"/>
      <point x="357" y="338" type="curve" smooth="yes"/>
      <point x="487" y="310"/>
      <point x="581" y="289"/>
      <point x="581" y="179" type="curve" smooth="yes"/>
      <point x="581" y="82"/>
      <point x="511" y="36"/>
    </contour>
    <contour>
      <point x="395" y="741" type="move" name="top"/>
    </contour>
    <contour>
      <point x="398" y="0" type="move" name="bottom"/>
    </contour>
  </outline>
</glyph>
<glyph name="T" format="1">
  <advance width="750"/>
  <unicode hex="0054"/>
  <outline>
    <contour>
      <point x="341" y="74" type="line" smooth="yes"/>
      <point x="341" y="46"/>
      <point x="301" y="40"/>
      <point x="247" y="40" type="curve" smooth="yes"/>
      <point x="228" y="40" type="line"/>
      <point x="228" y="0" type="line"/>
      <point x="523" y="0" type="line"/>
      <point x="523" y="40" type="line"/>
      <point x="504" y="40" type="line" smooth="yes"/>
      <point x="450" y="40"/>
      <point x="410" y="46"/>
      <point x="410" y="74" type="curve" smooth="yes"/>
      <point x="410" y="666" type="line"/>
      <point x="508" y="666" type="line" smooth="yes"/>
      <point x="624" y="666"/>
      <point x="650" y="659"/>
      <point x="654" y="622" type="curve" smooth="yes"/>
      <point x="664" y="533" type="line"/>
      <point x="707" y="533" type="line"/>
      <point x="707" y="710" type="line"/>
      <point x="43" y="710" type="line"/>
      <point x="43" y="533" type="line"/>
      <point x="87" y="533" type="line"/>
      <point x="97" y="622" type="line" smooth="yes"/>
      <point x="101" y="660"/>
      <point x="127" y="666"/>
      <point x="244" y="666" type="curve" smooth="yes"/>
      <point x="341" y="666" type="line"/>
    </contour>
    <contour>
      <point x="375" y="741" type="move" name="top"/>
    </contour>
    <contour>
      <point x="377" y="0" type="move" name="bottom"/>
    </contour>
  </outline>
</glyph>
<glyph name="U" format="1">
  <advance width="902"/>
  <unicode hex="0055"/>
  <outline>
    <contour>
      <point x="222" y="259" type="curve" smooth="yes"/>
      <point x="222" y="661" type="line" smooth="yes"/>
      <point x="222" y="668"/>
      <point x="271" y="671"/>
      <point x="309" y="671" type="curve" smooth="yes"/>
      <point x="320" y="671" type="line"/>
      <point x="320" y="710" type="line"/>
      <point x="56" y="710" type="line"/>
      <point x="56" y="671" type="line"/>
      <point x="68" y="671" type="line" smooth="yes"/>
      <point x="116" y="671"/>
      <point x="153" y="664"/>
      <point x="153" y="636" type="curve" smooth="yes"/>
      <point x="153" y="259" type="line" smooth="yes"/>
      <point x="153" y="68"/>
      <point x="283" y="-10"/>
      <point x="456" y="-10" type="curve" smooth="yes"/>
      <point x="623" y="-10"/>
      <point x="750" y="65"/>
      <point x="750" y="254" type="curve" smooth="yes"/>
      <point x="750" y="627" type="line" smooth="yes"/>
      <point x="750" y="660"/>
      <point x="784" y="671"/>
      <point x="834" y="671" type="curve" smooth="yes"/>
      <point x="847" y="671" type="line"/>
      <point x="847" y="710" type="line"/>
      <point x="600" y="710" type="line"/>
      <point x="600" y="671" type="line"/>
      <point x="611" y="671" type="line" smooth="yes"/>
      <point x="648" y="671"/>
      <point x="697" y="663"/>
      <point x="697" y="649" type="curve" smooth="yes"/>
      <point x="697" y="255" type="line" smooth="yes"/>
      <point x="697" y="95"/>
      <point x="599" y="42"/>
      <point x="464" y="42" type="curve" smooth="yes"/>
      <point x="328" y="42"/>
      <point x="222" y="96"/>
    </contour>
    <contour>
      <point x="453" y="741" type="move" name="top"/>
    </contour>
    <contour>
      <point x="517" y="0" type="move" name="right"/>
    </contour>
    <contour>
      <point x="454" y="0" type="move" name="bottom"/>
    </contour>
  </outline>
</glyph>
<glyph name="V" format="1">
  <advance width="789"/>
  <unicode hex="0056"/>
  <outline>
    <contour>
      <point x="415" y="24" type="line"/>
      <point x="153" y="661" type="line"/>
      <point x="153" y="668"/>
      <point x="198" y="671"/>
      <point x="237" y="671" type="curve" smooth="yes"/>
      <point x="257" y="671" type="line"/>
      <point x="257" y="710" type="line"/>
      <point x="11" y="710" type="line"/>
      <point x="11" y="671" type="line"/>
      <point x="17" y="671" type="line"/>
      <point x="55" y="671"/>
      <point x="77" y="666"/>
      <point x="89" y="639" type="curve" smooth="yes"/>
      <point x="354" y="0" type="line"/>
      <point x="439" y="0" type="line"/>
      <point x="697" y="628" type="line" smooth="yes"/>
      <point x="711" y="662"/>
      <point x="732" y="671"/>
      <point x="772" y="671" type="curve"/>
      <point x="778" y="671" type="line"/>
      <point x="778" y="710" type="line"/>
      <point x="551" y="710" type="line"/>
      <point x="551" y="671" type="line"/>
      <point x="568" y="671" type="line" smooth="yes"/>
      <point x="605" y="671"/>
      <point x="652" y="664"/>
      <point x="652" y="653" type="curve"/>
      <point x="398" y="29" type="line"/>
    </contour>
  </outline>
</glyph>
<glyph name="W" format="1">
  <advance width="1115"/>
  <unicode hex="0057"/>
  <outline>
    <contour>
      <point x="11" y="710" type="line"/>
      <point x="11" y="671" type="line"/>
      <point x="17" y="671" type="line" smooth="yes"/>
      <point x="57" y="671"/>
      <point x="82" y="667"/>
      <point x="92" y="634" type="curve" smooth="yes"/>
      <point x="291" y="0" type="line"/>
      <point x="368" y="0" type="line"/>
      <point x="568" y="662" type="line"/>
      <point x="547" y="662" type="line"/>
      <point x="765" y="0" type="line"/>
      <point x="843" y="0" type="line"/>
      <point x="1024" y="626" type="line" smooth="yes"/>
      <point x="1034" y="660"/>
      <point x="1061" y="671"/>
      <point x="1098" y="671" type="curve" smooth="yes"/>
      <point x="1104" y="671" type="line"/>
      <point x="1104" y="710" type="line"/>
      <point x="878" y="710" type="line"/>
      <point x="878" y="671" type="line"/>
      <point x="896" y="671" type="line" smooth="yes"/>
      <point x="933" y="671"/>
      <point x="978" y="664"/>
      <point x="978" y="653" type="curve"/>
      <point x="802" y="37" type="line"/>
      <point x="822" y="37" type="line"/>
      <point x="602" y="710" type="line"/>
      <point x="530" y="710" type="line"/>
      <point x="328" y="37" type="line"/>
      <point x="349" y="37" type="line"/>
      <point x="155" y="661" type="line"/>
      <point x="155" y="668"/>
      <point x="201" y="671"/>
      <point x="237" y="671" type="curve" smooth="yes"/>
      <point x="257" y="671" type="line"/>
      <point x="257" y="710" type="line"/>
    </contour>
    <contour>
      <point x="571" y="741" type="move" name="top"/>
    </contour>
  </outline>
</glyph>
<glyph name="X" format="1">
  <advance width="804"/>
  <unicode hex="0058"/>
  <outline>
    <contour>
      <point x="44" y="671" type="line"/>
      <point x="52" y="671" type="line" smooth="yes"/>
      <point x="92" y="671"/>
      <point x="116" y="666"/>
      <point x="138" y="639" type="curve" smooth="yes"/>
      <point x="372" y="345" type="line"/>
      <point x="379" y="341" type="line"/>
      <point x="618" y="50" type="line"/>
      <point x="618" y="43"/>
      <point x="572" y="40"/>
      <point x="537" y="40" type="curve" smooth="yes"/>
      <point x="517" y="40" type="line"/>
      <point x="517" y="0" type="line"/>
      <point x="780" y="0" type="line"/>
      <point x="780" y="40" type="line"/>
      <point x="768" y="40" type="line" smooth="yes"/>
      <point x="728" y="40"/>
      <point x="703" y="47"/>
      <point x="681" y="74" type="curve" smooth="yes"/>
      <point x="430" y="384" type="line"/>
      <point x="423" y="387" type="line"/>
      <point x="203" y="661" type="line"/>
      <point x="203" y="668"/>
      <point x="246" y="671"/>
      <point x="282" y="671" type="curve" smooth="yes"/>
      <point x="301" y="671" type="line"/>
      <point x="301" y="710" type="line"/>
      <point x="44" y="710" type="line"/>
    </contour>
    <contour>
      <point x="24" y="0" type="line"/>
      <point x="272" y="0" type="line"/>
      <point x="272" y="40" type="line"/>
      <point x="255" y="40" type="line" smooth="yes"/>
      <point x="217" y="40"/>
      <point x="171" y="47"/>
      <point x="171" y="58" type="curve"/>
      <point x="405" y="340" type="line"/>
      <point x="376" y="379" type="line"/>
      <point x="131" y="86" type="line" smooth="yes"/>
      <point x="102" y="52"/>
      <point x="75" y="40"/>
      <point x="35" y="40" type="curve" smooth="yes"/>
      <point x="24" y="40" type="line"/>
    </contour>
    <contour>
      <point x="430" y="359" type="line"/>
      <point x="651" y="626" type="line" smooth="yes"/>
      <point x="680" y="662"/>
      <point x="708" y="671"/>
      <point x="749" y="671" type="curve" smooth="yes"/>
      <point x="755" y="671" type="line"/>
      <point x="755" y="710" type="line"/>
      <point x="513" y="710" type="line"/>
      <point x="513" y="671" type="line"/>
      <point x="530" y="671" type="line" smooth="yes"/>
      <point x="567" y="671"/>
      <point x="611" y="664"/>
      <point x="611" y="653" type="curve"/>
      <point x="398" y="391" type="line"/>
    </contour>
  </outline>
</glyph>
<glyph name="Y" format="1">
  <advance width="771"/>
  <unicode hex="0059"/>
  <outline>
    <contour>
      <point x="353" y="310" type="line"/>
      <point x="353" y="74" type="line" smooth="yes"/>
      <point x="353" y="46"/>
      <point x="317" y="40"/>
      <point x="268" y="40" type="curve" smooth="yes"/>
      <point x="250" y="40" type="line"/>
      <point x="250" y="0" type="line"/>
      <point x="525" y="0" type="line"/>
      <point x="525" y="40" type="line"/>
      <point x="506" y="40" type="line" smooth="yes"/>
      <point x="459" y="40"/>
      <point x="423" y="46"/>
      <point x="423" y="74" type="curve" smooth="yes"/>
      <point x="423" y="310" type="line"/>
      <point x="411" y="277" type="line"/>
      <point x="655" y="629" type="line" smooth="yes"/>
      <point x="679" y="664"/>
      <point x="712" y="671"/>
      <point x="749" y="671" type="curve" smooth="yes"/>
      <point x="755" y="671" type="line"/>
      <point x="755" y="710" type="line"/>
      <point x="517" y="710" type="line"/>
      <point x="517" y="671" type="line"/>
      <point x="534" y="671" type="line" smooth="yes"/>
      <point x="571" y="671"/>
      <point x="615" y="664"/>
      <point x="615" y="653" type="curve"/>
      <point x="386" y="320" type="line"/>
      <point x="412" y="320" type="line"/>
      <point x="174" y="661" type="line"/>
      <point x="174" y="668"/>
      <point x="214" y="671"/>
      <point x="250" y="671" type="curve" smooth="yes"/>
      <point x="269" y="671" type="line"/>
      <point x="269" y="710" type="line"/>
      <point x="17" y="710" type="line"/>
      <point x="17" y="671" type="line"/>
      <point x="23" y="671" type="line" smooth="yes"/>
      <point x="60" y="671"/>
      <point x="88" y="669"/>
      <point x="105" y="645" type="curve" smooth="yes"/>
      <point x="363" y="279" type="line"/>
    </contour>
    <contour>
      <point x="387" y="741" type="move" name="top"/>
    </contour>
    <contour>
      <point x="387" y="0" type="move" name="bottom"/>
    </contour>
  </outline>
</glyph>
<glyph name="Z" format="1">
  <advance width="698"/>
  <unicode hex="005A"/>
  <outline>
    <contour>
      <point x="88" y="46" type="line"/>
      <point x="105" y="17" type="line"/>
      <point x="633" y="661" type="line"/>
      <point x="633" y="710" type="line"/>
      <point x="74" y="710" type="line"/>
      <point x="74" y="538" type="line"/>
      <point x="117" y="538" type="line"/>
      <point x="127" y="624" type="line" smooth="yes"/>
      <point x="131" y="658"/>
      <point x="167" y="665"/>
      <point x="273" y="665" type="curve" smooth="yes"/>
      <point x="587" y="665" type="line"/>
      <point x="570" y="685" type="line"/>
      <point x="51" y="53" type="line"/>
      <point x="51" y="0" type="line"/>
      <point x="647" y="0" type="line"/>
      <point x="647" y="192" type="line"/>
      <point x="602" y="192" type="line"/>
      <point x="592" y="87" type="line" smooth="yes"/>
      <point x="589" y="52"/>
      <point x="546" y="46"/>
      <point x="446" y="46" type="curve" smooth="yes"/>
    </contour>
    <contour>
      <point x="365" y="741" type="move" name="top"/>
    </contour>
    <contour>
      <point x="365" y="0" type="move" name="bottom"/>
    </contour>
  </outline>
</glyph>
<glyph name="bracketleft" format="1">
  <advance width="320"/>
  <unicode hex="005B"/>
  <outline>
    <contour>
      <point x="60" y="750" type="line"/>
      <point x="60" y="-130" type="line"/>
      <point x="123" y="-130" type="line"/>
      <point x="123" y="750" type="line"/>
    </contour>
    <contour>
      <point x="292" y="750" type="line"/>
      <point x="99" y="750" type="line"/>
      <point x="99" y="709" type="line"/>
      <point x="292" y="709" type="line"/>
    </contour>
    <contour>
      <point x="292" y="-89" type="line"/>
      <point x="99" y="-89" type="line"/>
      <point x="99" y="-130" type="line"/>
      <point x="292" y="-130" type="line"/>
    </contour>
  </outline>
</glyph>
<glyph name="asciicircum" format="1">
  <advance width="586"/>
  <unicode hex="005E"/>
  <outline>
    <contour>
      <point x="127" y="364" type="line"/>
      <point x="298" y="685" type="line"/>
      <point x="302" y="710" type="line"/>
      <point x="258" y="710" type="line"/>
      <point x="70" y="364" type="line"/>
    </contour>
    <contour>
      <point x="457" y="364" type="line"/>
      <point x="516" y="364" type="line"/>
      <point x="326" y="710" type="line"/>
      <point x="283" y="710" type="line"/>
      <point x="285" y="686" type="line"/>
    </contour>
  </outline>
</glyph>
<glyph name="underscore" format="1">
  <advance width="560"/>
  <unicode hex="005F"/>
  <outline>
    <contour>
      <point x="-6" y="-102" type="line"/>
      <point x="-6" y="-149" type="line"/>
      <point x="565" y="-149" type="line"/>
      <point x="565" y="-102" type="line"/>
    </contour>
  </outline>
</glyph>
<glyph name="a" format="1">
  <advance width="605"/>
  <unicode hex="0061"/>
  <outline>
    <contour>
      <point x="443" y="311" type="line"/>
      <point x="172" y="292"/>
      <point x="62" y="237"/>
      <point x="62" y="124" type="curve" smooth="yes"/>
      <point x="62" y="39"/>
      <point x="125" y="-10"/>
      <point x="230" y="-10" type="curve" smooth="yes"/>
      <point x="323" y="-10"/>
      <point x="398" y="37"/>
      <point x="442" y="109" type="curve"/>
      <point x="442" y="169" type="line"/>
      <point x="406" y="93"/>
      <point x="332" y="35"/>
      <point x="241" y="35" type="curve" smooth="yes"/>
      <point x="173" y="35"/>
      <point x="133" y="69"/>
      <point x="133" y="125" type="curve" smooth="yes"/>
      <point x="133" y="212"/>
      <point x="211" y="250"/>
      <point x="443" y="269" type="curve"/>
    </contour>
    <contour>
      <point x="432" y="0" type="line"/>
      <point x="577" y="0" type="line"/>
      <point x="577" y="37" type="line"/>
      <point x="575" y="37" type="line"/>
      <point x="528" y="37"/>
      <point x="494" y="44"/>
      <point x="494" y="71" type="curve" smooth="yes"/>
      <point x="494" y="365" type="line" smooth="yes"/>
      <point x="494" y="481"/>
      <point x="397" y="518"/>
      <point x="296" y="518" type="curve" smooth="yes"/>
      <point x="200" y="518"/>
      <point x="129" y="483"/>
      <point x="95" y="460" type="curve"/>
      <point x="95" y="369" type="line"/>
      <point x="166" y="369" type="line"/>
      <point x="166" y="462" type="line"/>
      <point x="139" y="456"/>
      <point x="124" y="433"/>
      <point x="128" y="410" type="curve"/>
      <point x="159" y="444"/>
      <point x="213" y="474"/>
      <point x="293" y="474" type="curve" smooth="yes"/>
      <point x="375" y="474"/>
      <point x="427" y="445"/>
      <point x="427" y="357" type="curve" smooth="yes"/>
      <point x="427" y="112" type="line"/>
      <point x="432" y="111" type="line"/>
    </contour>
    <contour>
      <point x="281" y="553" type="move" name="top"/>
    </contour>
    <contour>
      <point x="461" y="-10" type="move" name="right"/>
    </contour>
    <contour>
      <point x="313" y="0" type="move" name="bottom"/>
    </contour>
  </outline>
</glyph>
<glyph name="b" format="1">
  <advance width="695"/>
  <unicode hex="0062"/>
  <outline>
    <contour>
      <point x="647" y="257" type="curve" smooth="yes"/>
      <point x="647" y="414"/>
      <point x="553" y="518"/>
      <point x="403" y="518" type="curve" smooth="yes"/>
      <point x="301" y="518"/>
      <point x="221" y="468"/>
      <point x="167" y="386" type="curve"/>
      <point x="167" y="319" type="line"/>
      <point x="224" y="420"/>
      <point x="301" y="473"/>
      <point x="393" y="473" type="curve" smooth="yes"/>
      <point x="508" y="473"/>
      <point x="575" y="390"/>
      <point x="575" y="257" type="curve" smooth="yes"/>
      <point x="575" y="124"/>
      <point x="506" y="35"/>
      <point x="383" y="35" type="curve" smooth="yes"/>
      <point x="290" y="35"/>
      <point x="218" y="86"/>
      <point x="167" y="184" type="curve"/>
      <point x="167" y="109" type="line"/>
      <point x="214" y="35"/>
      <point x="290" y="-10"/>
      <point x="386" y="-10" type="curve" smooth="yes"/>
      <point x="543" y="-10"/>
      <point x="647" y="99"/>
    </contour>
    <contour>
      <point x="111" y="656" type="curve" smooth="yes"/>
      <point x="111" y="-3" type="line"/>
      <point x="156" y="-3" type="line"/>
      <point x="174" y="120" type="line"/>
      <point x="179" y="127" type="line"/>
      <point x="179" y="735" type="line"/>
      <point x="27" y="735" type="line"/>
      <point x="27" y="699" type="line"/>
      <point x="40" y="697" type="line" smooth="yes"/>
      <point x="89" y="689"/>
      <point x="111" y="684"/>
    </contour>
  </outline>
</glyph>
<glyph name="c" format="1">
  <advance width="605"/>
  <unicode hex="0063"/>
  <outline>
    <contour>
      <point x="331" y="35" type="curve" smooth="yes"/>
      <point x="209" y="35"/>
      <point x="120" y="120"/>
      <point x="120" y="254" type="curve" smooth="yes"/>
      <point x="120" y="384"/>
      <point x="201" y="474"/>
      <point x="343" y="474" type="curve" smooth="yes"/>
      <point x="422" y="474"/>
      <point x="483" y="443"/>
      <point x="507" y="406" type="curve"/>
      <point x="517" y="426"/>
      <point x="503" y="445"/>
      <point x="474" y="452" type="curve"/>
      <point x="474" y="354" type="line"/>
      <point x="545" y="354" type="line"/>
      <point x="545" y="455" type="line"/>
      <point x="521" y="475"/>
      <point x="454" y="518"/>
      <point x="343" y="518" type="curve" smooth="yes"/>
      <point x="164" y="518"/>
      <point x="49" y="410"/>
      <point x="49" y="254" type="curve" smooth="yes"/>
      <point x="49" y="95"/>
      <point x="160" y="-10"/>
      <point x="329" y="-10" type="curve" smooth="yes"/>
      <point x="447" y="-10"/>
      <point x="516" y="50"/>
      <point x="561" y="117" type="curve"/>
      <point x="522" y="147" type="line"/>
      <point x="490" y="97"/>
      <point x="435" y="35"/>
    </contour>
    <contour>
      <point x="328" y="551" type="move" name="top"/>
    </contour>
    <contour>
      <point x="340" y="0" type="move" name="bottom"/>
    </contour>
  </outline>
</glyph>
<glyph name="d" format="1">
  <advance width="701"/>
  <unicode hex="0064"/>
  <outline>
    <contour>
      <point x="521" y="0" type="line"/>
      <point x="667" y="0" type="line"/>
      <point x="667" y="37" type="line"/>
      <point x="666" y="37" type="line"/>
      <point x="619" y="37"/>
      <point x="584" y="44"/>
      <point x="584" y="71" type="curve" smooth="yes"/>
      <point x="584" y="735" type="line"/>
      <point x="432" y="735" type="line"/>
      <point x="432" y="699" type="line"/>
      <point x="445" y="697" type="line" smooth="yes"/>
      <point x="493" y="689"/>
      <point x="517" y="684"/>
      <point x="517" y="656" type="curve" smooth="yes"/>
      <point x="517" y="124" type="line"/>
      <point x="521" y="122" type="line"/>
    </contour>
    <contour>
      <point x="306" y="-10" type="curve" smooth="yes"/>
      <point x="405" y="-10"/>
      <point x="474" y="38"/>
      <point x="528" y="118" type="curve"/>
      <point x="528" y="187" type="line"/>
      <point x="472" y="87"/>
      <point x="403" y="35"/>
      <point x="312" y="35" type="curve" smooth="yes"/>
      <point x="192" y="35"/>
      <point x="120" y="118"/>
      <point x="120" y="250" type="curve" smooth="yes"/>
      <point x="120" y="384"/>
      <point x="197" y="473"/>
      <point x="317" y="473" type="curve" smooth="yes"/>
      <point x="411" y="473"/>
      <point x="485" y="421"/>
      <point x="528" y="328" type="curve"/>
      <point x="528" y="401" type="line"/>
      <point x="486" y="471"/>
      <point x="415" y="518"/>
      <point x="314" y="518" type="curve" smooth="yes"/>
      <point x="156" y="518"/>
      <point x="49" y="409"/>
      <point x="49" y="250" type="curve" smooth="yes"/>
      <point x="49" y="94"/>
      <point x="149" y="-10"/>
    </contour>
    <contour>
      <point x="670" y="735" type="move" name="right"/>
    </contour>
    <contour>
      <point x="324" y="0" type="move" name="bottom"/>
    </contour>
  </outline>
</glyph>
<glyph name="e" format="1">
  <advance width="601"/>
  <unicode hex="0065"/>
  <outline>
    <contour>
      <point x="326" y="-10" type="curve" smooth="yes"/>
      <point x="431" y="-10"/>
      <point x="505" y="38"/>
      <point x="551" y="105" type="curve"/>
      <point x="512" y="136" type="line"/>
      <point x="477" y="85"/>
      <point x="425" y="35"/>
      <point x="327" y="35" type="curve" smooth="yes"/>
      <point x="212" y="35"/>
      <point x="119" y="107"/>
      <point x="119" y="250" type="curve" smooth="yes"/>
      <point x="119" y="393"/>
      <point x="195" y="474"/>
      <point x="311" y="474" type="curve" smooth="yes"/>
      <point x="424" y="474"/>
      <point x="487" y="391"/>
      <point x="487" y="266" type="curve"/>
      <point x="510" y="288" type="line"/>
      <point x="98" y="288" type="line"/>
      <point x="98" y="244" type="line"/>
      <point x="557" y="244" type="line"/>
      <point x="556" y="414"/>
      <point x="470" y="518"/>
      <point x="310" y="518" type="curve" smooth="yes"/>
      <point x="157" y="518"/>
      <point x="49" y="411"/>
      <point x="49" y="252" type="curve" smooth="yes"/>
      <point x="49" y="85"/>
      <point x="167" y="-10"/>
    </contour>
    <contour>
      <point x="310" y="551" type="move" name="top"/>
    </contour>
    <contour>
      <point x="481" y="1" type="move" name="right"/>
    </contour>
    <contour>
      <point x="330" y="0" type="move" name="bottom"/>
    </contour>
  </outline>
</glyph>
<glyph name="f" format="1">
  <advance width="421"/>
  <unicode hex="0066"/>
  <outline>
    <contour>
      <point x="46" y="508" type="line"/>
      <point x="46" y="466" type="line"/>
      <point x="396" y="466" type="line"/>
      <point x="396" y="508" type="line"/>
    </contour>
    <contour>
      <point x="430" y="742" type="line"/>
      <point x="412" y="747"/>
      <point x="379" y="752"/>
      <point x="346" y="752" type="curve" smooth="yes"/>
      <point x="239" y="752"/>
      <point x="153" y="706"/>
      <point x="153" y="584" type="curve" smooth="yes"/>
      <point x="153" y="71" type="line" smooth="yes"/>
      <point x="153" y="44"/>
      <point x="120" y="37"/>
      <point x="65" y="37" type="curve" smooth="yes"/>
      <point x="52" y="37" type="line"/>
      <point x="52" y="0" type="line"/>
      <point x="339" y="0" type="line"/>
      <point x="339" y="37" type="line"/>
      <point x="323" y="37" type="line" smooth="yes"/>
      <point x="265" y="37"/>
      <point x="221" y="40"/>
      <point x="221" y="47" type="curve" smooth="yes"/>
      <point x="221" y="585" type="line" smooth="yes"/>
      <point x="221" y="677"/>
      <point x="270" y="708"/>
      <point x="344" y="708" type="curve" smooth="yes"/>
      <point x="378" y="708"/>
      <point x="408" y="700"/>
      <point x="430" y="692" type="curve"/>
    </contour>
  </outline>
</glyph>
<glyph name="g" format="1">
  <advance width="642"/>
  <unicode hex="0067"/>
  <outline>
    <contour>
      <point x="302" y="199" type="curve" smooth="yes"/>
      <point x="212" y="199"/>
      <point x="150" y="248"/>
      <point x="150" y="335" type="curve" smooth="yes"/>
      <point x="150" y="422"/>
      <point x="213" y="474"/>
      <point x="302" y="474" type="curve" smooth="yes"/>
      <point x="391" y="474"/>
      <point x="454" y="422"/>
      <point x="454" y="335" type="curve" smooth="yes"/>
      <point x="454" y="248"/>
      <point x="392" y="199"/>
    </contour>
    <contour>
      <point x="302" y="155" type="curve" smooth="yes"/>
      <point x="426" y="155"/>
      <point x="522" y="225"/>
      <point x="522" y="335" type="curve" smooth="yes"/>
      <point x="522" y="444"/>
      <point x="425" y="518"/>
      <point x="302" y="518" type="curve" smooth="yes"/>
      <point x="178" y="518"/>
      <point x="82" y="444"/>
      <point x="82" y="335" type="curve" smooth="yes"/>
      <point x="82" y="225"/>
      <point x="177" y="155"/>
    </contour>
    <contour>
      <point x="458" y="421" type="line"/>
      <point x="492" y="462"/>
      <point x="533" y="466"/>
      <point x="615" y="460" type="curve"/>
      <point x="615" y="526" type="line"/>
      <point x="538" y="534"/>
      <point x="479" y="500"/>
      <point x="441" y="435" type="curve"/>
    </contour>
    <contour>
      <point x="323" y="-236" type="line" smooth="yes"/>
      <point x="476" y="-236"/>
      <point x="606" y="-178"/>
      <point x="606" y="-67" type="curve" smooth="yes"/>
      <point x="606" y="14"/>
      <point x="545" y="52"/>
      <point x="432" y="52" type="curve" smooth="yes"/>
      <point x="213" y="52" type="line" smooth="yes"/>
      <point x="160" y="52"/>
      <point x="132" y="66"/>
      <point x="132" y="99" type="curve" smooth="yes"/>
      <point x="132" y="131"/>
      <point x="165" y="157"/>
      <point x="225" y="177" type="curve"/>
      <point x="197" y="201" type="line"/>
      <point x="114" y="169"/>
      <point x="68" y="129"/>
      <point x="68" y="81" type="curve" smooth="yes"/>
      <point x="68" y="42"/>
      <point x="96" y="7"/>
      <point x="153" y="-9" type="curve"/>
      <point x="155" y="-14" type="line"/>
      <point x="428" y="-14" type="line" smooth="yes"/>
      <point x="512" y="-14"/>
      <point x="541" y="-34"/>
      <point x="541" y="-79" type="curve" smooth="yes"/>
      <point x="541" y="-147"/>
      <point x="452" y="-191"/>
      <point x="323" y="-191" type="curve" smooth="yes"/>
      <point x="283" y="-191" type="line" smooth="yes"/>
      <point x="151" y="-191"/>
      <point x="92" y="-161"/>
      <point x="92" y="-105" type="curve" smooth="yes"/>
      <point x="92" y="-64"/>
      <point x="124" y="-33"/>
      <point x="195" y="-5" type="curve"/>
      <point x="170" y="18" type="line"/>
      <point x="74" y="-19"/>
      <point x="28" y="-58"/>
      <point x="28" y="-113" type="curve" smooth="yes"/>
      <point x="28" y="-204"/>
      <point x="132" y="-236"/>
      <point x="283" y="-236" type="curve" smooth="yes"/>
    </contour>
    <contour>
      <point x="304" y="545" type="move" name="top"/>
    </contour>
  </outline>
</glyph>
<glyph name="h" format="1">
  <advance width="702"/>
  <unicode hex="0068"/>
  <outline>
    <contour>
      <point x="198" y="735" type="line"/>
      <point x="46" y="735" type="line"/>
      <point x="46" y="699" type="line"/>
      <point x="59" y="697" type="line" smooth="yes"/>
      <point x="107" y="689"/>
      <point x="130" y="684"/>
      <point x="130" y="656" type="curve" smooth="yes"/>
      <point x="130" y="71" type="line" smooth="yes"/>
      <point x="130" y="44"/>
      <point x="96" y="37"/>
      <point x="49" y="37" type="curve" smooth="yes"/>
      <point x="46" y="37" type="line"/>
      <point x="46" y="0" type="line"/>
      <point x="271" y="0" type="line"/>
      <point x="271" y="37" type="line"/>
      <point x="267" y="37" type="line" smooth="yes"/>
      <point x="240" y="37"/>
      <point x="198" y="40"/>
      <point x="198" y="47" type="curve"/>
    </contour>
    <contour>
      <point x="666" y="0" type="line"/>
      <point x="666" y="37" type="line"/>
      <point x="664" y="37" type="line" smooth="yes"/>
      <point x="617" y="37"/>
      <point x="583" y="44"/>
      <point x="583" y="71" type="curve" smooth="yes"/>
      <point x="583" y="347" type="line" smooth="yes"/>
      <point x="583" y="464"/>
      <point x="513" y="518"/>
      <point x="402" y="518" type="curve" smooth="yes"/>
      <point x="316" y="518"/>
      <point x="244" y="479"/>
      <point x="187" y="408" type="curve"/>
      <point x="187" y="351" type="line"/>
      <point x="238" y="423"/>
      <point x="310" y="469"/>
      <point x="389" y="469" type="curve" smooth="yes"/>
      <point x="481" y="469"/>
      <point x="515" y="425"/>
      <point x="515" y="335" type="curve" smooth="yes"/>
      <point x="515" y="47" type="line" smooth="yes"/>
      <point x="515" y="40"/>
      <point x="472" y="37"/>
      <point x="445" y="37" type="curve" smooth="yes"/>
      <point x="443" y="37" type="line"/>
      <point x="443" y="0" type="line"/>
    </contour>
    <contour>
      <point x="365" y="755" type="move" name="top"/>
    </contour>
    <contour>
      <point x="352" y="0" type="move" name="bottom"/>
    </contour>
  </outline>
</glyph>
<glyph name="i" format="1">
  <advance width="320"/>
  <unicode hex="0069"/>
  <outline>
    <contour>
      <point x="155" y="636" type="curve" smooth="yes"/>
      <point x="186" y="636"/>
      <point x="210" y="655"/>
      <point x="210" y="688" type="curve" smooth="yes"/>
      <point x="210" y="720"/>
      <point x="186" y="738"/>
      <point x="155" y="738" type="curve" smooth="yes"/>
      <point x="124" y="738"/>
      <point x="100" y="720"/>
      <point x="100" y="688" type="curve" smooth="yes"/>
      <point x="100" y="655"/>
      <point x="124" y="636"/>
    </contour>
    <contour>
      <point x="198" y="508" type="line"/>
      <point x="46" y="508" type="line"/>
      <point x="46" y="472" type="line"/>
      <point x="59" y="470" type="line" smooth="yes"/>
      <point x="108" y="463"/>
      <point x="130" y="457"/>
      <point x="130" y="430" type="curve" smooth="yes"/>
      <point x="130" y="71" type="line" smooth="yes"/>
      <point x="130" y="44"/>
      <point x="96" y="37"/>
      <point x="49" y="37" type="curve" smooth="yes"/>
      <point x="47" y="37" type="line"/>
      <point x="47" y="0" type="line"/>
      <point x="281" y="0" type="line"/>
      <point x="281" y="37" type="line"/>
      <point x="279" y="37" type="line" smooth="yes"/>
      <point x="232" y="37"/>
      <point x="198" y="44"/>
      <point x="198" y="71" type="curve" smooth="yes"/>
    </contour>
    <contour>
      <point x="168" y="551" type="move" name="top"/>
    </contour>
    <contour>
      <point x="219" y="-10" type="move" name="right"/>
    </contour>
    <contour>
      <point x="167" y="-10" type="move" name="bottom"/>
    </contour>
  </outline>
</glyph>
<glyph name="j" format="1">
  <advance width="298"/>
  <unicode hex="006A"/>
  <outline>
    <contour>
      <point x="123" y="-72" type="line" smooth="yes"/>
      <point x="123" y="-160"/>
      <point x="81" y="-188"/>
      <point x="15" y="-188" type="curve" smooth="yes"/>
      <point x="-23" y="-188"/>
      <point x="-52" y="-181"/>
      <point x="-79" y="-173" type="curve"/>
      <point x="-79" y="-222" type="line"/>
      <point x="-56" y="-230"/>
      <point x="-26" y="-236"/>
      <point x="16" y="-236" type="curve" smooth="yes"/>
      <point x="106" y="-236"/>
      <point x="190" y="-201"/>
      <point x="190" y="-71" type="curve" smooth="yes"/>
      <point x="190" y="508" type="line"/>
      <point x="34" y="508" type="line"/>
      <point x="34" y="472" type="line"/>
      <point x="49" y="470" type="line" smooth="yes"/>
      <point x="99" y="463"/>
      <point x="123" y="457"/>
      <point x="123" y="430" type="curve" smooth="yes"/>
    </contour>
    <contour>
      <point x="144" y="636" type="curve" smooth="yes"/>
      <point x="175" y="636"/>
      <point x="199" y="655"/>
      <point x="199" y="688" type="curve" smooth="yes"/>
      <point x="199" y="720"/>
      <point x="175" y="738"/>
      <point x="144" y="738" type="curve" smooth="yes"/>
      <point x="113" y="738"/>
      <point x="89" y="720"/>
      <point x="89" y="688" type="curve" smooth="yes"/>
      <point x="89" y="655"/>
      <point x="113" y="636"/>
    </contour>
    <contour>
      <point x="156" y="551" type="move" name="top"/>
    </contour>
  </outline>
</glyph>
<glyph name="k" format="1">
  <advance width="681"/>
  <unicode hex="006B"/>
  <outline>
    <contour>
      <point x="657" y="0" type="line"/>
      <point x="657" y="38" type="line"/>
      <point x="654" y="38" type="line"/>
      <point x="612" y="38"/>
      <point x="586" y="46"/>
      <point x="552" y="76" type="curve" smooth="yes"/>
      <point x="299" y="300" type="line"/>
      <point x="299" y="271" type="line"/>
      <point x="505" y="430" type="line" smooth="yes"/>
      <point x="539" y="457"/>
      <point x="571" y="471"/>
      <point x="618" y="471" type="curve"/>
      <point x="620" y="471" type="line"/>
      <point x="620" y="508" type="line"/>
      <point x="380" y="508" type="line"/>
      <point x="380" y="471" type="line"/>
      <point x="385" y="471" type="line"/>
      <point x="426" y="471"/>
      <point x="465" y="468"/>
      <point x="465" y="455" type="curve"/>
      <point x="238" y="277" type="line"/>
      <point x="238" y="272" type="line"/>
      <point x="492" y="48" type="line"/>
      <point x="492" y="41"/>
      <point x="452" y="38"/>
      <point x="425" y="38" type="curve"/>
      <point x="420" y="38" type="line"/>
      <point x="420" y="0" type="line"/>
    </contour>
    <contour>
      <point x="197" y="735" type="line"/>
      <point x="46" y="735" type="line"/>
      <point x="46" y="699" type="line"/>
      <point x="59" y="697" type="line" smooth="yes"/>
      <point x="107" y="689"/>
      <point x="130" y="684"/>
      <point x="130" y="656" type="curve" smooth="yes"/>
      <point x="130" y="71" type="line" smooth="yes"/>
      <point x="130" y="44"/>
      <point x="96" y="37"/>
      <point x="49" y="37" type="curve" smooth="yes"/>
      <point x="47" y="37" type="line"/>
      <point x="47" y="0" type="line"/>
      <point x="274" y="0" type="line"/>
      <point x="274" y="37" type="line"/>
      <point x="270" y="37" type="line" smooth="yes"/>
      <point x="243" y="37"/>
      <point x="197" y="40"/>
      <point x="197" y="47" type="curve" smooth="yes"/>
    </contour>
    <contour>
      <point x="342" y="0" type="move" name="bottom"/>
    </contour>
  </outline>
</glyph>
<glyph name="l" format="1">
  <advance width="315"/>
  <unicode hex="006C"/>
  <outline>
    <contour>
      <point x="195" y="735" type="line"/>
      <point x="44" y="735" type="line"/>
      <point x="44" y="699" type="line"/>
      <point x="57" y="697" type="line" smooth="yes"/>
      <point x="105" y="689"/>
      <point x="127" y="684"/>
      <point x="127" y="656" type="curve" smooth="yes"/>
      <point x="127" y="71" type="line" smooth="yes"/>
      <point x="127" y="44"/>
      <point x="94" y="37"/>
      <point x="47" y="37" type="curve" smooth="yes"/>
      <point x="44" y="37" type="line"/>
      <point x="44" y="0" type="line"/>
      <point x="278" y="0" type="line"/>
      <point x="278" y="37" type="line"/>
      <point x="275" y="37" type="line" smooth="yes"/>
      <point x="229" y="37"/>
      <point x="195" y="44"/>
      <point x="195" y="71" type="curve" smooth="yes"/>
    </contour>
    <contour>
      <point x="165" y="746" type="move" name="top"/>
    </contour>
    <contour>
      <point x="282" y="735" type="move" name="right"/>
    </contour>
    <contour>
      <point x="344" y="391" type="move" name="mid"/>
    </contour>
    <contour>
      <point x="168" y="0" type="move" name="bottom"/>
    </contour>
  </outline>
</glyph>
<glyph name="m" format="1">
  <advance width="1014"/>
  <unicode hex="006D"/>
  <outline>
    <contour>
      <point x="46" y="0" type="line"/>
      <point x="268" y="0" type="line"/>
      <point x="268" y="37" type="line"/>
      <point x="265" y="37" type="line" smooth="yes"/>
      <point x="238" y="37"/>
      <point x="197" y="40"/>
      <point x="197" y="47" type="curve" smooth="yes"/>
      <point x="197" y="396" type="line"/>
      <point x="192" y="401" type="line"/>
      <point x="192" y="508" type="line"/>
      <point x="46" y="508" type="line"/>
      <point x="46" y="472" type="line"/>
      <point x="59" y="470" type="line" smooth="yes"/>
      <point x="107" y="462"/>
      <point x="130" y="457"/>
      <point x="130" y="429" type="curve" smooth="yes"/>
      <point x="130" y="71" type="line" smooth="yes"/>
      <point x="130" y="44"/>
      <point x="96" y="37"/>
      <point x="49" y="37" type="curve" smooth="yes"/>
      <point x="46" y="37" type="line"/>
    </contour>
    <contour>
      <point x="618" y="0" type="line"/>
      <point x="618" y="37" type="line"/>
      <point x="616" y="37" type="line" smooth="yes"/>
      <point x="581" y="37"/>
      <point x="546" y="40"/>
      <point x="546" y="47" type="curve" smooth="yes"/>
      <point x="546" y="354" type="line" smooth="yes"/>
      <point x="546" y="467"/>
      <point x="482" y="518"/>
      <point x="383" y="518" type="curve" smooth="yes"/>
      <point x="301" y="518"/>
      <point x="237" y="479"/>
      <point x="184" y="411" type="curve"/>
      <point x="184" y="352" type="line"/>
      <point x="236" y="423"/>
      <point x="294" y="468"/>
      <point x="370" y="468" type="curve" smooth="yes"/>
      <point x="449" y="468"/>
      <point x="479" y="429"/>
      <point x="479" y="343" type="curve" smooth="yes"/>
      <point x="479" y="47" type="line" smooth="yes"/>
      <point x="479" y="40"/>
      <point x="437" y="37"/>
      <point x="410" y="37" type="curve" smooth="yes"/>
      <point x="408" y="37" type="line"/>
      <point x="408" y="0" type="line"/>
    </contour>
    <contour>
      <point x="979" y="0" type="line"/>
      <point x="979" y="37" type="line"/>
      <point x="977" y="37" type="line" smooth="yes"/>
      <point x="930" y="37"/>
      <point x="896" y="44"/>
      <point x="896" y="71" type="curve" smooth="yes"/>
      <point x="896" y="354" type="line" smooth="yes"/>
      <point x="896" y="467"/>
      <point x="831" y="518"/>
      <point x="732" y="518" type="curve" smooth="yes"/>
      <point x="650" y="518"/>
      <point x="586" y="479"/>
      <point x="533" y="411" type="curve"/>
      <point x="533" y="352" type="line"/>
      <point x="585" y="423"/>
      <point x="643" y="468"/>
      <point x="719" y="468" type="curve" smooth="yes"/>
      <point x="798" y="468"/>
      <point x="828" y="429"/>
      <point x="828" y="343" type="curve" smooth="yes"/>
      <point x="828" y="47" type="line" smooth="yes"/>
      <point x="828" y="40"/>
      <point x="786" y="37"/>
      <point x="759" y="37" type="curve" smooth="yes"/>
      <point x="757" y="37" type="line"/>
      <point x="757" y="0" type="line"/>
    </contour>
  </outline>
</glyph>
<glyph name="n" format="1">
  <advance width="700"/>
  <unicode hex="006E"/>
  <outline>
    <contour>
      <point x="46" y="0" type="line"/>
      <point x="270" y="0" type="line"/>
      <point x="270" y="37" type="line"/>
      <point x="266" y="37" type="line" smooth="yes"/>
      <point x="240" y="37"/>
      <point x="197" y="40"/>
      <point x="197" y="47" type="curve" smooth="yes"/>
      <point x="197" y="395" type="line"/>
      <point x="193" y="400" type="line"/>
      <point x="193" y="508" type="line"/>
      <point x="46" y="508" type="line"/>
      <point x="46" y="472" type="line"/>
      <point x="59" y="470" type="line" smooth="yes"/>
      <point x="106" y="462"/>
      <point x="130" y="457"/>
      <point x="130" y="430" type="curve" smooth="yes"/>
      <point x="130" y="71" type="line" smooth="yes"/>
      <point x="130" y="44"/>
      <point x="96" y="37"/>
      <point x="49" y="37" type="curve" smooth="yes"/>
      <point x="46" y="37" type="line"/>
    </contour>
    <contour>
      <point x="666" y="0" type="line"/>
      <point x="666" y="37" type="line"/>
      <point x="664" y="37" type="line" smooth="yes"/>
      <point x="617" y="37"/>
      <point x="583" y="44"/>
      <point x="583" y="71" type="curve" smooth="yes"/>
      <point x="583" y="347" type="line" smooth="yes"/>
      <point x="583" y="464"/>
      <point x="513" y="518"/>
      <point x="402" y="518" type="curve" smooth="yes"/>
      <point x="316" y="518"/>
      <point x="244" y="479"/>
      <point x="187" y="408" type="curve"/>
      <point x="187" y="351" type="line"/>
      <point x="238" y="423"/>
      <point x="310" y="469"/>
      <point x="389" y="469" type="curve" smooth="yes"/>
      <point x="481" y="469"/>
      <point x="515" y="425"/>
      <point x="515" y="335" type="curve" smooth="yes"/>
      <point x="515" y="47" type="line" smooth="yes"/>
      <point x="515" y="40"/>
      <point x="472" y="37"/>
      <point x="445" y="37" type="curve" smooth="yes"/>
      <point x="443" y="37" type="line"/>
      <point x="443" y="0" type="line"/>
    </contour>
    <contour>
      <point x="343" y="551" type="move" name="top"/>
    </contour>
    <contour>
      <point x="351" y="0" type="move" name="bottom"/>
    </contour>
  </outline>
</glyph>
<glyph name="o" format="1">
  <advance width="665"/>
  <unicode hex="006F"/>
  <outline>
    <contour>
      <point x="333" y="-10" type="curve" smooth="yes"/>
      <point x="496" y="-10"/>
      <point x="617" y="97"/>
      <point x="617" y="254" type="curve" smooth="yes"/>
      <point x="617" y="409"/>
      <point x="496" y="518"/>
      <point x="333" y="518" type="curve" smooth="yes"/>
      <point x="169" y="518"/>
      <point x="49" y="410"/>
      <point x="49" y="254" type="curve" smooth="yes"/>
      <point x="49" y="97"/>
      <point x="169" y="-10"/>
    </contour>
    <contour>
      <point x="333" y="35" type="curve" smooth="yes"/>
      <point x="204" y="35"/>
      <point x="120" y="121"/>
      <point x="120" y="254" type="curve" smooth="yes"/>
      <point x="120" y="385"/>
      <point x="204" y="474"/>
      <point x="333" y="474" type="curve" smooth="yes"/>
      <point x="461" y="474"/>
      <point x="545" y="385"/>
      <point x="545" y="254" type="curve" smooth="yes"/>
      <point x="545" y="120"/>
      <point x="461" y="35"/>
    </contour>
    <contour>
      <point x="333" y="551" type="move" name="top"/>
    </contour>
    <contour>
      <point x="444" y="0" type="move" name="right"/>
    </contour>
    <contour>
      <point x="333" y="0" type="move" name="bottom"/>
    </contour>
  </outline>
</glyph>
<glyph name="p" format="1">
  <advance width="711"/>
  <unicode hex="0070"/>
  <outline>
    <contour>
      <point x="44" y="-223" type="line"/>
      <point x="299" y="-223" type="line"/>
      <point x="299" y="-186" type="line"/>
      <point x="265" y="-186" type="line" smooth="yes"/>
      <point x="240" y="-186"/>
      <point x="195" y="-184"/>
      <point x="195" y="-177" type="curve" smooth="yes"/>
      <point x="195" y="370" type="line"/>
      <point x="190" y="377" type="line"/>
      <point x="190" y="508" type="line"/>
      <point x="44" y="508" type="line"/>
      <point x="44" y="472" type="line"/>
      <point x="56" y="470" type="line" smooth="yes"/>
      <point x="104" y="462"/>
      <point x="127" y="457"/>
      <point x="127" y="430" type="curve" smooth="yes"/>
      <point x="127" y="-151" type="line" smooth="yes"/>
      <point x="127" y="-180"/>
      <point x="93" y="-186"/>
      <point x="46" y="-186" type="curve"/>
      <point x="44" y="-186" type="line"/>
    </contour>
    <contour>
      <point x="402" y="-10" type="curve" smooth="yes"/>
      <point x="559" y="-10"/>
      <point x="663" y="99"/>
      <point x="663" y="257" type="curve" smooth="yes"/>
      <point x="663" y="414"/>
      <point x="569" y="518"/>
      <point x="419" y="518" type="curve" smooth="yes"/>
      <point x="317" y="518"/>
      <point x="237" y="468"/>
      <point x="183" y="386" type="curve"/>
      <point x="183" y="319" type="line"/>
      <point x="240" y="420"/>
      <point x="317" y="473"/>
      <point x="409" y="473" type="curve" smooth="yes"/>
      <point x="524" y="473"/>
      <point x="591" y="390"/>
      <point x="591" y="257" type="curve" smooth="yes"/>
      <point x="591" y="124"/>
      <point x="522" y="35"/>
      <point x="399" y="35" type="curve" smooth="yes"/>
      <point x="306" y="35"/>
      <point x="234" y="86"/>
      <point x="183" y="184" type="curve"/>
      <point x="183" y="109" type="line"/>
      <point x="230" y="35"/>
      <point x="306" y="-10"/>
    </contour>
  </outline>
</glyph>
<glyph name="q" format="1">
  <advance width="681"/>
  <unicode hex="0071"/>
  <outline>
    <contour>
      <point x="412" y="-223" type="line"/>
      <point x="667" y="-223" type="line"/>
      <point x="667" y="-186" type="line"/>
      <point x="665" y="-186" type="line"/>
      <point x="613" y="-186"/>
      <point x="584" y="-180"/>
      <point x="584" y="-153" type="curve" smooth="yes"/>
      <point x="584" y="511" type="line"/>
      <point x="539" y="511" type="line"/>
      <point x="521" y="392" type="line"/>
      <point x="517" y="384" type="line"/>
      <point x="517" y="-177" type="line" smooth="yes"/>
      <point x="517" y="-184"/>
      <point x="474" y="-186"/>
      <point x="446" y="-186" type="curve" smooth="yes"/>
      <point x="412" y="-186" type="line"/>
    </contour>
    <contour>
      <point x="306" y="-10" type="curve" smooth="yes"/>
      <point x="405" y="-10"/>
      <point x="474" y="38"/>
      <point x="528" y="118" type="curve"/>
      <point x="528" y="187" type="line"/>
      <point x="472" y="87"/>
      <point x="403" y="35"/>
      <point x="312" y="35" type="curve" smooth="yes"/>
      <point x="192" y="35"/>
      <point x="120" y="118"/>
      <point x="120" y="250" type="curve" smooth="yes"/>
      <point x="120" y="384"/>
      <point x="197" y="473"/>
      <point x="317" y="473" type="curve" smooth="yes"/>
      <point x="411" y="473"/>
      <point x="485" y="421"/>
      <point x="528" y="328" type="curve"/>
      <point x="528" y="401" type="line"/>
      <point x="486" y="471"/>
      <point x="415" y="518"/>
      <point x="314" y="518" type="curve" smooth="yes"/>
      <point x="156" y="518"/>
      <point x="49" y="409"/>
      <point x="49" y="250" type="curve" smooth="yes"/>
      <point x="49" y="94"/>
      <point x="149" y="-10"/>
    </contour>
  </outline>
</glyph>
<glyph name="r" format="1">
  <advance width="433"/>
  <unicode hex="0072"/>
  <outline>
    <contour>
      <point x="403" y="514" type="line"/>
      <point x="395" y="516"/>
      <point x="381" y="518"/>
      <point x="361" y="518" type="curve" smooth="yes"/>
      <point x="283" y="518"/>
      <point x="227" y="468"/>
      <point x="187" y="389" type="curve"/>
      <point x="187" y="333" type="line"/>
      <point x="230" y="412"/>
      <point x="273" y="451"/>
      <point x="347" y="451" type="curve" smooth="yes"/>
      <point x="366" y="451"/>
      <point x="387" y="448"/>
      <point x="403" y="444" type="curve"/>
    </contour>
    <contour>
      <point x="46" y="0" type="line"/>
      <point x="303" y="0" type="line"/>
      <point x="303" y="37" type="line"/>
      <point x="287" y="37" type="line" smooth="yes"/>
      <point x="253" y="37"/>
      <point x="197" y="41"/>
      <point x="197" y="69" type="curve" smooth="yes"/>
      <point x="197" y="383" type="line"/>
      <point x="193" y="378" type="line"/>
      <point x="193" y="508" type="line"/>
      <point x="46" y="508" type="line"/>
      <point x="46" y="472" type="line"/>
      <point x="59" y="470" type="line" smooth="yes"/>
      <point x="106" y="462"/>
      <point x="130" y="457"/>
      <point x="130" y="430" type="curve" smooth="yes"/>
      <point x="130" y="71" type="line" smooth="yes"/>
      <point x="130" y="44"/>
      <point x="96" y="37"/>
      <point x="49" y="37" type="curve" smooth="yes"/>
      <point x="46" y="37" type="line"/>
    </contour>
    <contour>
      <point x="229" y="545" type="move" name="top"/>
    </contour>
    <contour>
      <point x="172" y="0" type="move" name="bottom"/>
    </contour>
  </outline>
</glyph>
<glyph name="s" format="1">
  <advance width="531"/>
  <unicode hex="0073"/>
  <outline>
    <contour>
      <point x="424" y="129" type="curve" smooth="yes"/>
      <point x="424" y="70"/>
      <point x="366" y="35"/>
      <point x="272" y="35" type="curve" smooth="yes"/>
      <point x="197" y="35"/>
      <point x="138" y="49"/>
      <point x="91" y="88" type="curve"/>
      <point x="87" y="70"/>
      <point x="90" y="50"/>
      <point x="116" y="31" type="curve"/>
      <point x="116" y="145" type="line"/>
      <point x="45" y="145" type="line"/>
      <point x="45" y="45" type="line"/>
      <point x="98" y="14"/>
      <point x="172" y="-10"/>
      <point x="273" y="-10" type="curve" smooth="yes"/>
      <point x="409" y="-10"/>
      <point x="489" y="54"/>
      <point x="489" y="138" type="curve" smooth="yes"/>
      <point x="489" y="234"/>
      <point x="410" y="260"/>
      <point x="299" y="286" type="curve" smooth="yes"/>
      <point x="202" y="308"/>
      <point x="133" y="319"/>
      <point x="133" y="386" type="curve" smooth="yes"/>
      <point x="133" y="438"/>
      <point x="181" y="474"/>
      <point x="274" y="474" type="curve" smooth="yes"/>
      <point x="336" y="474"/>
      <point x="386" y="458"/>
      <point x="414" y="428" type="curve"/>
      <point x="416" y="446"/>
      <point x="407" y="462"/>
      <point x="389" y="465" type="curve"/>
      <point x="389" y="381" type="line"/>
      <point x="459" y="381" type="line"/>
      <point x="459" y="474" type="line"/>
      <point x="428" y="493"/>
      <point x="369" y="518"/>
      <point x="274" y="518" type="curve" smooth="yes"/>
      <point x="147" y="518"/>
      <point x="69" y="464"/>
      <point x="69" y="378" type="curve" smooth="yes"/>
      <point x="69" y="287"/>
      <point x="155" y="257"/>
      <point x="262" y="233" type="curve" smooth="yes"/>
      <point x="360" y="210"/>
      <point x="424" y="196"/>
    </contour>
    <contour>
      <point x="268" y="546" type="move" name="top"/>
    </contour>
    <contour>
      <point x="270" y="0" type="move" name="bottom"/>
    </contour>
  </outline>
</glyph>
<glyph name="t" format="1">
  <advance width="406"/>
  <unicode hex="0074"/>
  <outline>
    <contour>
      <point x="186" y="140" type="curve" smooth="yes"/>
      <point x="186" y="648" type="line"/>
      <point x="124" y="648" type="line"/>
      <point x="124" y="500" type="line"/>
      <point x="118" y="492" type="line"/>
      <point x="118" y="139" type="line" smooth="yes"/>
      <point x="118" y="26"/>
      <point x="196" y="-10"/>
      <point x="288" y="-10" type="curve" smooth="yes"/>
      <point x="324" y="-10"/>
      <point x="356" y="-3"/>
      <point x="377" y="6" type="curve"/>
      <point x="377" y="51" type="line"/>
      <point x="355" y="44"/>
      <point x="328" y="38"/>
      <point x="296" y="38" type="curve" smooth="yes"/>
      <point x="228" y="38"/>
      <point x="186" y="67"/>
    </contour>
    <contour>
      <point x="124" y="553" type="line"/>
      <point x="124" y="512"/>
      <point x="84" y="503"/>
      <point x="16" y="503" type="curve" smooth="yes"/>
      <point x="10" y="503" type="line"/>
      <point x="10" y="464" type="line"/>
      <point x="149" y="464" type="line"/>
    </contour>
    <contour>
      <point x="168" y="464" type="line"/>
      <point x="363" y="464" type="line"/>
      <point x="363" y="508" type="line"/>
      <point x="168" y="508" type="line"/>
    </contour>
    <contour>
      <point x="163" y="675" type="move" name="top"/>
    </contour>
    <contour>
      <point x="314" y="681" type="move" name="right"/>
    </contour>
    <contour>
      <point x="261" y="0" type="move" name="bottom"/>
    </contour>
  </outline>
</glyph>
<glyph name="u" format="1">
  <advance width="675"/>
  <unicode hex="0075"/>
  <outline>
    <contour>
      <point x="179" y="508" type="line"/>
      <point x="28" y="508" type="line"/>
      <point x="28" y="471" type="line"/>
      <point x="35" y="470" type="line" smooth="yes"/>
      <point x="82" y="467"/>
      <point x="111" y="460"/>
      <point x="111" y="433" type="curve" smooth="yes"/>
      <point x="111" y="158" type="line" smooth="yes"/>
      <point x="111" y="40"/>
      <point x="178" y="-10"/>
      <point x="290" y="-10" type="curve" smooth="yes"/>
      <point x="374" y="-10"/>
      <point x="444" y="25"/>
      <point x="502" y="99" type="curve"/>
      <point x="502" y="157" type="line"/>
      <point x="447" y="82"/>
      <point x="381" y="40"/>
      <point x="302" y="40" type="curve" smooth="yes"/>
      <point x="208" y="40"/>
      <point x="179" y="79"/>
      <point x="179" y="169" type="curve" smooth="yes"/>
    </contour>
    <contour>
      <point x="559" y="508" type="line"/>
      <point x="396" y="508" type="line"/>
      <point x="396" y="471" type="line"/>
      <point x="408" y="470" type="line"/>
      <point x="462" y="466"/>
      <point x="491" y="460"/>
      <point x="491" y="433" type="curve" smooth="yes"/>
      <point x="491" y="117" type="line"/>
      <point x="496" y="111" type="line"/>
      <point x="496" y="0" type="line"/>
      <point x="643" y="0" type="line"/>
      <point x="643" y="37" type="line"/>
      <point x="639" y="37" type="line" smooth="yes"/>
      <point x="589" y="37"/>
      <point x="559" y="44"/>
      <point x="559" y="71" type="curve" smooth="yes"/>
    </contour>
    <contour>
      <point x="310" y="551" type="move" name="top"/>
    </contour>
    <contour>
      <point x="490" y="0" type="move" name="right"/>
    </contour>
    <contour>
      <point x="308" y="0" type="move" name="bottom"/>
    </contour>
  </outline>
</glyph>
<glyph name="v" format="1">
  <advance width="626"/>
  <unicode hex="0076"/>
  <outline>
    <contour>
      <point x="496" y="456" type="curve"/>
      <point x="319" y="42" type="line"/>
      <point x="329" y="42" type="line"/>
      <point x="148" y="462" type="line"/>
      <point x="148" y="469"/>
      <point x="193" y="471"/>
      <point x="236" y="471" type="curve" smooth="yes"/>
      <point x="238" y="471" type="line"/>
      <point x="238" y="508" type="line"/>
      <point x="10" y="508" type="line"/>
      <point x="10" y="471" type="line"/>
      <point x="12" y="471" type="line" smooth="yes"/>
      <point x="53" y="471"/>
      <point x="76" y="463"/>
      <point x="88" y="437" type="curve" smooth="yes"/>
      <point x="280" y="0" type="line"/>
      <point x="350" y="0" type="line"/>
      <point x="539" y="433" type="line" smooth="yes"/>
      <point x="553" y="463"/>
      <point x="577" y="471"/>
      <point x="614" y="471" type="curve" smooth="yes"/>
      <point x="617" y="471" type="line"/>
      <point x="617" y="508" type="line"/>
      <point x="408" y="508" type="line"/>
      <point x="408" y="471" type="line"/>
      <point x="411" y="471" type="line" smooth="yes"/>
      <point x="453" y="471"/>
      <point x="495" y="465"/>
    </contour>
  </outline>
</glyph>
<glyph name="w" format="1">
  <advance width="914"/>
  <unicode hex="0077"/>
  <outline>
    <contour>
      <point x="458" y="439" type="line"/>
      <point x="312" y="0" type="line"/>
      <point x="235" y="0" type="line"/>
      <point x="80" y="440" type="line" smooth="yes"/>
      <point x="71" y="465"/>
      <point x="42" y="471"/>
      <point x="11" y="471" type="curve"/>
      <point x="10" y="471" type="line"/>
      <point x="10" y="508" type="line"/>
      <point x="235" y="508" type="line"/>
      <point x="235" y="471" type="line"/>
      <point x="232" y="471" type="line" smooth="yes"/>
      <point x="186" y="471"/>
      <point x="142" y="469"/>
      <point x="142" y="462" type="curve"/>
      <point x="287" y="43" type="line"/>
      <point x="278" y="42" type="line"/>
      <point x="432" y="508" type="line"/>
      <point x="492" y="508" type="line"/>
      <point x="653" y="42" type="line"/>
      <point x="644" y="40" type="line"/>
      <point x="784" y="451" type="line"/>
      <point x="783" y="463"/>
      <point x="745" y="471"/>
      <point x="697" y="471" type="curve" smooth="yes"/>
      <point x="692" y="471" type="line"/>
      <point x="692" y="508" type="line"/>
      <point x="905" y="508" type="line"/>
      <point x="905" y="471" type="line" smooth="yes"/>
      <point x="900" y="471" type="line" smooth="yes"/>
      <point x="869" y="471"/>
      <point x="839" y="459"/>
      <point x="828" y="428" type="curve" smooth="yes"/>
      <point x="680" y="0" type="line"/>
      <point x="602" y="0" type="line"/>
      <point x="448" y="439" type="line"/>
    </contour>
    <contour>
      <point x="460" y="551" type="move" name="top"/>
    </contour>
  </outline>
</glyph>
<glyph name="x" format="1">
  <advance width="622"/>
  <unicode hex="0078"/>
  <outline>
    <contour>
      <point x="607" y="0" type="line"/>
      <point x="607" y="38" type="line"/>
      <point x="606" y="38" type="line"/>
      <point x="563" y="38"/>
      <point x="546" y="47"/>
      <point x="524" y="72" type="curve" smooth="yes"/>
      <point x="342" y="273" type="line"/>
      <point x="337" y="277" type="line"/>
      <point x="174" y="462" type="line"/>
      <point x="174" y="469"/>
      <point x="220" y="471"/>
      <point x="259" y="471" type="curve" smooth="yes"/>
      <point x="262" y="471" type="line"/>
      <point x="262" y="508" type="line"/>
      <point x="34" y="508" type="line"/>
      <point x="34" y="470" type="line"/>
      <point x="35" y="470" type="line"/>
      <point x="74" y="470"/>
      <point x="92" y="464"/>
      <point x="110" y="444" type="curve" smooth="yes"/>
      <point x="288" y="241" type="line"/>
      <point x="293" y="238" type="line"/>
      <point x="464" y="48" type="line"/>
      <point x="464" y="41"/>
      <point x="418" y="38"/>
      <point x="377" y="38" type="curve" smooth="yes"/>
      <point x="375" y="38" type="line"/>
      <point x="375" y="0" type="line"/>
    </contour>
    <contour>
      <point x="19" y="0" type="line"/>
      <point x="233" y="0" type="line"/>
      <point x="233" y="38" type="line"/>
      <point x="231" y="38" type="line" smooth="yes"/>
      <point x="194" y="38"/>
      <point x="150" y="46"/>
      <point x="150" y="58" type="curve"/>
      <point x="317" y="238" type="line"/>
      <point x="284" y="266" type="line"/>
      <point x="105" y="76" type="line" smooth="yes"/>
      <point x="80" y="49"/>
      <point x="51" y="38"/>
      <point x="20" y="38" type="curve"/>
      <point x="19" y="38" type="line"/>
    </contour>
    <contour>
      <point x="341" y="249" type="line"/>
      <point x="506" y="429" type="line" smooth="yes"/>
      <point x="535" y="460"/>
      <point x="556" y="471"/>
      <point x="594" y="471" type="curve" smooth="yes"/>
      <point x="596" y="471" type="line"/>
      <point x="596" y="508" type="line"/>
      <point x="384" y="508" type="line"/>
      <point x="384" y="471" type="line"/>
      <point x="388" y="471" type="line" smooth="yes"/>
      <point x="423" y="471"/>
      <point x="467" y="464"/>
      <point x="467" y="453" type="curve"/>
      <point x="311" y="279" type="line"/>
    </contour>
  </outline>
</glyph>
<glyph name="y" format="1">
  <advance width="642"/>
  <unicode hex="0079"/>
  <outline>
    <contour>
      <point x="301" y="-16" type="line"/>
      <point x="337" y="4" type="line"/>
      <point x="347" y="35" type="line"/>
      <point x="149" y="462" type="line"/>
      <point x="149" y="469"/>
      <point x="197" y="471"/>
      <point x="236" y="471" type="curve" smooth="yes"/>
      <point x="238" y="471" type="line"/>
      <point x="238" y="508" type="line"/>
      <point x="10" y="508" type="line"/>
      <point x="10" y="471" type="line"/>
      <point x="11" y="471" type="line"/>
      <point x="53" y="471"/>
      <point x="76" y="463"/>
      <point x="89" y="436" type="curve" smooth="yes"/>
    </contour>
    <contour>
      <point x="109" y="-231" type="curve" smooth="yes"/>
      <point x="225" y="-231"/>
      <point x="282" y="-158"/>
      <point x="334" y="-46" type="curve" smooth="yes"/>
      <point x="553" y="426" type="line" smooth="yes"/>
      <point x="570" y="462"/>
      <point x="589" y="471"/>
      <point x="631" y="471" type="curve"/>
      <point x="632" y="471" type="line"/>
      <point x="632" y="508" type="line"/>
      <point x="422" y="508" type="line"/>
      <point x="422" y="471" type="line"/>
      <point x="425" y="471" type="line" smooth="yes"/>
      <point x="473" y="471"/>
      <point x="510" y="463"/>
      <point x="510" y="452" type="curve"/>
      <point x="329" y="50" type="line"/>
      <point x="298" y="-12" type="line"/>
      <point x="236" y="-136"/>
      <point x="194" y="-168"/>
      <point x="114" y="-168" type="curve" smooth="yes"/>
      <point x="72" y="-168"/>
      <point x="40" y="-151"/>
      <point x="34" y="-149" type="curve"/>
      <point x="34" y="-214" type="line"/>
      <point x="47" y="-222"/>
      <point x="75" y="-231"/>
    </contour>
    <contour>
      <point x="322" y="551" type="move" name="top"/>
    </contour>
    <contour>
      <point x="334" y="-211" type="move" name="bottom"/>
    </contour>
  </outline>
</glyph>
<glyph name="z" format="1">
  <advance width="538"/>
  <unicode hex="007A"/>
  <outline>
    <contour>
      <point x="101" y="27" type="line"/>
      <point x="495" y="464" type="line"/>
      <point x="495" y="508" type="line"/>
      <point x="62" y="508" type="line"/>
      <point x="62" y="362" type="line"/>
      <point x="105" y="362" type="line"/>
      <point x="114" y="424" type="line" smooth="yes"/>
      <point x="118" y="459"/>
      <point x="147" y="466"/>
      <point x="258" y="466" type="curve" smooth="yes"/>
      <point x="450" y="466" type="line"/>
      <point x="432" y="481" type="line"/>
      <point x="42" y="49" type="line"/>
      <point x="42" y="0" type="line"/>
      <point x="508" y="0" type="line"/>
      <point x="508" y="162" type="line"/>
      <point x="464" y="162" type="line"/>
      <point x="454" y="88" type="line" smooth="yes"/>
      <point x="449" y="51"/>
      <point x="421" y="44"/>
      <point x="310" y="44" type="curve" smooth="yes"/>
      <point x="82" y="44" type="line"/>
    </contour>
    <contour>
      <point x="272" y="551" type="move" name="top"/>
    </contour>
    <contour>
      <point x="294" y="0" type="move" name="bottom"/>
    </contour>
  </outline>
</glyph>
<glyph name="braceleft" format="1">
  <advance width="366"/>
  <unicode hex="007B"/>
  <outline>
    <contour>
      <point x="261" y="236" type="curve" smooth="yes"/>
      <point x="261" y="266"/>
      <point x="246" y="278"/>
      <point x="122" y="300" type="curve"/>
      <point x="122" y="304" type="line"/>
      <point x="246" y="325"/>
      <point x="261" y="338"/>
      <point x="261" y="368" type="curve" smooth="yes"/>
      <point x="261" y="404"/>
      <point x="150" y="529"/>
      <point x="150" y="608" type="curve" smooth="yes"/>
      <point x="150" y="680"/>
      <point x="213" y="712"/>
      <point x="341" y="712" type="curve"/>
      <point x="326" y="750" type="line"/>
      <point x="192" y="752"/>
      <point x="82" y="719"/>
      <point x="82" y="612" type="curve" smooth="yes"/>
      <point x="82" y="530"/>
      <point x="165" y="433"/>
      <point x="215" y="353" type="curve"/>
      <point x="226" y="366" type="line"/>
      <point x="55" y="317" type="line"/>
      <point x="55" y="287" type="line"/>
      <point x="226" y="238" type="line"/>
      <point x="215" y="251" type="line"/>
      <point x="165" y="171"/>
      <point x="82" y="74"/>
      <point x="82" y="-9" type="curve" smooth="yes"/>
      <point x="82" y="-115"/>
      <point x="192" y="-149"/>
      <point x="326" y="-147" type="curve"/>
      <point x="341" y="-109" type="line"/>
      <point x="213" y="-109"/>
      <point x="150" y="-77"/>
      <point x="150" y="-4" type="curve" smooth="yes"/>
      <point x="150" y="75"/>
      <point x="261" y="200"/>
    </contour>
  </outline>
</glyph>
<glyph name="bar" format="1">
  <advance width="327"/>
  <unicode hex="007C"/>
  <outline>
    <contour>
      <point x="136" y="751" type="line"/>
      <point x="136" y="-130" type="line"/>
      <point x="192" y="-130" type="line"/>
      <point x="192" y="751" type="line"/>
    </contour>
  </outline>
</glyph>
<glyph name="asciitilde" format="1">
  <advance width="627"/>
  <unicode hex="007E"/>
  <outline>
    <contour>
      <point x="417" y="268" type="curve" smooth="yes"/>
      <point x="502" y="268"/>
      <point x="536" y="327"/>
      <point x="557" y="393" type="curve"/>
      <point x="511" y="405" type="line"/>
      <point x="499" y="374"/>
      <point x="481" y="327"/>
      <point x="423" y="327" type="curve" smooth="yes"/>
      <point x="344" y="327"/>
      <point x="308" y="402"/>
      <point x="208" y="402" type="curve" smooth="yes"/>
      <point x="125" y="402"/>
      <point x="85" y="349"/>
      <point x="70" y="279" type="curve"/>
      <point x="117" y="267" type="line"/>
      <point x="128" y="305"/>
      <point x="147" y="343"/>
      <point x="204" y="343" type="curve" smooth="yes"/>
      <point x="277" y="343"/>
      <point x="324" y="268"/>
    </contour>
  </outline>
</glyph>
<glyph name="cent" format="1">
  <advance width="654"/>
  <unicode hex="00A2"/>
  <outline>
    <contour>
      <point x="321" y="623" type="line"/>
      <point x="321" y="495" type="line"/>
      <point x="321" y="485" type="line"/>
      <point x="321" y="19" type="line"/>
      <point x="321" y="7" type="line"/>
      <point x="321" y="-126" type="line"/>
      <point x="374" y="-126" type="line"/>
      <point x="374" y="10" type="line"/>
      <point x="374" y="21" type="line"/>
      <point x="374" y="485" type="line"/>
      <point x="374" y="499" type="line"/>
      <point x="374" y="623" type="line"/>
    </contour>
    <contour>
      <point x="354" y="35" type="curve" smooth="yes"/>
      <point x="222" y="35"/>
      <point x="132" y="118"/>
      <point x="132" y="251" type="curve" smooth="yes"/>
      <point x="132" y="383"/>
      <point x="213" y="473"/>
      <point x="360" y="473" type="curve" smooth="yes"/>
      <point x="448" y="473"/>
      <point x="516" y="437"/>
      <point x="544" y="406" type="curve"/>
      <point x="554" y="426"/>
      <point x="542" y="446"/>
      <point x="513" y="451" type="curve"/>
      <point x="513" y="347" type="line"/>
      <point x="584" y="347" type="line"/>
      <point x="584" y="453" type="line"/>
      <point x="558" y="474"/>
      <point x="480" y="518"/>
      <point x="360" y="518" type="curve" smooth="yes"/>
      <point x="175" y="518"/>
      <point x="61" y="406"/>
      <point x="61" y="251" type="curve" smooth="yes"/>
      <point x="61" y="94"/>
      <point x="187" y="-11"/>
      <point x="353" y="-11" type="curve" smooth="yes"/>
      <point x="480" y="-11"/>
      <point x="551" y="49"/>
      <point x="593" y="118" type="curve"/>
      <point x="555" y="151" type="line"/>
      <point x="524" y="98"/>
      <point x="467" y="35"/>
    </contour>
  </outline>
</glyph>
<glyph name="sterling" format="1">
  <advance width="654"/>
  <unicode hex="00A3"/>
  <outline>
    <contour>
      <point x="46" y="360" type="line"/>
      <point x="46" y="316" type="line"/>
      <point x="480" y="316" type="line"/>
      <point x="480" y="360" type="line"/>
    </contour>
    <contour>
      <point x="41" y="-6" type="line"/>
      <point x="195" y="26"/>
      <point x="281" y="106"/>
      <point x="281" y="226" type="curve" smooth="yes"/>
      <point x="281" y="339"/>
      <point x="186" y="412"/>
      <point x="186" y="526" type="curve" smooth="yes"/>
      <point x="186" y="620"/>
      <point x="261" y="672"/>
      <point x="366" y="672" type="curve" smooth="yes"/>
      <point x="448" y="672"/>
      <point x="495" y="644"/>
      <point x="528" y="617" type="curve"/>
      <point x="527" y="632"/>
      <point x="514" y="652"/>
      <point x="495" y="660" type="curve"/>
      <point x="495" y="557" type="line"/>
      <point x="569" y="557" type="line"/>
      <point x="569" y="662" type="line"/>
      <point x="536" y="686"/>
      <point x="471" y="718"/>
      <point x="365" y="718" type="curve" smooth="yes"/>
      <point x="217" y="718"/>
      <point x="113" y="641"/>
      <point x="113" y="523" type="curve" smooth="yes"/>
      <point x="113" y="404"/>
      <point x="217" y="322"/>
      <point x="217" y="218" type="curve" smooth="yes"/>
      <point x="217" y="124"/>
      <point x="159" y="76"/>
      <point x="41" y="47" type="curve"/>
    </contour>
    <contour>
      <point x="438" y="-6" type="curve" smooth="yes"/>
      <point x="541" y="-6"/>
      <point x="590" y="63"/>
      <point x="615" y="152" type="curve"/>
      <point x="570" y="168" type="line"/>
      <point x="546" y="97"/>
      <point x="517" y="62"/>
      <point x="445" y="62" type="curve" smooth="yes"/>
      <point x="377" y="62"/>
      <point x="313" y="95"/>
      <point x="238" y="166" type="curve"/>
      <point x="229" y="158"/>
      <point x="222" y="134"/>
      <point x="210" y="123" type="curve"/>
      <point x="302" y="40"/>
      <point x="350" y="-6"/>
    </contour>
  </outline>
</glyph>
<glyph name="currency" format="1">
  <advance width="654"/>
  <unicode hex="00A4"/>
  <outline>
    <contour>
      <point x="505" y="375" type="curve" smooth="yes"/>
      <point x="505" y="286"/>
      <point x="434" y="226"/>
      <point x="327" y="226" type="curve" smooth="yes"/>
      <point x="221" y="226"/>
      <point x="150" y="287"/>
      <point x="150" y="375" type="curve" smooth="yes"/>
      <point x="150" y="464"/>
      <point x="221" y="525"/>
      <point x="327" y="525" type="curve" smooth="yes"/>
      <point x="434" y="525"/>
      <point x="505" y="464"/>
    </contour>
    <contour>
      <point x="86" y="375" type="curve" smooth="yes"/>
      <point x="86" y="256"/>
      <point x="194" y="170"/>
      <point x="327" y="170" type="curve" smooth="yes"/>
      <point x="461" y="170"/>
      <point x="569" y="256"/>
      <point x="569" y="375" type="curve" smooth="yes"/>
      <point x="569" y="495"/>
      <point x="461" y="580"/>
      <point x="327" y="580" type="curve" smooth="yes"/>
      <point x="194" y="580"/>
      <point x="86" y="495"/>
    </contour>
    <contour>
      <point x="33" y="591" type="line"/>
      <point x="153" y="488" type="line"/>
      <point x="203" y="521" type="line"/>
      <point x="74" y="631" type="line"/>
    </contour>
    <contour>
      <point x="622" y="591" type="line"/>
      <point x="580" y="631" type="line"/>
      <point x="452" y="521" type="line"/>
      <point x="502" y="488" type="line"/>
    </contour>
    <contour>
      <point x="33" y="159" type="line"/>
      <point x="74" y="118" type="line"/>
      <point x="203" y="228" type="line"/>
      <point x="153" y="262" type="line"/>
    </contour>
    <contour>
      <point x="622" y="159" type="line"/>
      <point x="502" y="262" type="line"/>
      <point x="452" y="228" type="line"/>
      <point x="580" y="118" type="line"/>
    </contour>
  </outline>
</glyph>
<glyph name="yen" format="1">
  <advance width="654"/>
  <unicode hex="00A5"/>
  <outline>
    <contour>
      <point x="87" y="350" type="line"/>
      <point x="87" y="307" type="line"/>
      <point x="569" y="307" type="line"/>
      <point x="569" y="350" type="line"/>
    </contour>
    <contour>
      <point x="87" y="217" type="line"/>
      <point x="87" y="174" type="line"/>
      <point x="569" y="174" type="line"/>
      <point x="569" y="217" type="line"/>
    </contour>
    <contour>
      <point x="10" y="710" type="line"/>
      <point x="10" y="670" type="line"/>
      <point x="16" y="670" type="line" smooth="yes"/>
      <point x="54" y="670"/>
      <point x="84" y="670"/>
      <point x="101" y="644" type="curve" smooth="yes"/>
      <point x="311" y="319" type="line"/>
      <point x="346" y="319" type="line"/>
      <point x="544" y="629" type="line" smooth="yes"/>
      <point x="567" y="666"/>
      <point x="601" y="670"/>
      <point x="639" y="670" type="curve" smooth="yes"/>
      <point x="645" y="670" type="line"/>
      <point x="645" y="710" type="line"/>
      <point x="392" y="710" type="line"/>
      <point x="392" y="670" type="line"/>
      <point x="410" y="670" type="line" smooth="yes"/>
      <point x="452" y="670"/>
      <point x="503" y="663"/>
      <point x="503" y="652" type="curve"/>
      <point x="314" y="351" type="line"/>
      <point x="356" y="357" type="line"/>
      <point x="162" y="660" type="line"/>
      <point x="162" y="667"/>
      <point x="215" y="670"/>
      <point x="255" y="670" type="curve" smooth="yes"/>
      <point x="275" y="670" type="line"/>
      <point x="275" y="710" type="line"/>
    </contour>
    <contour>
      <point x="176" y="0" type="line"/>
      <point x="482" y="0" type="line"/>
      <point x="482" y="40" type="line"/>
      <point x="462" y="40" type="line" smooth="yes"/>
      <point x="405" y="40"/>
      <point x="363" y="47"/>
      <point x="363" y="76" type="curve" smooth="yes"/>
      <point x="363" y="358" type="line"/>
      <point x="294" y="358" type="line"/>
      <point x="294" y="76" type="line" smooth="yes"/>
      <point x="294" y="47"/>
      <point x="252" y="40"/>
      <point x="195" y="40" type="curve" smooth="yes"/>
      <point x="176" y="40" type="line"/>
    </contour>
  </outline>
</glyph>
<glyph name="brokenbar" format="1">
  <advance width="327"/>
  <unicode hex="00A6"/>
  <outline>
    <contour>
      <point x="136" y="751" type="line"/>
      <point x="136" y="380" type="line"/>
      <point x="192" y="380" type="line"/>
      <point x="192" y="751" type="line"/>
    </contour>
    <contour>
      <point x="136" y="241" type="line"/>
      <point x="136" y="-130" type="line"/>
      <point x="192" y="-130" type="line"/>
      <point x="192" y="241" type="line"/>
    </contour>
  </outline>
</glyph>
<glyph name="section" format="1">
  <advance width="729"/>
  <unicode hex="00A7"/>
  <outline>
    <contour>
      <point x="331" y="426" type="line"/>
      <point x="190" y="430"/>
      <point x="64" y="382"/>
      <point x="64" y="281" type="curve" smooth="yes"/>
      <point x="64" y="177"/>
      <point x="183" y="132"/>
      <point x="299" y="88" type="curve" smooth="yes"/>
      <point x="420" y="44"/>
      <point x="529" y="19"/>
      <point x="529" y="-76" type="curve" smooth="yes"/>
      <point x="529" y="-149"/>
      <point x="458" y="-191"/>
      <point x="349" y="-191" type="curve" smooth="yes"/>
      <point x="247" y="-191"/>
      <point x="177" y="-163"/>
      <point x="130" y="-114" type="curve"/>
      <point x="129" y="-118"/>
      <point x="141" y="-153"/>
      <point x="177" y="-182" type="curve"/>
      <point x="177" y="-52" type="line"/>
      <point x="101" y="-52" type="line"/>
      <point x="101" y="-169" type="line"/>
      <point x="144" y="-202"/>
      <point x="232" y="-236"/>
      <point x="351" y="-236" type="curve" smooth="yes"/>
      <point x="486" y="-236"/>
      <point x="595" y="-170"/>
      <point x="595" y="-65" type="curve" smooth="yes"/>
      <point x="595" y="47"/>
      <point x="476" y="95"/>
      <point x="346" y="142" type="curve" smooth="yes"/>
      <point x="234" y="183"/>
      <point x="128" y="212"/>
      <point x="128" y="289" type="curve" smooth="yes"/>
      <point x="128" y="359"/>
      <point x="214" y="391"/>
      <point x="347" y="397" type="curve"/>
    </contour>
    <contour>
      <point x="450" y="63" type="line"/>
      <point x="578" y="79"/>
      <point x="664" y="130"/>
      <point x="664" y="220" type="curve" smooth="yes"/>
      <point x="664" y="327"/>
      <point x="542" y="369"/>
      <point x="409" y="417" type="curve" smooth="yes"/>
      <point x="303" y="456"/>
      <point x="198" y="485"/>
      <point x="198" y="569" type="curve" smooth="yes"/>
      <point x="198" y="632"/>
      <point x="260" y="675"/>
      <point x="372" y="675" type="curve" smooth="yes"/>
      <point x="467" y="675"/>
      <point x="521" y="641"/>
      <point x="555" y="598" type="curve"/>
      <point x="560" y="624"/>
      <point x="537" y="653"/>
      <point x="509" y="657" type="curve"/>
      <point x="509" y="556" type="line"/>
      <point x="583" y="556" type="line"/>
      <point x="583" y="657" type="line"/>
      <point x="552" y="685"/>
      <point x="477" y="720"/>
      <point x="371" y="720" type="curve" smooth="yes"/>
      <point x="235" y="720"/>
      <point x="133" y="659"/>
      <point x="133" y="565" type="curve" smooth="yes"/>
      <point x="133" y="456"/>
      <point x="249" y="406"/>
      <point x="368" y="363" type="curve" smooth="yes"/>
      <point x="490" y="320"/>
      <point x="601" y="283"/>
      <point x="601" y="210" type="curve" smooth="yes"/>
      <point x="601" y="151"/>
      <point x="545" y="118"/>
      <point x="436" y="99" type="curve"/>
    </contour>
  </outline>
</glyph>
<glyph name="dieresis" format="1">
  <advance width="584"/>
  <unicode hex="00A8"/>
  <outline>
    <contour>
      <point x="171" y="629" type="curve" smooth="yes"/>
      <point x="204" y="629"/>
      <point x="227" y="648"/>
      <point x="227" y="681" type="curve" smooth="yes"/>
      <point x="227" y="713"/>
      <point x="204" y="732"/>
      <point x="171" y="732" type="curve" smooth="yes"/>
      <point x="139" y="732"/>
      <point x="116" y="713"/>
      <point x="116" y="681" type="curve" smooth="yes"/>
      <point x="116" y="648"/>
      <point x="139" y="629"/>
    </contour>
    <contour>
      <point x="415" y="629" type="curve" smooth="yes"/>
      <point x="448" y="629"/>
      <point x="471" y="648"/>
      <point x="471" y="681" type="curve" smooth="yes"/>
      <point x="471" y="713"/>
      <point x="448" y="732"/>
      <point x="415" y="732" type="curve" smooth="yes"/>
      <point x="383" y="732"/>
      <point x="359" y="713"/>
      <point x="359" y="681" type="curve" smooth="yes"/>
      <point x="359" y="648"/>
      <point x="383" y="629"/>
    </contour>
    <contour>
      <point x="292" y="526" type="move" name="_top"/>
    </contour>
  </outline>
</glyph>
<glyph name="copyright" format="1">
  <advance width="982"/>
  <unicode hex="00A9"/>
  <outline>
    <contour>
      <point x="493" y="524" type="curve" smooth="yes"/>
      <point x="569" y="524"/>
      <point x="618" y="485"/>
      <point x="638" y="425" type="curve"/>
      <point x="689" y="425" type="line"/>
      <point x="689" y="552" type="line"/>
      <point x="652" y="552" type="line"/>
      <point x="641" y="449" type="line"/>
      <point x="643" y="449"/>
      <point x="657" y="446"/>
      <point x="665" y="442" type="curve"/>
      <point x="648" y="521"/>
      <point x="573" y="563"/>
      <point x="492" y="563" type="curve" smooth="yes"/>
      <point x="362" y="563"/>
      <point x="263" y="476"/>
      <point x="263" y="354" type="curve" smooth="yes"/>
      <point x="263" y="231"/>
      <point x="364" y="147"/>
      <point x="501" y="147" type="curve" smooth="yes"/>
      <point x="606" y="147"/>
      <point x="683" y="209"/>
      <point x="703" y="284" type="curve"/>
      <point x="666" y="298" type="line"/>
      <point x="646" y="235"/>
      <point x="591" y="186"/>
      <point x="505" y="186" type="curve" smooth="yes"/>
      <point x="397" y="186"/>
      <point x="328" y="252"/>
      <point x="328" y="354" type="curve" smooth="yes"/>
      <point x="328" y="461"/>
      <point x="398" y="524"/>
    </contour>
    <contour>
      <point x="99" y="355" type="curve" smooth="yes"/>
      <point x="99" y="547"/>
      <point x="263" y="697"/>
      <point x="491" y="697" type="curve" smooth="yes"/>
      <point x="718" y="697"/>
      <point x="883" y="547"/>
      <point x="883" y="355" type="curve" smooth="yes"/>
      <point x="883" y="163"/>
      <point x="718" y="13"/>
      <point x="491" y="13" type="curve" smooth="yes"/>
      <point x="263" y="13"/>
      <point x="99" y="163"/>
    </contour>
    <contour>
      <point x="47" y="355" type="curve" smooth="yes"/>
      <point x="47" y="138"/>
      <point x="240" y="-29"/>
      <point x="491" y="-29" type="curve" smooth="yes"/>
      <point x="742" y="-29"/>
      <point x="935" y="138"/>
      <point x="935" y="355" type="curve" smooth="yes"/>
      <point x="935" y="572"/>
      <point x="742" y="739"/>
      <point x="491" y="739" type="curve" smooth="yes"/>
      <point x="240" y="739"/>
      <point x="47" y="572"/>
    </contour>
  </outline>
</glyph>
<glyph name="ordfeminine" format="1">
  <advance width="543"/>
  <unicode hex="00AA"/>
  <outline>
    <contour>
      <point x="368" y="558" type="line"/>
      <point x="167" y="541"/>
      <point x="64" y="507"/>
      <point x="64" y="419" type="curve" smooth="yes"/>
      <point x="64" y="350"/>
      <point x="124" y="310"/>
      <point x="210" y="310" type="curve" smooth="yes"/>
      <point x="290" y="310"/>
      <point x="344" y="354"/>
      <point x="368" y="406" type="curve"/>
      <point x="404" y="446"/>
      <point x="363" y="442"/>
      <point x="359" y="442" type="curve"/>
      <point x="331" y="390"/>
      <point x="290" y="350"/>
      <point x="224" y="350" type="curve" smooth="yes"/>
      <point x="168" y="350"/>
      <point x="132" y="378"/>
      <point x="132" y="420" type="curve" smooth="yes"/>
      <point x="132" y="478"/>
      <point x="200" y="514"/>
      <point x="367" y="522" type="curve"/>
    </contour>
    <contour>
      <point x="354" y="320" type="line"/>
      <point x="488" y="320" type="line"/>
      <point x="488" y="355" type="line"/>
      <point x="488" y="355" type="line"/>
      <point x="447" y="356"/>
      <point x="414" y="359"/>
      <point x="414" y="384" type="curve" smooth="yes"/>
      <point x="414" y="597" type="line" smooth="yes"/>
      <point x="414" y="690"/>
      <point x="338" y="720"/>
      <point x="253" y="720" type="curve" smooth="yes"/>
      <point x="176" y="720"/>
      <point x="117" y="696"/>
      <point x="91" y="668" type="curve"/>
      <point x="91" y="607" type="line"/>
      <point x="158" y="607" type="line"/>
      <point x="158" y="677" type="line"/>
      <point x="142" y="673"/>
      <point x="118" y="652"/>
      <point x="121" y="625" type="curve"/>
      <point x="142" y="658"/>
      <point x="190" y="681"/>
      <point x="251" y="681" type="curve" smooth="yes"/>
      <point x="313" y="681"/>
      <point x="349" y="659"/>
      <point x="349" y="593" type="curve" smooth="yes"/>
      <point x="349" y="398" type="line"/>
      <point x="354" y="396" type="line"/>
    </contour>
  </outline>
</glyph>
<glyph name="logicalnot" format="1">
  <advance width="654"/>
  <unicode hex="00AC"/>
  <outline>
    <contour>
      <point x="496" y="346" type="line"/>
      <point x="496" y="165" type="line"/>
      <point x="549" y="165" type="line"/>
      <point x="549" y="367" type="line"/>
      <point x="106" y="367" type="line"/>
      <point x="106" y="318" type="line"/>
      <point x="530" y="318" type="line"/>
    </contour>
  </outline>
</glyph>
<glyph name="registered" format="1">
  <advance width="982"/>
  <unicode hex="00AE"/>
  <outline>
    <contour>
      <point x="99" y="355" type="curve" smooth="yes"/>
      <point x="99" y="547"/>
      <point x="263" y="697"/>
      <point x="491" y="697" type="curve" smooth="yes"/>
      <point x="718" y="697"/>
      <point x="883" y="547"/>
      <point x="883" y="355" type="curve" smooth="yes"/>
      <point x="883" y="163"/>
      <point x="718" y="13"/>
      <point x="491" y="13" type="curve" smooth="yes"/>
      <point x="263" y="13"/>
      <point x="99" y="163"/>
    </contour>
    <contour>
      <point x="47" y="355" type="curve" smooth="yes"/>
      <point x="47" y="138"/>
      <point x="240" y="-29"/>
      <point x="491" y="-29" type="curve" smooth="yes"/>
      <point x="742" y="-29"/>
      <point x="935" y="138"/>
      <point x="935" y="355" type="curve" smooth="yes"/>
      <point x="935" y="572"/>
      <point x="742" y="739"/>
      <point x="491" y="739" type="curve" smooth="yes"/>
      <point x="240" y="739"/>
      <point x="47" y="572"/>
    </contour>
    <contour>
      <point x="302" y="153" type="line"/>
      <point x="500" y="153" type="line"/>
      <point x="500" y="189" type="line"/>
      <point x="480" y="189" type="line" smooth="yes"/>
      <point x="457" y="189"/>
      <point x="429" y="190"/>
      <point x="429" y="194" type="curve" smooth="yes"/>
      <point x="429" y="316" type="line"/>
      <point x="495" y="316" type="line" smooth="yes"/>
      <point x="602" y="316"/>
      <point x="678" y="365"/>
      <point x="678" y="441" type="curve" smooth="yes"/>
      <point x="678" y="514"/>
      <point x="608" y="557"/>
      <point x="499" y="557" type="curve" smooth="yes"/>
      <point x="302" y="557" type="line"/>
      <point x="302" y="522" type="line"/>
      <point x="309" y="522" type="line" smooth="yes"/>
      <point x="341" y="522"/>
      <point x="366" y="518"/>
      <point x="366" y="502" type="curve" smooth="yes"/>
      <point x="366" y="209" type="line" smooth="yes"/>
      <point x="366" y="193"/>
      <point x="341" y="189"/>
      <point x="309" y="189" type="curve" smooth="yes"/>
      <point x="302" y="189" type="line"/>
    </contour>
    <contour>
      <point x="498" y="519" type="line" smooth="yes"/>
      <point x="575" y="519"/>
      <point x="612" y="496"/>
      <point x="612" y="440" type="curve" smooth="yes"/>
      <point x="612" y="384"/>
      <point x="575" y="354"/>
      <point x="495" y="354" type="curve" smooth="yes"/>
      <point x="429" y="354" type="line"/>
      <point x="429" y="519" type="line"/>
    </contour>
    <contour>
      <point x="500" y="338" type="line"/>
      <point x="608" y="152" type="line"/>
      <point x="706" y="152" type="line"/>
      <point x="706" y="188" type="line"/>
      <point x="693" y="188" type="line" smooth="yes"/>
      <point x="674" y="188"/>
      <point x="657" y="191"/>
      <point x="649" y="204" type="curve" smooth="yes"/>
      <point x="559" y="347" type="line"/>
    </contour>
  </outline>
</glyph>
<glyph name="degree" format="1">
  <advance width="498"/>
  <unicode hex="00B0"/>
  <outline>
    <contour>
      <point x="369" y="572" type="curve" smooth="yes"/>
      <point x="369" y="508"/>
      <point x="321" y="465"/>
      <point x="249" y="465" type="curve" smooth="yes"/>
      <point x="177" y="465"/>
      <point x="129" y="508"/>
      <point x="129" y="572" type="curve" smooth="yes"/>
      <point x="129" y="636"/>
      <point x="177" y="679"/>
      <point x="249" y="679" type="curve" smooth="yes"/>
      <point x="321" y="679"/>
      <point x="369" y="636"/>
    </contour>
    <contour>
      <point x="68" y="572" type="curve" smooth="yes"/>
      <point x="68" y="478"/>
      <point x="148" y="415"/>
      <point x="249" y="415" type="curve" smooth="yes"/>
      <point x="349" y="415"/>
      <point x="430" y="478"/>
      <point x="430" y="572" type="curve" smooth="yes"/>
      <point x="430" y="666"/>
      <point x="349" y="729"/>
      <point x="249" y="729" type="curve" smooth="yes"/>
      <point x="148" y="729"/>
      <point x="68" y="666"/>
    </contour>
  </outline>
</glyph>
<glyph name="acute" format="1">
  <advance width="585"/>
  <unicode hex="00B4"/>
  <outline>
    <contour>
      <point x="291" y="707" type="curve" smooth="yes"/>
      <point x="230" y="588" type="line"/>
      <point x="230" y="571" type="line"/>
      <point x="254" y="571" type="line"/>
      <point x="352" y="670" type="line" smooth="yes"/>
      <point x="371" y="689"/>
      <point x="384" y="707"/>
      <point x="384" y="725" type="curve" smooth="yes"/>
      <point x="384" y="743"/>
      <point x="369" y="757"/>
      <point x="346" y="757" type="curve" smooth="yes"/>
      <point x="322" y="757"/>
      <point x="306" y="740"/>
    </contour>
    <contour>
      <point x="256" y="527" type="move" name="_top"/>
    </contour>
  </outline>
</glyph>
<glyph name="paragraph" format="1">
  <advance width="702"/>
  <unicode hex="00B6"/>
  <outline>
    <contour>
      <point x="654" y="710" type="line"/>
      <point x="654" y="670" type="line"/>
      <point x="642" y="670" type="line" smooth="yes"/>
      <point x="584" y="670"/>
      <point x="542" y="663"/>
      <point x="542" y="634" type="curve" smooth="yes"/>
      <point x="542" y="0" type="line"/>
      <point x="489" y="0" type="line"/>
      <point x="489" y="710" type="line"/>
    </contour>
    <contour>
      <point x="354" y="0" type="line"/>
      <point x="300" y="0" type="line"/>
      <point x="300" y="349" type="line"/>
      <point x="294" y="349" type="line" smooth="yes"/>
      <point x="157" y="349"/>
      <point x="71" y="426"/>
      <point x="71" y="535" type="curve" smooth="yes"/>
      <point x="71" y="642"/>
      <point x="155" y="710"/>
      <point x="296" y="710" type="curve" smooth="yes"/>
      <point x="354" y="710" type="line"/>
    </contour>
    <contour>
      <point x="537" y="710" type="line"/>
      <point x="537" y="670" type="line"/>
      <point x="328" y="670" type="line"/>
      <point x="328" y="710" type="line"/>
    </contour>
  </outline>
</glyph>
<glyph name="cedilla" format="1">
  <advance width="701"/>
  <unicode hex="00B8"/>
  <outline>
    <contour>
      <point x="353" y="4" type="line"/>
      <point x="299" y="4" type="line"/>
      <point x="262" y="-92" type="line"/>
      <point x="282" y="-92" type="line" smooth="yes"/>
      <point x="354" y="-92"/>
      <point x="379" y="-114"/>
      <point x="379" y="-147" type="curve" smooth="yes"/>
      <point x="379" y="-180"/>
      <point x="351" y="-198"/>
      <point x="313" y="-198" type="curve" smooth="yes"/>
      <point x="265" y="-198"/>
      <point x="239" y="-175"/>
      <point x="217" y="-154" type="curve"/>
      <point x="186" y="-184" type="line"/>
      <point x="213" y="-215"/>
      <point x="251" y="-236"/>
      <point x="314" y="-236" type="curve" smooth="yes"/>
      <point x="381" y="-236"/>
      <point x="441" y="-206"/>
      <point x="441" y="-146" type="curve" smooth="yes"/>
      <point x="441" y="-88"/>
      <point x="378" y="-55"/>
      <point x="295" y="-59" type="curve"/>
      <point x="281" y="-80"/>
      <point x="301" y="-77"/>
      <point x="303" y="-72" type="curve"/>
    </contour>
    <contour>
      <point x="335" y="34" type="move" name="_bottom"/>
    </contour>
  </outline>
</glyph>
<glyph name="ordmasculine" format="1">
  <advance width="571"/>
  <unicode hex="00BA"/>
  <outline>
    <contour>
      <point x="286" y="315" type="curve" smooth="yes"/>
      <point x="416" y="315"/>
      <point x="510" y="396"/>
      <point x="510" y="518" type="curve" smooth="yes"/>
      <point x="510" y="637"/>
      <point x="416" y="720"/>
      <point x="286" y="720" type="curve" smooth="yes"/>
      <point x="156" y="720"/>
      <point x="62" y="637"/>
      <point x="62" y="518" type="curve" smooth="yes"/>
      <point x="62" y="396"/>
      <point x="156" y="315"/>
    </contour>
    <contour>
      <point x="286" y="356" type="curve" smooth="yes"/>
      <point x="193" y="356"/>
      <point x="130" y="420"/>
      <point x="130" y="518" type="curve" smooth="yes"/>
      <point x="130" y="611"/>
      <point x="193" y="679"/>
      <point x="286" y="679" type="curve" smooth="yes"/>
      <point x="379" y="679"/>
      <point x="442" y="611"/>
      <point x="442" y="518" type="curve" smooth="yes"/>
      <point x="442" y="420"/>
      <point x="379" y="356"/>
    </contour>
  </outline>
</glyph>
<glyph name="AE" format="1">
  <advance width="1115"/>
  <unicode hex="00C6"/>
  <outline>
    <contour>
      <point x="-3" y="0" type="line"/>
      <point x="244" y="0" type="line"/>
      <point x="244" y="40" type="line"/>
      <point x="227" y="40" type="line" smooth="yes"/>
      <point x="182" y="40"/>
      <point x="129" y="47"/>
      <point x="129" y="58" type="curve"/>
      <point x="276" y="256" type="line"/>
      <point x="568" y="256" type="line"/>
      <point x="568" y="51" type="line" smooth="yes"/>
      <point x="568" y="43"/>
      <point x="510" y="40"/>
      <point x="466" y="40" type="curve" smooth="yes"/>
      <point x="455" y="40" type="line"/>
      <point x="455" y="0" type="line"/>
      <point x="1048" y="0" type="line"/>
      <point x="1048" y="204" type="line"/>
      <point x="1004" y="204" type="line"/>
      <point x="993" y="89" type="line" smooth="yes"/>
      <point x="990" y="53"/>
      <point x="948" y="46"/>
      <point x="848" y="46" type="curve" smooth="yes"/>
      <point x="637" y="46" type="line"/>
      <point x="637" y="342" type="line"/>
      <point x="912" y="337" type="line"/>
      <point x="912" y="391" type="line"/>
      <point x="637" y="385" type="line"/>
      <point x="637" y="664" type="line"/>
      <point x="813" y="664" type="line" smooth="yes"/>
      <point x="914" y="664"/>
      <point x="955" y="657"/>
      <point x="959" y="621" type="curve" smooth="yes"/>
      <point x="970" y="532" type="line"/>
      <point x="1014" y="532" type="line"/>
      <point x="1014" y="710" type="line"/>
      <point x="373" y="710" type="line"/>
      <point x="373" y="670" type="line"/>
      <point x="387" y="670" type="line" smooth="yes"/>
      <point x="446" y="670"/>
      <point x="494" y="663"/>
      <point x="496" y="643" type="curve"/>
      <point x="85" y="83" type="line" smooth="yes"/>
      <point x="60" y="49"/>
      <point x="44" y="40"/>
      <point x="3" y="40" type="curve" smooth="yes"/>
      <point x="-3" y="40" type="line"/>
    </contour>
    <contour>
      <point x="303" y="299" type="line"/>
      <point x="568" y="664" type="line"/>
      <point x="568" y="299" type="line"/>
    </contour>
    <contour>
      <point x="735" y="741" type="move" name="top"/>
    </contour>
  </outline>
</glyph>
<glyph name="Eth" format="1">
  <advance width="866"/>
  <unicode hex="00D0"/>
  <outline>
    <contour>
      <point x="53" y="377" type="line"/>
      <point x="508" y="377" type="line"/>
      <point x="508" y="334" type="line"/>
      <point x="53" y="334" type="line"/>
    </contour>
    <component base="D" xOffset="48"/>
  </outline>
</glyph>
<glyph name="multiply" format="1">
  <advance width="654"/>
  <unicode hex="00D7"/>
  <outline>
    <contour>
      <point x="149" y="529" type="line"/>
      <point x="112" y="492" type="line"/>
      <point x="507" y="152" type="line"/>
      <point x="544" y="189" type="line"/>
    </contour>
    <contour>
      <point x="506" y="529" type="line"/>
      <point x="111" y="189" type="line"/>
      <point x="148" y="152" type="line"/>
      <point x="543" y="492" type="line"/>
    </contour>
  </outline>
</glyph>
<glyph name="Oslash" format="1">
  <advance width="893"/>
  <unicode hex="00D8"/>
  <outline>
    <contour>
      <point x="805" y="723" type="line"/>
      <point x="8" y="-13" type="line"/>
      <point x="73" y="-13" type="line"/>
      <point x="871" y="723" type="line"/>
    </contour>
    <contour>
      <point x="447" y="-10" type="curve" smooth="yes"/>
      <point x="668" y="-10"/>
      <point x="838" y="139"/>
      <point x="838" y="355" type="curve" smooth="yes"/>
      <point x="838" y="572"/>
      <point x="668" y="720"/>
      <point x="447" y="720" type="curve" smooth="yes"/>
      <point x="225" y="720"/>
      <point x="55" y="572"/>
      <point x="55" y="355" type="curve" smooth="yes"/>
      <point x="55" y="139"/>
      <point x="225" y="-10"/>
    </contour>
    <contour>
      <point x="447" y="37" type="curve" smooth="yes"/>
      <point x="250" y="37"/>
      <point x="130" y="145"/>
      <point x="130" y="355" type="curve" smooth="yes"/>
      <point x="130" y="550"/>
      <point x="261" y="674"/>
      <point x="447" y="674" type="curve" smooth="yes"/>
      <point x="643" y="674"/>
      <point x="763" y="566"/>
      <point x="763" y="355" type="curve" smooth="yes"/>
      <point x="763" y="160"/>
      <point x="631" y="37"/>
    </contour>
    <contour>
      <point x="441" y="731" type="move" name="top"/>
    </contour>
  </outline>
</glyph>
<glyph name="Thorn" format="1">
  <advance width="713"/>
  <unicode hex="00DE"/>
  <outline>
    <contour>
      <point x="356" y="710" type="line"/>
      <point x="53" y="710" type="line"/>
      <point x="53" y="670" type="line"/>
      <point x="66" y="670" type="line" smooth="yes"/>
      <point x="123" y="670"/>
      <point x="165" y="663"/>
      <point x="165" y="634" type="curve" smooth="yes"/>
      <point x="165" y="76" type="line" smooth="yes"/>
      <point x="165" y="47"/>
      <point x="123" y="40"/>
      <point x="66" y="40" type="curve" smooth="yes"/>
      <point x="53" y="40" type="line"/>
      <point x="53" y="0" type="line"/>
      <point x="356" y="0" type="line"/>
      <point x="356" y="40" type="line"/>
      <point x="325" y="40" type="line" smooth="yes"/>
      <point x="285" y="40"/>
      <point x="235" y="43"/>
      <point x="235" y="50" type="curve" smooth="yes"/>
      <point x="235" y="660" type="line" smooth="yes"/>
      <point x="235" y="667"/>
      <point x="285" y="670"/>
      <point x="325" y="670" type="curve" smooth="yes"/>
      <point x="356" y="670" type="line"/>
    </contour>
    <contour>
      <point x="198" y="157" type="line"/>
      <point x="375" y="157" type="line" smooth="yes"/>
      <point x="569" y="157"/>
      <point x="667" y="240"/>
      <point x="667" y="362" type="curve" smooth="yes"/>
      <point x="667" y="484"/>
      <point x="574" y="561"/>
      <point x="381" y="561" type="curve" smooth="yes"/>
      <point x="205" y="561" type="line"/>
      <point x="198" y="515" type="line"/>
      <point x="380" y="515" type="line" smooth="yes"/>
      <point x="530" y="515"/>
      <point x="592" y="459"/>
      <point x="592" y="362" type="curve" smooth="yes"/>
      <point x="592" y="265"/>
      <point x="531" y="202"/>
      <point x="375" y="202" type="curve" smooth="yes"/>
      <point x="198" y="202" type="line"/>
    </contour>
  </outline>
</glyph>
<glyph name="germandbls" format="1">
  <advance width="684"/>
  <unicode hex="00DF"/>
  <outline>
    <contour>
      <point x="42" y="508" type="line"/>
      <point x="42" y="464" type="line"/>
      <point x="205" y="464" type="line"/>
      <point x="205" y="508" type="line"/>
    </contour>
    <contour>
      <point x="48" y="0" type="line"/>
      <point x="232" y="0" type="line"/>
      <point x="232" y="579" type="line" smooth="yes"/>
      <point x="232" y="679"/>
      <point x="288" y="708"/>
      <point x="370" y="708" type="curve" smooth="yes"/>
      <point x="452" y="708"/>
      <point x="499" y="668"/>
      <point x="499" y="599" type="curve" smooth="yes"/>
      <point x="499" y="507"/>
      <point x="409" y="454"/>
      <point x="306" y="443" type="curve"/>
      <point x="306" y="401" type="line"/>
      <point x="309" y="401" type="line" smooth="yes"/>
      <point x="453" y="401"/>
      <point x="565" y="313"/>
      <point x="565" y="188" type="curve" smooth="yes"/>
      <point x="565" y="87"/>
      <point x="510" y="35"/>
      <point x="415" y="35" type="curve" smooth="yes"/>
      <point x="359" y="35"/>
      <point x="308" y="57"/>
      <point x="302" y="58" type="curve"/>
      <point x="302" y="11" type="line"/>
      <point x="321" y="2"/>
      <point x="368" y="-10"/>
      <point x="418" y="-10" type="curve" smooth="yes"/>
      <point x="546" y="-10"/>
      <point x="637" y="59"/>
      <point x="637" y="188" type="curve" smooth="yes"/>
      <point x="637" y="316"/>
      <point x="526" y="409"/>
      <point x="359" y="431" type="curve"/>
      <point x="330" y="418" type="line"/>
      <point x="450" y="428"/>
      <point x="565" y="507"/>
      <point x="565" y="606" type="curve" smooth="yes"/>
      <point x="565" y="691"/>
      <point x="490" y="752"/>
      <point x="370" y="752" type="curve" smooth="yes"/>
      <point x="263" y="752"/>
      <point x="164" y="706"/>
      <point x="164" y="578" type="curve" smooth="yes"/>
      <point x="164" y="73" type="line" smooth="yes"/>
      <point x="164" y="45"/>
      <point x="125" y="38"/>
      <point x="61" y="38" type="curve" smooth="yes"/>
      <point x="48" y="38" type="line"/>
    </contour>
  </outline>
</glyph>
<glyph name="ae" format="1">
  <advance width="983"/>
  <unicode hex="00E6"/>
  <outline>
    <contour>
      <point x="469" y="291" type="line"/>
      <point x="199" y="275"/>
      <point x="64" y="231"/>
      <point x="64" y="122" type="curve" smooth="yes"/>
      <point x="64" y="40"/>
      <point x="140" y="-10"/>
      <point x="250" y="-10" type="curve" smooth="yes"/>
      <point x="363" y="-10"/>
      <point x="447" y="51"/>
      <point x="492" y="143" type="curve"/>
      <point x="516" y="175"/>
      <point x="471" y="178"/>
      <point x="463" y="179" type="curve"/>
      <point x="425" y="94"/>
      <point x="354" y="36"/>
      <point x="259" y="36" type="curve" smooth="yes"/>
      <point x="179" y="36"/>
      <point x="135" y="69"/>
      <point x="135" y="123" type="curve" smooth="yes"/>
      <point x="135" y="204"/>
      <point x="236" y="236"/>
      <point x="468" y="250" type="curve"/>
    </contour>
    <contour>
      <point x="710" y="-10" type="curve" smooth="yes"/>
      <point x="821" y="-10"/>
      <point x="889" y="38"/>
      <point x="934" y="105" type="curve"/>
      <point x="895" y="138" type="line"/>
      <point x="861" y="90"/>
      <point x="809" y="35"/>
      <point x="711" y="35" type="curve" smooth="yes"/>
      <point x="593" y="35"/>
      <point x="505" y="114"/>
      <point x="505" y="250" type="curve" smooth="yes"/>
      <point x="505" y="388"/>
      <point x="586" y="474"/>
      <point x="697" y="474" type="curve" smooth="yes"/>
      <point x="808" y="474"/>
      <point x="859" y="406"/>
      <point x="863" y="265" type="curve"/>
      <point x="887" y="290" type="line"/>
      <point x="470" y="290" type="line"/>
      <point x="471" y="246" type="line"/>
      <point x="935" y="246" type="line"/>
      <point x="934" y="426"/>
      <point x="853" y="519"/>
      <point x="699" y="519" type="curve" smooth="yes"/>
      <point x="577" y="519"/>
      <point x="502" y="451"/>
      <point x="463" y="340" type="curve"/>
      <point x="449" y="327"/>
      <point x="435" y="293"/>
      <point x="435" y="253" type="curve" smooth="yes"/>
      <point x="435" y="92"/>
      <point x="556" y="-10"/>
    </contour>
    <contour>
      <point x="298" y="518" type="curve" smooth="yes"/>
      <point x="199" y="518"/>
      <point x="132" y="484"/>
      <point x="98" y="460" type="curve"/>
      <point x="98" y="369" type="line"/>
      <point x="171" y="369" type="line"/>
      <point x="171" y="462" type="line"/>
      <point x="143" y="456"/>
      <point x="128" y="432"/>
      <point x="132" y="409" type="curve"/>
      <point x="161" y="444"/>
      <point x="212" y="474"/>
      <point x="296" y="474" type="curve" smooth="yes"/>
      <point x="387" y="474"/>
      <point x="435" y="443"/>
      <point x="435" y="351" type="curve"/>
      <point x="435" y="272" type="line"/>
      <point x="494" y="353" type="line"/>
      <point x="494" y="474"/>
      <point x="412" y="518"/>
    </contour>
    <contour>
      <point x="494" y="555" type="move" name="top"/>
    </contour>
  </outline>
</glyph>
<glyph name="eth" format="1">
  <advance width="661"/>
  <unicode hex="00F0"/>
  <outline>
    <contour>
      <point x="540" y="405" type="curve"/>
      <point x="506" y="479"/>
      <point x="418" y="518"/>
      <point x="334" y="518" type="curve" smooth="yes"/>
      <point x="172" y="518"/>
      <point x="53" y="413"/>
      <point x="53" y="256" type="curve" smooth="yes"/>
      <point x="53" y="99"/>
      <point x="169" y="-10"/>
      <point x="332" y="-10" type="curve" smooth="yes"/>
      <point x="499" y="-10"/>
      <point x="608" y="109"/>
      <point x="608" y="293" type="curve" smooth="yes"/>
      <point x="608" y="484"/>
      <point x="500" y="664"/>
      <point x="204" y="755" type="curve"/>
      <point x="180" y="722" type="line"/>
      <point x="440" y="636"/>
      <point x="537" y="487"/>
      <point x="537" y="293" type="curve" smooth="yes"/>
      <point x="537" y="132"/>
      <point x="465" y="35"/>
      <point x="332" y="35" type="curve" smooth="yes"/>
      <point x="203" y="35"/>
      <point x="125" y="123"/>
      <point x="125" y="256" type="curve" smooth="yes"/>
      <point x="125" y="387"/>
      <point x="214" y="473"/>
      <point x="338" y="473" type="curve" smooth="yes"/>
      <point x="431" y="473"/>
      <point x="496" y="431"/>
      <point x="560" y="350" type="curve"/>
      <point x="575" y="379"/>
      <point x="570" y="395"/>
    </contour>
    <contour>
      <point x="126" y="584" type="line"/>
      <point x="144" y="546" type="line"/>
      <point x="532" y="704" type="line"/>
      <point x="515" y="742" type="line"/>
    </contour>
  </outline>
</glyph>
<glyph name="divide" format="1">
  <advance width="654"/>
  <unicode hex="00F7"/>
  <outline>
    <contour>
      <point x="386" y="174" type="curve" smooth="yes"/>
      <point x="386" y="205"/>
      <point x="361" y="226"/>
      <point x="327" y="226" type="curve" smooth="yes"/>
      <point x="293" y="226"/>
      <point x="269" y="205"/>
      <point x="269" y="174" type="curve" smooth="yes"/>
      <point x="269" y="143"/>
      <point x="293" y="122"/>
      <point x="327" y="122" type="curve" smooth="yes"/>
      <point x="361" y="122"/>
      <point x="386" y="143"/>
    </contour>
    <contour>
      <point x="386" y="509" type="curve" smooth="yes"/>
      <point x="386" y="541"/>
      <point x="361" y="562"/>
      <point x="327" y="562" type="curve" smooth="yes"/>
      <point x="293" y="562"/>
      <point x="269" y="541"/>
      <point x="269" y="509" type="curve" smooth="yes"/>
      <point x="269" y="478"/>
      <point x="293" y="457"/>
      <point x="327" y="457" type="curve" smooth="yes"/>
      <point x="361" y="457"/>
      <point x="386" y="478"/>
    </contour>
    <component base="minus" xOffset="38"/>
  </outline>
</glyph>
<glyph name="oslash" format="1">
  <advance width="678"/>
  <unicode hex="00F8"/>
  <outline>
    <contour>
      <point x="606" y="521" type="line"/>
      <point x="-4" y="-14" type="line"/>
      <point x="65" y="-14" type="line"/>
      <point x="674" y="521" type="line"/>
    </contour>
    <contour>
      <point x="341" y="-10" type="curve"/>
      <point x="508" y="-10"/>
      <point x="628" y="97"/>
      <point x="628" y="254" type="curve" smooth="yes"/>
      <point x="628" y="410"/>
      <point x="508" y="518"/>
      <point x="341" y="518" type="curve" smooth="yes"/>
      <point x="174" y="518"/>
      <point x="54" y="411"/>
      <point x="54" y="254" type="curve" smooth="yes"/>
      <point x="54" y="97"/>
      <point x="174" y="-10"/>
    </contour>
    <contour>
      <point x="341" y="35" type="curve"/>
      <point x="204" y="35"/>
      <point x="126" y="112"/>
      <point x="126" y="254" type="curve" smooth="yes"/>
      <point x="126" y="386"/>
      <point x="208" y="473"/>
      <point x="341" y="473" type="curve" smooth="yes"/>
      <point x="479" y="473"/>
      <point x="557" y="395"/>
      <point x="557" y="254" type="curve" smooth="yes"/>
      <point x="557" y="120"/>
      <point x="475" y="35"/>
    </contour>
    <contour>
      <point x="339" y="551" type="move" name="top"/>
    </contour>
  </outline>
</glyph>
<glyph name="thorn" format="1">
  <advance width="727"/>
  <unicode hex="00FE"/>
  <outline>
    <contour>
      <point x="36" y="-223" type="line"/>
      <point x="321" y="-223" type="line"/>
      <point x="321" y="-186" type="line"/>
      <point x="287" y="-186" type="line" smooth="yes"/>
      <point x="257" y="-186"/>
      <point x="203" y="-183"/>
      <point x="203" y="-176" type="curve"/>
      <point x="203" y="735" type="line"/>
      <point x="36" y="735" type="line"/>
      <point x="36" y="698" type="line"/>
      <point x="48" y="696" type="line" smooth="yes"/>
      <point x="106" y="687"/>
      <point x="134" y="681"/>
      <point x="134" y="652" type="curve" smooth="yes"/>
      <point x="134" y="-150" type="line" smooth="yes"/>
      <point x="134" y="-179"/>
      <point x="94" y="-186"/>
      <point x="38" y="-186" type="curve"/>
      <point x="36" y="-186" type="line"/>
    </contour>
    <contour>
      <point x="602" y="257" type="curve" smooth="yes"/>
      <point x="602" y="125"/>
      <point x="535" y="36"/>
      <point x="407" y="36" type="curve" smooth="yes"/>
      <point x="310" y="36"/>
      <point x="239" y="93"/>
      <point x="187" y="190" type="curve"/>
      <point x="156" y="168" type="line"/>
      <point x="224" y="49"/>
      <point x="291" y="-10"/>
      <point x="410" y="-10" type="curve" smooth="yes"/>
      <point x="569" y="-10"/>
      <point x="674" y="99"/>
      <point x="674" y="257" type="curve" smooth="yes"/>
      <point x="674" y="414"/>
      <point x="574" y="518"/>
      <point x="419" y="518" type="curve" smooth="yes"/>
      <point x="295" y="518"/>
      <point x="227" y="453"/>
      <point x="150" y="335" type="curve"/>
      <point x="179" y="309" type="line"/>
      <point x="239" y="410"/>
      <point x="311" y="473"/>
      <point x="412" y="473" type="curve" smooth="yes"/>
      <point x="536" y="473"/>
      <point x="602" y="390"/>
    </contour>
  </outline>
</glyph>
<glyph name="Aogonek" format="1">
  <advance width="802"/>
  <unicode hex="0104"/>
  <outline>
    <contour>
      <point x="215" y="300" type="line"/>
      <point x="208" y="255" type="line"/>
      <point x="575" y="255" type="line"/>
      <point x="573" y="300" type="line"/>
    </contour>
    <contour>
      <point x="11" y="0" type="line"/>
      <point x="259" y="0" type="line"/>
      <point x="259" y="40" type="line"/>
      <point x="241" y="40" type="line" smooth="yes"/>
      <point x="197" y="40"/>
      <point x="144" y="47"/>
      <point x="144" y="58" type="curve"/>
      <point x="409" y="710" type="line"/>
      <point x="356" y="710" type="line"/>
      <point x="99" y="83" type="line" smooth="yes"/>
      <point x="83" y="46"/>
      <point x="60" y="40"/>
      <point x="17" y="40" type="curve"/>
      <point x="11" y="40" type="line"/>
    </contour>
    <contour>
      <point x="672" y="36" type="curve"/>
      <point x="565" y="-18"/>
      <point x="493" y="-72"/>
      <point x="493" y="-143" type="curve" smooth="yes"/>
      <point x="493" y="-200"/>
      <point x="543" y="-235"/>
      <point x="609" y="-235" type="curve" smooth="yes"/>
      <point x="664" y="-235"/>
      <point x="699" y="-214"/>
      <point x="730" y="-185" type="curve"/>
      <point x="703" y="-157" type="line"/>
      <point x="681" y="-174"/>
      <point x="658" y="-192"/>
      <point x="623" y="-192" type="curve" smooth="yes"/>
      <point x="589" y="-192"/>
      <point x="561" y="-174"/>
      <point x="561" y="-137" type="curve" smooth="yes"/>
      <point x="561" y="-89"/>
      <point x="594" y="-45"/>
      <point x="690" y="5" type="curve"/>
      <point x="682" y="13"/>
      <point x="676" y="26"/>
    </contour>
    <contour>
      <point x="662" y="0" type="line"/>
      <point x="791" y="0" type="line"/>
      <point x="791" y="40" type="line"/>
      <point x="785" y="40" type="line"/>
      <point x="745" y="40"/>
      <point x="719" y="42"/>
      <point x="709" y="68" type="curve" smooth="yes"/>
      <point x="442" y="710" type="line"/>
      <point x="381" y="710" type="line"/>
      <point x="381" y="687" type="line"/>
    </contour>
  </outline>
</glyph>
<glyph name="dcroat" format="1">
  <advance width="714"/>
  <unicode hex="0111"/>
  <outline>
    <contour>
      <point x="125" y="250" type="curve" smooth="yes"/>
      <point x="125" y="384"/>
      <point x="196" y="473"/>
      <point x="324" y="473" type="curve" smooth="yes"/>
      <point x="420" y="473"/>
      <point x="490" y="418"/>
      <point x="539" y="318" type="curve"/>
      <point x="571" y="340" type="line"/>
      <point x="505" y="460"/>
      <point x="439" y="518"/>
      <point x="320" y="518" type="curve" smooth="yes"/>
      <point x="161" y="518"/>
      <point x="53" y="409"/>
      <point x="53" y="250" type="curve" smooth="yes"/>
      <point x="53" y="94"/>
      <point x="153" y="-10"/>
      <point x="308" y="-10" type="curve" smooth="yes"/>
      <point x="432" y="-10"/>
      <point x="500" y="55"/>
      <point x="576" y="174" type="curve"/>
      <point x="548" y="199" type="line"/>
      <point x="488" y="98"/>
      <point x="416" y="36"/>
      <point x="315" y="36" type="curve" smooth="yes"/>
      <point x="190" y="36"/>
      <point x="125" y="118"/>
    </contour>
    <contour>
      <point x="525" y="735" type="line"/>
      <point x="525" y="126" type="line"/>
      <point x="529" y="122" type="line"/>
      <point x="529" y="0" type="line"/>
      <point x="691" y="0" type="line"/>
      <point x="691" y="38" type="line"/>
      <point x="690" y="38" type="line"/>
      <point x="634" y="38"/>
      <point x="593" y="45"/>
      <point x="593" y="73" type="curve" smooth="yes"/>
      <point x="593" y="735" type="line"/>
    </contour>
    <contour>
      <point x="710" y="633" type="line"/>
      <point x="290" y="633" type="line"/>
      <point x="290" y="591" type="line"/>
      <point x="710" y="591" type="line"/>
    </contour>
  </outline>
</glyph>
<glyph name="eogonek" format="1">
  <advance width="615"/>
  <unicode hex="0119"/>
  <outline>
    <contour>
      <point x="434" y="28" type="line"/>
      <point x="333" y="-22"/>
      <point x="249" y="-73"/>
      <point x="249" y="-143" type="curve" smooth="yes"/>
      <point x="249" y="-200"/>
      <point x="300" y="-235"/>
      <point x="365" y="-235" type="curve" smooth="yes"/>
      <point x="419" y="-235"/>
      <point x="456" y="-214"/>
      <point x="487" y="-185" type="curve"/>
      <point x="459" y="-157" type="line"/>
      <point x="438" y="-174"/>
      <point x="414" y="-192"/>
      <point x="379" y="-192" type="curve" smooth="yes"/>
      <point x="345" y="-192"/>
      <point x="317" y="-174"/>
      <point x="317" y="-137" type="curve" smooth="yes"/>
      <point x="317" y="-74"/>
      <point x="395" y="-33"/>
      <point x="487" y="28" type="curve" smooth="yes"/>
      <point x="526" y="53"/>
      <point x="545" y="76"/>
      <point x="563" y="104" type="curve"/>
      <point x="525" y="137" type="line"/>
      <point x="492" y="88"/>
      <point x="437" y="34"/>
      <point x="336" y="34" type="curve" smooth="yes"/>
      <point x="215" y="34"/>
      <point x="123" y="113"/>
      <point x="123" y="250" type="curve" smooth="yes"/>
      <point x="123" y="388"/>
      <point x="208" y="473"/>
      <point x="320" y="473" type="curve" smooth="yes"/>
      <point x="436" y="473"/>
      <point x="489" y="406"/>
      <point x="494" y="265" type="curve"/>
      <point x="517" y="285" type="line"/>
      <point x="95" y="285" type="line"/>
      <point x="97" y="240" type="line"/>
      <point x="566" y="240" type="line"/>
      <point x="564" y="423"/>
      <point x="481" y="518"/>
      <point x="320" y="518" type="curve" smooth="yes"/>
      <point x="168" y="518"/>
      <point x="53" y="409"/>
      <point x="53" y="252" type="curve" smooth="yes"/>
      <point x="53" y="91"/>
      <point x="176" y="-11"/>
      <point x="335" y="-11" type="curve" smooth="yes"/>
      <point x="372" y="-11"/>
      <point x="405" y="-6"/>
      <point x="433" y="4" type="curve"/>
    </contour>
  </outline>
</glyph>
<glyph name="Hbar" format="1">
  <advance width="960"/>
  <unicode hex="0126"/>
  <outline>
    <contour>
      <point x="53" y="547" type="line"/>
      <point x="53" y="504" type="line"/>
      <point x="881" y="504" type="line"/>
      <point x="881" y="547" type="line"/>
    </contour>
    <contour>
      <point x="214" y="389" type="line"/>
      <point x="214" y="343" type="line"/>
      <point x="734" y="343" type="line"/>
      <point x="734" y="389" type="line"/>
    </contour>
    <contour>
      <point x="53" y="0" type="line"/>
      <point x="347" y="0" type="line"/>
      <point x="347" y="40" type="line"/>
      <point x="336" y="40" type="line" smooth="yes"/>
      <point x="292" y="40"/>
      <point x="235" y="43"/>
      <point x="235" y="50" type="curve" smooth="yes"/>
      <point x="235" y="660" type="line" smooth="yes"/>
      <point x="235" y="667"/>
      <point x="292" y="670"/>
      <point x="336" y="670" type="curve" smooth="yes"/>
      <point x="347" y="670" type="line"/>
      <point x="347" y="710" type="line"/>
      <point x="53" y="710" type="line"/>
      <point x="53" y="670" type="line"/>
      <point x="66" y="670" type="line" smooth="yes"/>
      <point x="123" y="670"/>
      <point x="165" y="663"/>
      <point x="165" y="634" type="curve" smooth="yes"/>
      <point x="165" y="76" type="line" smooth="yes"/>
      <point x="165" y="47"/>
      <point x="123" y="40"/>
      <point x="66" y="40" type="curve" smooth="yes"/>
      <point x="53" y="40" type="line"/>
    </contour>
    <contour>
      <point x="587" y="0" type="line"/>
      <point x="881" y="0" type="line"/>
      <point x="881" y="40" type="line"/>
      <point x="868" y="40" type="line" smooth="yes"/>
      <point x="811" y="40"/>
      <point x="769" y="47"/>
      <point x="769" y="76" type="curve" smooth="yes"/>
      <point x="769" y="634" type="line" smooth="yes"/>
      <point x="769" y="663"/>
      <point x="811" y="670"/>
      <point x="868" y="670" type="curve" smooth="yes"/>
      <point x="881" y="670" type="line"/>
      <point x="881" y="710" type="line"/>
      <point x="587" y="710" type="line"/>
      <point x="587" y="670" type="line"/>
      <point x="597" y="670" type="line" smooth="yes"/>
      <point x="642" y="670"/>
      <point x="699" y="667"/>
      <point x="699" y="660" type="curve" smooth="yes"/>
      <point x="699" y="50" type="line" smooth="yes"/>
      <point x="699" y="43"/>
      <point x="642" y="40"/>
      <point x="597" y="40" type="curve" smooth="yes"/>
      <point x="587" y="40" type="line"/>
    </contour>
  </outline>
</glyph>
<glyph name="hbar" format="1">
  <advance width="721"/>
  <unicode hex="0127"/>
  <outline>
    <contour>
      <point x="690" y="0" type="line"/>
      <point x="690" y="38" type="line"/>
      <point x="688" y="38" type="line" smooth="yes"/>
      <point x="633" y="38"/>
      <point x="593" y="45"/>
      <point x="593" y="73" type="curve" smooth="yes"/>
      <point x="593" y="357" type="line" smooth="yes"/>
      <point x="593" y="468"/>
      <point x="524" y="518"/>
      <point x="414" y="518" type="curve" smooth="yes"/>
      <point x="306" y="518"/>
      <point x="236" y="465"/>
      <point x="159" y="357" type="curve"/>
      <point x="179" y="327" type="line"/>
      <point x="240" y="417"/>
      <point x="311" y="468"/>
      <point x="403" y="468" type="curve" smooth="yes"/>
      <point x="493" y="468"/>
      <point x="525" y="430"/>
      <point x="525" y="346" type="curve" smooth="yes"/>
      <point x="525" y="47" type="line" smooth="yes"/>
      <point x="525" y="41"/>
      <point x="472" y="38"/>
      <point x="439" y="38" type="curve" smooth="yes"/>
      <point x="437" y="38" type="line"/>
      <point x="437" y="0" type="line"/>
    </contour>
    <contour>
      <point x="141" y="735" type="line"/>
      <point x="141" y="73" type="line" smooth="yes"/>
      <point x="141" y="45"/>
      <point x="101" y="38"/>
      <point x="45" y="38" type="curve" smooth="yes"/>
      <point x="42" y="38" type="line"/>
      <point x="42" y="0" type="line"/>
      <point x="297" y="0" type="line"/>
      <point x="297" y="38" type="line"/>
      <point x="293" y="38" type="line" smooth="yes"/>
      <point x="261" y="38"/>
      <point x="209" y="41"/>
      <point x="209" y="47" type="curve"/>
      <point x="209" y="735" type="line"/>
    </contour>
    <contour>
      <point x="455" y="633" type="line"/>
      <point x="24" y="633" type="line"/>
      <point x="24" y="591" type="line"/>
      <point x="455" y="591" type="line"/>
    </contour>
  </outline>
</glyph>
<glyph name="dotlessi" format="1">
  <advance width="343"/>
  <unicode hex="0131"/>
  <outline>
    <contour>
      <point x="209" y="508" type="line"/>
      <point x="42" y="508" type="line"/>
      <point x="42" y="472" type="line"/>
      <point x="55" y="470" type="line" smooth="yes"/>
      <point x="114" y="460"/>
      <point x="141" y="454"/>
      <point x="141" y="425" type="curve" smooth="yes"/>
      <point x="141" y="73" type="line" smooth="yes"/>
      <point x="141" y="45"/>
      <point x="101" y="38"/>
      <point x="45" y="38" type="curve" smooth="yes"/>
      <point x="43" y="38" type="line"/>
      <point x="43" y="0" type="line"/>
      <point x="307" y="0" type="line"/>
      <point x="307" y="38" type="line"/>
      <point x="305" y="38" type="line" smooth="yes"/>
      <point x="249" y="38"/>
      <point x="209" y="45"/>
      <point x="209" y="73" type="curve" smooth="yes"/>
    </contour>
    <contour>
      <point x="176" y="529" type="move" name="top"/>
    </contour>
  </outline>
</glyph>
<glyph name="Ldot" format="1">
  <advance width="697"/>
  <unicode hex="013F"/>
  <outline>
    <contour>
      <point x="351" y="710" type="line"/>
      <point x="351" y="670" type="line"/>
      <point x="339" y="670" type="line" smooth="yes"/>
      <point x="278" y="670"/>
      <point x="235" y="663"/>
      <point x="235" y="634" type="curve" smooth="yes"/>
      <point x="235" y="46" type="line"/>
      <point x="436" y="46" type="line" smooth="yes"/>
      <point x="537" y="46"/>
      <point x="578" y="53"/>
      <point x="581" y="89" type="curve" smooth="yes"/>
      <point x="593" y="210" type="line"/>
      <point x="638" y="210" type="line"/>
      <point x="638" y="0" type="line"/>
      <point x="53" y="0" type="line"/>
      <point x="53" y="40" type="line"/>
      <point x="66" y="40" type="line" smooth="yes"/>
      <point x="123" y="40"/>
      <point x="165" y="47"/>
      <point x="165" y="76" type="curve" smooth="yes"/>
      <point x="165" y="634" type="line" smooth="yes"/>
      <point x="165" y="663"/>
      <point x="123" y="670"/>
      <point x="66" y="670" type="curve" smooth="yes"/>
      <point x="53" y="670" type="line"/>
      <point x="53" y="710" type="line"/>
    </contour>
    <component base="periodcentered" xOffset="425" yOffset="52"/>
  </outline>
</glyph>
<glyph name="Lslash" format="1">
  <advance width="697"/>
  <unicode hex="0141"/>
  <outline>
    <contour>
      <point x="53" y="207" type="line"/>
      <point x="53" y="264" type="line"/>
      <point x="486" y="523" type="line"/>
      <point x="486" y="467" type="line"/>
    </contour>
    <component base="L" xOffset="41"/>
  </outline>
</glyph>
<glyph name="lslash" format="1">
  <advance width="342"/>
  <unicode hex="0142"/>
  <outline>
    <contour>
      <point x="33" y="207" type="line"/>
      <point x="326" y="466" type="line"/>
      <point x="326" y="526" type="line"/>
      <point x="33" y="268" type="line"/>
    </contour>
    <component base="l" xOffset="27"/>
  </outline>
</glyph>
<glyph name="Eng" format="1">
  <advance width="904"/>
  <unicode hex="014A"/>
  <outline>
    <contour>
      <point x="689" y="25" type="line"/>
      <point x="689" y="-17" type="line" smooth="yes"/>
      <point x="689" y="-125"/>
      <point x="627" y="-163"/>
      <point x="540" y="-163" type="curve" smooth="yes"/>
      <point x="488" y="-163"/>
      <point x="447" y="-153"/>
      <point x="417" y="-144" type="curve"/>
      <point x="417" y="-195" type="line"/>
      <point x="442" y="-204"/>
      <point x="488" y="-212"/>
      <point x="542" y="-212" type="curve" smooth="yes"/>
      <point x="647" y="-212"/>
      <point x="742" y="-159"/>
      <point x="742" y="-17" type="curve" smooth="yes"/>
      <point x="742" y="629" type="line" smooth="yes"/>
      <point x="742" y="659"/>
      <point x="784" y="670"/>
      <point x="841" y="670" type="curve" smooth="yes"/>
      <point x="855" y="670" type="line"/>
      <point x="855" y="710" type="line"/>
      <point x="565" y="710" type="line"/>
      <point x="565" y="670" type="line"/>
      <point x="581" y="670" type="line" smooth="yes"/>
      <point x="632" y="670"/>
      <point x="689" y="662"/>
      <point x="689" y="655" type="curve" smooth="yes"/>
      <point x="689" y="62" type="line"/>
      <point x="710" y="82" type="line"/>
      <point x="263" y="710" type="line"/>
      <point x="53" y="710" type="line"/>
      <point x="53" y="670" type="line"/>
      <point x="66" y="670" type="line" smooth="yes"/>
      <point x="123" y="670"/>
      <point x="165" y="663"/>
      <point x="165" y="634" type="curve" smooth="yes"/>
      <point x="165" y="81" type="line" smooth="yes"/>
      <point x="165" y="52"/>
      <point x="123" y="40"/>
      <point x="66" y="40" type="curve" smooth="yes"/>
      <point x="53" y="40" type="line"/>
      <point x="53" y="0" type="line"/>
      <point x="343" y="0" type="line"/>
      <point x="343" y="40" type="line"/>
      <point x="326" y="40" type="line" smooth="yes"/>
      <point x="276" y="40"/>
      <point x="219" y="48"/>
      <point x="219" y="55" type="curve" smooth="yes"/>
      <point x="219" y="690" type="line"/>
      <point x="202" y="686" type="line"/>
      <point x="716" y="-60" type="line"/>
    </contour>
  </outline>
</glyph>
<glyph name="eng" format="1">
  <advance width="694"/>
  <unicode hex="014B"/>
  <outline>
    <contour>
      <point x="42" y="0" type="line"/>
      <point x="296" y="0" type="line"/>
      <point x="296" y="38" type="line"/>
      <point x="293" y="38" type="line" smooth="yes"/>
      <point x="260" y="38"/>
      <point x="209" y="41"/>
      <point x="209" y="47" type="curve" smooth="yes"/>
      <point x="209" y="395" type="line"/>
      <point x="205" y="396" type="line"/>
      <point x="205" y="508" type="line"/>
      <point x="42" y="508" type="line"/>
      <point x="42" y="472" type="line"/>
      <point x="54" y="470" type="line" smooth="yes"/>
      <point x="112" y="460"/>
      <point x="141" y="454"/>
      <point x="141" y="425" type="curve" smooth="yes"/>
      <point x="141" y="73" type="line" smooth="yes"/>
      <point x="141" y="45"/>
      <point x="101" y="38"/>
      <point x="45" y="38" type="curve" smooth="yes"/>
      <point x="42" y="38" type="line"/>
    </contour>
    <contour>
      <point x="592" y="357" type="line" smooth="yes"/>
      <point x="592" y="468"/>
      <point x="524" y="518"/>
      <point x="414" y="518" type="curve" smooth="yes"/>
      <point x="306" y="518"/>
      <point x="236" y="465"/>
      <point x="159" y="356" type="curve"/>
      <point x="179" y="327" type="line"/>
      <point x="240" y="417"/>
      <point x="311" y="468"/>
      <point x="403" y="468" type="curve" smooth="yes"/>
      <point x="493" y="468"/>
      <point x="524" y="430"/>
      <point x="524" y="346" type="curve"/>
      <point x="524" y="-59" type="line" smooth="yes"/>
      <point x="524" y="-157"/>
      <point x="477" y="-188"/>
      <point x="404" y="-188" type="curve" smooth="yes"/>
      <point x="364" y="-188"/>
      <point x="334" y="-181"/>
      <point x="307" y="-173" type="curve"/>
      <point x="307" y="-223" type="line"/>
      <point x="329" y="-231"/>
      <point x="363" y="-236"/>
      <point x="405" y="-236" type="curve" smooth="yes"/>
      <point x="497" y="-236"/>
      <point x="592" y="-199"/>
      <point x="592" y="-58" type="curve" smooth="yes"/>
    </contour>
  </outline>
</glyph>
<glyph name="OE" format="1">
  <advance width="1166"/>
  <unicode hex="0152"/>
  <outline>
    <contour>
      <point x="621" y="45" type="line"/>
      <point x="493" y="45" type="line" smooth="yes"/>
      <point x="262" y="45"/>
      <point x="130" y="157"/>
      <point x="130" y="353" type="curve" smooth="yes"/>
      <point x="130" y="550"/>
      <point x="262" y="665"/>
      <point x="493" y="665" type="curve" smooth="yes"/>
      <point x="621" y="665" type="line"/>
    </contour>
    <contour>
      <point x="1100" y="0" type="line"/>
      <point x="1100" y="204" type="line"/>
      <point x="1055" y="204" type="line"/>
      <point x="1044" y="89" type="line" smooth="yes"/>
      <point x="1041" y="53"/>
      <point x="999" y="46"/>
      <point x="899" y="46" type="curve" smooth="yes"/>
      <point x="690" y="46" type="line"/>
      <point x="690" y="664" type="line"/>
      <point x="865" y="664" type="line" smooth="yes"/>
      <point x="965" y="664"/>
      <point x="1006" y="657"/>
      <point x="1010" y="621" type="curve" smooth="yes"/>
      <point x="1021" y="532" type="line"/>
      <point x="1065" y="532" type="line"/>
      <point x="1065" y="710" type="line"/>
      <point x="493" y="710" type="line" smooth="yes"/>
      <point x="222" y="710"/>
      <point x="55" y="570"/>
      <point x="55" y="353" type="curve" smooth="yes"/>
      <point x="55" y="136"/>
      <point x="222" y="0"/>
      <point x="493" y="0" type="curve" smooth="yes"/>
    </contour>
    <contour>
      <point x="663" y="385" type="line"/>
      <point x="663" y="342" type="line"/>
      <point x="964" y="336" type="line"/>
      <point x="964" y="391" type="line"/>
    </contour>
  </outline>
</glyph>
